<?xml version="1.0" encoding="UTF-8"?>
<svg width="653px" height="701px" viewBox="0 0 653 701" version="1.1" xmlns="http://www.w3.org/2000/svg" xmlns:xlink="http://www.w3.org/1999/xlink">
    <!-- Generator: Sketch 49.3 (51167) - http://www.bohemiancoding.com/sketch -->
    <title>balloon_y</title>
    <desc>Created with Sketch.</desc>
    <defs></defs>
    <g id="Page-1" stroke="none" stroke-width="1" fill="none" fill-rule="evenodd">
        <g id="balloon_y" transform="translate(-1.000000, 0.000000)" fill="#FFCC00" fill-rule="nonzero">
            <path d="M436.9506,207.904728 L436.9506,206.459421 C423.942837,74.936486 308.318278,-16.117855 186.912491,2.671136 C64.061397,22.18278 -24.824983,146.479181 7.694425,275.834157 C38.045872,395.794637 160.896966,476.731828 236.775582,481.790402 C230.271701,489.73959 226.658433,502.0247 223.045166,516.47777 C217.263938,536.712068 240.38885,522.258998 260.623147,517.923077 C260.623147,519.368384 261.3458,520.813691 261.345801,522.258998 C263.513761,534.544107 262.791108,552.610445 255.564573,576.45801 C248.338038,603.918843 246.170078,623.430487 248.338038,639.328864 C250.505998,653.781934 257.00988,665.34439 265.681722,674.016231 C274.353564,682.688073 286.638673,692.805222 292.419901,697.141143 C298.201129,701.477064 304.70501,702.922371 308.318278,696.41849 C311.931545,690.637262 307.595625,687.023995 304.705011,684.856034 C303.259704,683.410727 284.470713,668.957657 277.966831,661.731122 C271.46295,654.504587 267.127029,647.278052 265.681722,636.43825 C263.513762,624.875794 265.681722,607.53211 272.908257,581.516584 C280.134792,555.501058 280.857445,535.26676 278.689485,519.368384 C278.689485,518.645731 278.689485,517.200424 277.966831,516.47777 C293.865208,516.47777 306.872971,517.923077 298.201129,504.192661 C291.697248,492.630205 284.470713,481.790403 275.798871,476.009174 C296.755822,468.059986 319.880734,452.884262 341.560339,431.927311 C346.618913,427.59139 350.954834,422.532816 356.013409,417.474241 C361.071984,412.415666 365.407904,406.634439 369.743825,401.575865 C405.8765,356.771348 434.059986,298.236415 436.227946,235.365561 L436.227946,223.080452 C437.673253,218.021878 436.950599,212.963303 436.9506,207.904728 Z M327.829922,99.506704 C291.697247,64.819336 251.951305,43.862385 259.177841,36.63585 C266.404376,29.409315 306.150318,46.752999 342.282992,81.440367 C378.415667,116.127735 397.927311,155.873677 390.700776,163.100212 C383.474241,170.326747 363.962597,134.194072 327.829922,99.506704 Z M403.708539,230.306987 C397.204658,231.752294 389.255469,224.525759 386.364855,213.685956 C383.474241,202.846154 387.087508,192.006351 393.59139,190.561044 C400.817925,189.115737 408.04446,196.342272 410.935074,207.182075 C413.825688,218.021877 410.935074,228.86168 403.708539,230.306987 Z" id="Shape"></path>
            <path d="M653.023994,160.209598 L653.023994,159.486944 C643.629499,58.315455 554.743119,-11.05928 462.243472,3.39379 C431.892025,8.452364 404.431193,21.460127 382.028934,40.249118 C429.724065,77.104446 463.688779,134.194072 470.192661,202.1235 L470.192661,203.568807 C470.915314,208.627381 470.915314,213.685956 470.915314,218.744531 L470.915314,231.02964 C469.470007,272.943543 455.739591,313.412138 436.9506,348.822159 C459.352858,361.107268 482.47777,368.333803 501.266761,369.779111 C496.208187,376.282992 494.040226,384.954834 491.149612,395.794637 C486.813691,411.693014 504.157375,400.130558 520.055752,397.239944 C520.055752,398.685251 520.778405,399.407904 520.778405,400.853211 C522.223712,410.247706 521.501058,423.978123 516.442484,442.767114 C510.661256,463.724065 509.215949,478.177135 510.661256,490.462244 C512.106563,502.0247 517.165137,510.696542 523.669019,517.200423 C530.1729,524.426958 539.567396,531.653493 543.903317,534.544107 C548.239238,538.157374 553.297812,538.880028 556.188426,533.821454 C559.07904,529.485533 556.188426,526.594919 553.297812,524.426958 C551.852505,522.981651 538.122089,512.141849 533.063514,507.083275 C528.00494,501.302047 525.114326,496.243473 523.669019,487.57163 C522.223712,478.177135 523.669019,465.169372 528.727594,445.657728 C534.508822,425.42343 535.231475,410.247707 533.063514,397.962597 C533.063514,397.239944 533.063514,396.51729 532.340861,395.794637 C544.62597,395.794637 554.020466,397.239944 548.239238,386.400141 C543.180664,377.005646 538.122089,369.056457 530.895554,364.720536 C546.793931,358.939308 564.137615,347.376852 581.481299,331.478476 L592.321101,320.638673 C595.934368,317.025406 599.547636,312.689485 603.160903,308.353564 C630.621736,274.38885 652.301341,228.86168 653.746648,181.166549 L653.746648,171.772054 C653.023995,168.158787 653.023995,163.822866 653.023994,160.209598 Z M569.196189,77.104446 C541.735356,50.366267 511.38391,34.46789 517.165138,29.409315 C522.946366,23.628087 553.297813,36.63585 580.758645,63.37403 C608.219478,90.112209 622.672548,120.463656 617.613973,125.52223 C611.832745,131.303458 597.379675,103.842625 569.196189,77.104446 Z M627.731122,177.553282 C622.672548,178.998589 616.168666,173.217361 614.000706,164.545519 C611.832746,155.873677 614.000706,147.924489 619.781934,146.479181 C624.840508,145.033874 631.34439,150.815102 633.51235,159.486944 C634.957657,168.158786 632.789697,176.107974 627.731122,177.553282 Z" id="Shape"></path>
        </g>
    </g>
</svg>