<?xml version="1.0" encoding="UTF-8"?>
<svg width="17px" height="15px" viewBox="0 0 17 15" version="1.1" xmlns="http://www.w3.org/2000/svg" xmlns:xlink="http://www.w3.org/1999/xlink">
    <!-- Generator: Sketch 49.3 (51167) - http://www.bohemiancoding.com/sketch -->
    <title>日历 (2)</title>
    <desc>Created with Sketch.</desc>
    <defs></defs>
    <g id="Page-1" stroke="none" stroke-width="1" fill="none" fill-rule="evenodd">
        <g id="tags" transform="translate(-225.000000, -738.000000)" fill="#000000" fill-rule="nonzero">
            <g id="Group-5" transform="translate(211.000000, 738.000000)">
                <g id="日历-(2)" transform="translate(14.000000, 0.000000)">
                    <path d="M15.3,15 L1.7,15 C0.761087952,15 0,14.2538353 0,13.3333333 L0,4.16666667 L17,4.16666667 L17,13.3333333 C17,14.2538353 16.238912,15 15.3,15 Z M11.05,6.66666667 C11.05,6.20650602 10.6694458,5.83333333 10.2,5.83333333 C10.115594,5.83333333 6.88440602,5.83333333 6.8,5.83333333 C6.33063614,5.83333333 5.95,6.20650602 5.95,6.66666667 C5.95,7.12690763 6.33063614,7.5 6.8,7.5 C6.88440602,7.5 7.15691807,7.5 7.225,7.5 L9.1375,7.5 L6.8,12.0833333 C6.8,12.313494 6.99031807,12.5 7.225,12.5 L8.075,12.5 C8.30976386,12.5 8.5,12.313494 8.5,12.0833333 L11.05,7.08333333 C11.05,7.01658635 11.05,6.74941767 11.05,6.66666667 Z M0,2.5 C0,1.57949799 0.761087952,0.833333333 1.7,0.833333333 L3.48575783,0.833333333 C3.66212771,0.350240964 4.12155783,0 4.675,0 C5.22844217,0 5.68785181,0.350240964 5.86424217,0.833333333 L11.1357783,0.833333333 C11.3121482,0.350240964 11.7715783,0 12.3250205,0 C12.8784627,0 13.3378723,0.350240964 13.5142627,0.833333333 L15.3,0.833333333 C16.238912,0.833333333 17,1.57949799 17,2.5 L17,3.33333333 L0,3.33333333 L0,2.5 Z M11.9,2.5 L12.75,2.5 L12.75,0.833333333 L11.9,0.833333333 L11.9,2.5 Z M4.25,2.5 L5.1,2.5 L5.1,0.833333333 L4.25,0.833333333 L4.25,2.5 Z" id="Shape"></path>
                </g>
            </g>
        </g>
    </g>
</svg>