<?xml version="1.0" encoding="UTF-8"?>
<svg width="15px" height="15px" viewBox="0 0 15 15" version="1.1" xmlns="http://www.w3.org/2000/svg" xmlns:xlink="http://www.w3.org/1999/xlink">
    <!-- Generator: Sketch 49.3 (51167) - http://www.bohemiancoding.com/sketch -->
    <title>Shape</title>
    <desc>Created with Sketch.</desc>
    <defs></defs>
    <g id="Page-1" stroke="none" stroke-width="1" fill="none" fill-rule="evenodd">
        <g id="chat_direct_2" transform="translate(-224.000000, -702.000000)" fill="#BFBFBF" fill-rule="nonzero">
            <path d="M232.109106,707.479362 L232.109106,708.849203 L233.478946,708.849203 C233.478946,708.092661 232.865648,707.479362 232.109106,707.479362 M232.109106,704.739681 L232.109106,706.109522 C233.619666,706.109522 234.848787,707.338642 234.848787,708.849203 L236.218627,708.849203 C236.218627,706.579577 234.378732,704.739681 232.109106,704.739681 M232.109106,702 L232.109106,703.369841 C235.130227,703.369841 237.588468,705.828082 237.588468,708.849203 L238.958308,708.849203 C238.958308,705.066492 235.891816,702 232.109106,702 M234.095698,715.733274 C234.026775,715.878922 234.026775,715.895105 234.095698,715.733274 M235.732957,713.272542 C235.156378,712.961215 234.572328,712.608792 233.969598,712.362221 C232.802743,711.886513 232.881198,713.292467 232.049331,713.74825 C231.507621,714.044634 230.744246,713.507906 230.271029,713.210277 C229.438061,712.677953 228.705758,712.002565 228.107926,711.215291 C227.796599,710.810565 227.109188,710.050926 227.193869,709.484311 C227.328362,708.583952 228.393102,708.537875 228.088001,707.438267 C227.926111,706.84799 227.634708,706.267676 227.415534,705.699815 C227.124131,704.938931 227.004582,704.452015 226.150299,704.49311 C225.535116,704.522997 225.126655,704.785757 224.748081,705.280145 C223.723191,706.613872 223.877609,708.413344 224.566266,709.876583 C225.540098,711.948778 227.211303,713.901424 228.994586,715.162922 C230.208763,716.022186 231.807741,716.800504 233.277206,716.932507 C234.353154,717.029641 235.858733,716.446836 236.243533,715.279981 L236.178777,715.47674 L236.243533,715.279981 L236.31078,715.076996 C236.298327,715.110619 236.273421,715.19281 236.244779,715.276245 C236.583503,714.24762 236.624598,713.751986 235.734202,713.271297 M234.158885,715.49038 C234.19827,715.36238 234.19827,715.352534 234.158885,715.49038" id="Shape"></path>
        </g>
    </g>
</svg>