<?xml version="1.0" encoding="UTF-8"?>
<svg width="16px" height="14px" viewBox="0 0 16 14" version="1.1" xmlns="http://www.w3.org/2000/svg" xmlns:xlink="http://www.w3.org/1999/xlink">
    <!-- Generator: Sketch 49.3 (51167) - http://www.bohemiancoding.com/sketch -->
    <title>Shape</title>
    <desc>Created with Sketch.</desc>
    <defs></defs>
    <g id="Page-1" stroke="none" stroke-width="1" fill="none" fill-rule="evenodd">
        <g id="chat_direct_2" transform="translate(-137.000000, -702.000000)" fill="#BFBFBF" fill-rule="nonzero">
            <path d="M144.571792,707.300255 C145.197517,707.300255 145.732537,707.522413 146.176854,707.96673 C146.621171,708.411047 146.84333,708.946068 146.84333,709.571792 C146.84333,710.197517 146.621171,710.732537 146.176854,711.176854 C145.732537,711.621171 145.197517,711.84333 144.571792,711.84333 C143.946068,711.84333 143.411047,711.621171 142.96673,711.176854 C142.522413,710.732537 142.300255,710.197517 142.300255,709.571792 C142.300255,708.946068 142.522413,708.411047 142.96673,707.96673 C143.411047,707.522413 143.946068,707.300255 144.571792,707.300255 Z M150.12444,704.019145 C150.681808,704.019145 151.157674,704.216327 151.552038,704.610691 C151.946402,705.005055 152.143584,705.480921 152.143584,706.038289 L152.143584,713.105295 C152.143584,713.662663 151.946402,714.138529 151.552038,714.532894 C151.157674,714.927258 150.681808,715.12444 150.12444,715.12444 L139.019145,715.12444 C138.461777,715.12444 137.98591,714.927258 137.591546,714.532894 C137.197182,714.138529 137,713.662663 137,713.105295 L137,706.038289 C137,705.480921 137.197182,705.005055 137.591546,704.610691 C137.98591,704.216327 138.461777,704.019145 139.019145,704.019145 L140.785896,704.019145 L141.188148,702.946474 C141.288053,702.688823 141.470775,702.466664 141.736314,702.279999 C142.001852,702.093333 142.273964,702 142.552648,702 L146.590937,702 C146.869621,702 147.141732,702.093333 147.407271,702.279999 C147.672809,702.466664 147.855531,702.688823 147.955437,702.946474 L148.357688,704.019145 L150.12444,704.019145 Z M144.571792,713.105295 C145.544557,713.105295 146.376666,712.759569 147.068117,712.068117 C147.759569,711.376666 148.105295,710.544557 148.105295,709.571792 C148.105295,708.599027 147.759569,707.766919 147.068117,707.075467 C146.376666,706.384015 145.544557,706.038289 144.571792,706.038289 C143.599027,706.038289 142.766919,706.384015 142.075467,707.075467 C141.384015,707.766919 141.038289,708.599027 141.038289,709.571792 C141.038289,710.544557 141.384015,711.376666 142.075467,712.068117 C142.766919,712.759569 143.599027,713.105295 144.571792,713.105295 Z" id="Shape"></path>
        </g>
    </g>
</svg>