<?xml version="1.0" encoding="UTF-8"?>
<svg width="40px" height="35px" viewBox="0 0 40 35" version="1.1" xmlns="http://www.w3.org/2000/svg" xmlns:xlink="http://www.w3.org/1999/xlink">
    <!-- Generator: Sketch 49.3 (51167) - http://www.bohemiancoding.com/sketch -->
    <title>Shape</title>
    <desc>Created with Sketch.</desc>
    <defs></defs>
    <g id="Page-1" stroke="none" stroke-width="1" fill="none" fill-rule="evenodd">
        <g id="onboarding_2" transform="translate(-168.000000, -407.000000)" fill="#BFBFBF" fill-rule="nonzero">
            <g id="Group" transform="translate(40.000000, 324.000000)">
                <path d="M148,97 C149.652778,97 151.065972,97.5868056 152.239583,98.7604167 C153.413194,99.9340278 154,101.347222 154,103 C154,104.652778 153.413194,106.065972 152.239583,107.239583 C151.065972,108.413194 149.652778,109 148,109 C146.347222,109 144.934028,108.413194 143.760417,107.239583 C142.586806,106.065972 142,104.652778 142,103 C142,101.347222 142.586806,99.9340278 143.760417,98.7604167 C144.934028,97.5868056 146.347222,97 148,97 Z M162.666667,88.3333333 C164.138889,88.3333333 165.395833,88.8541667 166.4375,89.8958333 C167.479167,90.9375 168,92.1944444 168,93.6666666 L168,112.333333 C168,113.805556 167.479167,115.0625 166.4375,116.104167 C165.395833,117.145833 164.138889,117.666667 162.666667,117.666667 L133.333333,117.666667 C131.861111,117.666667 130.604167,117.145833 129.5625,116.104167 C128.520833,115.0625 128,113.805556 128,112.333333 L128,93.6666666 C128,92.1944444 128.520833,90.9375 129.5625,89.8958333 C130.604167,88.8541667 131.861111,88.3333333 133.333333,88.3333333 L138,88.3333333 L139.0625,85.5 C139.326389,84.8194444 139.809028,84.2326389 140.510417,83.7395833 C141.211806,83.2465278 141.930556,83 142.666667,83 L153.333333,83 C154.069444,83 154.788194,83.2465278 155.489583,83.7395833 C156.190972,84.2326389 156.673611,84.8194444 156.9375,85.5 L158,88.3333333 L162.666667,88.3333333 Z M148,112.333333 C150.569444,112.333333 152.767361,111.420139 154.59375,109.59375 C156.420139,107.767361 157.333333,105.569444 157.333333,103 C157.333333,100.430556 156.420139,98.2326389 154.59375,96.40625 C152.767361,94.5798611 150.569444,93.6666667 148,93.6666667 C145.430556,93.6666667 143.232639,94.5798611 141.40625,96.40625 C139.579861,98.2326389 138.666667,100.430556 138.666667,103 C138.666667,105.569444 139.579861,107.767361 141.40625,109.59375 C143.232639,111.420139 145.430556,112.333333 148,112.333333 Z" id="Shape"></path>
            </g>
        </g>
    </g>
</svg>