<?xml version="1.0" standalone="no"?><!DOCTYPE svg PUBLIC "-//W3C//DTD SVG 1.1//EN" "http://www.w3.org/Graphics/SVG/1.1/DTD/svg11.dtd"><svg t="1541905708197" class="icon" style="" viewBox="0 0 1024 1024" version="1.1" xmlns="http://www.w3.org/2000/svg" p-id="1970" xmlns:xlink="http://www.w3.org/1999/xlink" width="200" height="200"><defs><style type="text/css"></style></defs><path d="M859.406336 512.032768l78.852096 77.13792q17.14176 15.998976 11.42784 39.99744-6.856704 23.427072-29.712384 29.140992l-107.421696 27.426816 30.283776 106.278912q6.856704 23.427072-10.856448 39.99744-16.570368 17.713152-39.99744 10.856448l-106.278912-30.283776-27.426816 107.421696q-5.71392 22.85568-29.140992 29.712384-6.856704 1.142784-10.856448 1.142784-17.713152 0-29.140992-12.570624l-77.13792-78.852096-77.13792 78.852096q-15.998976 17.14176-39.99744 11.42784-23.427072-6.285312-29.140992-29.712384l-27.426816-107.421696-106.278912 30.283776q-23.427072 6.856704-39.99744-10.856448-17.713152-16.570368-10.856448-39.99744l30.283776-106.278912-107.421696-27.426816q-22.85568-5.71392-29.712384-29.140992-5.71392-23.998464 11.42784-39.99744l78.852096-77.13792-78.852096-77.13792q-17.14176-15.998976-11.42784-39.99744 6.856704-23.427072 29.712384-29.140992l107.421696-27.426816-30.283776-106.278912q-6.856704-23.427072 10.856448-39.99744 16.570368-17.713152 39.99744-10.856448l106.278912 30.283776 27.426816-107.421696q5.71392-23.427072 29.140992-29.140992 23.427072-6.856704 39.99744 10.856448l77.13792 79.423488 77.13792-79.423488q16.570368-17.14176 39.99744-10.856448 23.427072 5.71392 29.140992 29.140992l27.426816 107.421696 106.278912-30.283776q23.427072-6.856704 39.99744 10.856448 17.713152 16.570368 10.856448 39.99744l-30.283776 106.278912 107.421696 27.426816q22.85568 5.71392 29.712384 29.140992 5.71392 23.998464-11.42784 39.99744z" p-id="1971"></path></svg>