<?xml version="1.0" encoding="UTF-8"?>
<svg width="39px" height="39px" viewBox="0 0 39 39" version="1.1" xmlns="http://www.w3.org/2000/svg" xmlns:xlink="http://www.w3.org/1999/xlink">
    <!-- Generator: Sketch 49.3 (51167) - http://www.bohemiancoding.com/sketch -->
    <title>certificate</title>
    <desc>Created with Sketch.</desc>
    <defs></defs>
    <g id="Page-1" stroke="none" stroke-width="1" fill="none" fill-rule="evenodd">
        <g id="myprofile" transform="translate(-168.000000, -473.000000)" fill="#F57272" fill-rule="nonzero">
            <g id="certificate" transform="translate(168.000000, 473.000000)">
                <path d="M34.9274561,19.498082 L38.4290826,22.9239232 C38.9365647,23.3976197 39.1057254,23.9897404 38.9365647,24.7002852 C38.7335719,25.3939123 38.2937541,25.8253146 37.6171113,25.9944919 L32.8467794,27.2125688 L34.191607,31.9326166 C34.3945999,32.6262437 34.2338972,33.2183644 33.709499,33.7089787 C33.218933,34.2334284 32.6268705,34.3941469 31.9333116,34.1911341 L27.213728,32.8461742 L25.995771,37.6169752 C25.8266103,38.2936846 25.3952505,38.7335457 24.7016916,38.9365585 C24.4986988,38.970394 24.3379961,38.9873117 24.2195836,38.9873117 C23.6951854,38.9873117 23.2638256,38.8012166 22.9255042,38.4290265 L19.5,34.9270555 L16.0744958,38.4290265 C15.6008458,38.9365585 15.0087833,39.1057358 14.2983084,38.9365585 C13.6047495,38.7504634 13.1733897,38.3106023 13.004229,37.6169752 L11.786272,32.8461742 L7.06668835,34.1911341 C6.37312947,34.3941469 5.78106701,34.2334284 5.29050098,33.7089787 C4.7661028,33.2183644 4.60540013,32.6262437 4.80839297,31.9326166 L6.15322056,27.2125688 L1.38288874,25.9944919 C0.706245934,25.8253146 0.266428107,25.3939123 0.0634352635,24.7002852 C-0.105725439,23.9897404 0.0634352635,23.3976197 0.570917372,22.9239232 L4.07254392,19.498082 L0.570917372,16.0722408 C0.0634352635,15.5985443 -0.105725439,15.0064236 0.0634352635,14.2958788 C0.266428107,13.6022517 0.706245934,13.1708494 1.38288874,13.0016721 L6.15322056,11.7835952 L4.80839297,7.06354743 C4.60540013,6.36992033 4.7661028,5.77779964 5.29050098,5.28718535 C5.78106701,4.76273559 6.37312947,4.60201711 7.06668835,4.80502992 L11.786272,6.14998979 L13.004229,1.37918877 C13.1733897,0.685561667 13.6047495,0.254159447 14.2983084,0.0849821062 C14.9918673,-0.118030703 15.5839297,0.042687771 16.0744958,0.567137528 L19.5,4.09448509 L22.9255042,0.567137528 C23.4160703,0.0596055051 24.0081327,-0.101112969 24.7016916,0.0849821062 C25.3952505,0.254159447 25.8266103,0.685561667 25.995771,1.37918877 L27.213728,6.14998979 L31.9333116,4.80502992 C32.6268705,4.60201711 33.218933,4.76273559 33.709499,5.28718535 C34.2338972,5.77779964 34.3945999,6.36992033 34.191607,7.06354743 L32.8467794,11.7835952 L37.6171113,13.0016721 C38.2937541,13.1708494 38.7335719,13.6022517 38.9365647,14.2958788 C39.1057254,15.0064236 38.9365647,15.5985443 38.4290826,16.0722408 L34.9274561,19.498082 Z" id="Shape"></path>
            </g>
        </g>
    </g>
</svg>