<?xml version="1.0" encoding="UTF-8"?>
<svg width="21px" height="17px" viewBox="0 0 21 17" version="1.1" xmlns="http://www.w3.org/2000/svg" xmlns:xlink="http://www.w3.org/1999/xlink">
    <!-- Generator: Sketch 49.3 (51167) - http://www.bohemiancoding.com/sketch -->
    <title>Group</title>
    <desc>Created with Sketch.</desc>
    <defs></defs>
    <g id="Page-1" stroke="none" stroke-width="1" fill="none" fill-rule="evenodd">
        <g id="tags" transform="translate(-131.000000, -737.000000)" fill="#000000">
            <g id="Group-4" transform="translate(127.000000, 737.000000)">
                <g id="Group" transform="translate(4.000000, 0.000000)">
                    <path d="M20.5,6.4656953 C20.5,10.0366002 17.6052096,12.9313906 14.0343047,12.9313906 L13.2121311,12.9313906 C12.4448363,12.9313906 11.7206307,13.2860797 11.2502213,13.8922613 L9.2265625,16.5 L6.55333392,13.0707951 C6.48475664,12.9828245 6.37944589,12.9313906 6.26790365,12.9313906 C3.08237842,12.9313906 0.5,10.3490122 0.5,7.16348695 L0.5,6.4656953 C0.5,2.89479039 3.39479039,-6.9237138e-15 6.9656953,-6.70505893e-15 L14.0343047,-7.18293329e-15 C17.6052096,-6.96427843e-15 20.5,2.89479039 20.5,6.4656953 Z M5.5,8 C6.32842712,8 7,7.32842712 7,6.5 C7,5.67157288 6.32842712,5 5.5,5 C4.67157288,5 4,5.67157288 4,6.5 C4,7.32842712 4.67157288,8 5.5,8 Z M10.5,8 C11.3284271,8 12,7.32842712 12,6.5 C12,5.67157288 11.3284271,5 10.5,5 C9.67157288,5 9,5.67157288 9,6.5 C9,7.32842712 9.67157288,8 10.5,8 Z M15.5,8 C16.3284271,8 17,7.32842712 17,6.5 C17,5.67157288 16.3284271,5 15.5,5 C14.6715729,5 14,5.67157288 14,6.5 C14,7.32842712 14.6715729,8 15.5,8 Z" id="Combined-Shape"></path>
                </g>
            </g>
        </g>
    </g>
</svg>