<?xml version="1.0" encoding="UTF-8"?>
<svg width="22px" height="17px" viewBox="0 0 22 17" version="1.1" xmlns="http://www.w3.org/2000/svg" xmlns:xlink="http://www.w3.org/1999/xlink">
    <!-- Generator: Sketch 49.3 (51167) - http://www.bohemiancoding.com/sketch -->
    <title>Group</title>
    <desc>Created with Sketch.</desc>
    <defs></defs>
    <g id="Page-1" stroke="none" stroke-width="1" fill="none" fill-rule="evenodd">
        <g id="chat_list" transform="translate(-130.000000, -737.000000)" fill="#FFCC00">
            <g id="Group-4" transform="translate(127.000000, 737.000000)">
                <g id="Group" transform="translate(3.000000, 0.000000)">
                    <path d="M21.3030303,6.7156953 C21.3030303,10.2866002 18.4082399,13.1813906 14.837335,13.1813906 L13.7943169,13.1813906 C13.0023042,13.1813906 12.2532626,13.541529 11.7586711,14.1601269 L9.68797348,16.75 L6.93581246,13.323378 C6.86371475,13.2336116 6.75479339,13.1813906 6.6396583,13.1813906 C3.35760201,13.1813906 0.696969697,10.5207583 0.696969697,7.23870199 L0.696969697,6.7156953 C0.696969697,3.14479039 3.59176009,0.25 7.162665,0.25 L14.837335,0.25 C18.4082399,0.25 21.3030303,3.14479039 21.3030303,6.7156953 Z M6,8.24242424 C6.82842712,8.24242424 7.5,7.55050067 7.5,6.6969697 C7.5,5.84343872 6.82842712,5.15151515 6,5.15151515 C5.17157288,5.15151515 4.5,5.84343872 4.5,6.6969697 C4.5,7.55050067 5.17157288,8.24242424 6,8.24242424 Z M11,8.24242424 C11.8284271,8.24242424 12.5,7.55050067 12.5,6.6969697 C12.5,5.84343872 11.8284271,5.15151515 11,5.15151515 C10.1715729,5.15151515 9.5,5.84343872 9.5,6.6969697 C9.5,7.55050067 10.1715729,8.24242424 11,8.24242424 Z M16,8.24242424 C16.8284271,8.24242424 17.5,7.55050067 17.5,6.6969697 C17.5,5.84343872 16.8284271,5.15151515 16,5.15151515 C15.1715729,5.15151515 14.5,5.84343872 14.5,6.6969697 C14.5,7.55050067 15.1715729,8.24242424 16,8.24242424 Z" id="Combined-Shape"></path>
                </g>
            </g>
        </g>
    </g>
</svg>