<?xml version="1.0" standalone="no"?><!DOCTYPE svg PUBLIC "-//W3C//DTD SVG 1.1//EN" "http://www.w3.org/Graphics/SVG/1.1/DTD/svg11.dtd"><svg t="1541983891265" class="icon" style="" viewBox="0 0 1024 1024" version="1.1" xmlns="http://www.w3.org/2000/svg" p-id="4901" xmlns:xlink="http://www.w3.org/1999/xlink" width="200" height="200"><defs><style type="text/css"></style></defs><path d="M471.849558 536.888853c-4.139274-7.299243-6.212492-15.446807-6.195096-23.608697l0-0.085958 0-239.811808c0-26.595728 21.311375-48.155766 48.018643-48.155766 26.51898 0 48.015573 21.533432 48.015573 48.155766l0 219.960691 105.002472 104.998379c18.675338 18.679431 18.7439 48.8905-0.137123 67.771523-18.753109 18.752086-49.238424 18.670222-67.771523 0.137123L481.341746 548.810371C477.585189 545.376155 474.374054 541.353538 471.849558 536.888853L471.849558 536.888853zM513.673106 897.481492c212.155934 0 384.145054-171.989119 384.145054-384.145054 0-212.160028-171.989119-384.148124-384.145054-384.148124-212.160028 0-384.148124 171.988096-384.148124 384.148124C129.524982 725.492372 301.513078 897.481492 513.673106 897.481492L513.673106 897.481492zM513.673106 897.481492" p-id="4902"></path></svg>