<?xml version="1.0" encoding="UTF-8"?>
<svg width="12px" height="12px" viewBox="0 0 12 12" version="1.1" xmlns="http://www.w3.org/2000/svg" xmlns:xlink="http://www.w3.org/1999/xlink">
    <!-- Generator: Sketch 49.3 (51167) - http://www.bohemiancoding.com/sketch -->
    <title>Shape</title>
    <desc>Created with Sketch.</desc>
    <defs></defs>
    <g id="Page-1" stroke="none" stroke-width="1" fill="none" fill-rule="evenodd">
        <g id="chat_direct_1" transform="translate(-24.000000, -137.000000)" fill="#FFCC00" fill-rule="nonzero">
            <g id="Group-2" transform="translate(10.000000, 98.000000)">
                <path d="M19.3467804,45.36789 C19.2821289,45.2538829 19.2497473,45.1266258 19.250019,44.9991449 L19.250019,44.9978023 L19.250019,41.2521727 C19.250019,40.836773 19.5828821,40.500026 20.000024,40.500026 C20.4142249,40.500026 20.749981,40.8363575 20.749981,41.2521727 L20.749981,44.687747 L22.3900186,46.3277206 C22.6817094,46.6194753 22.6827802,47.0913432 22.3878768,47.3862466 C22.0949713,47.6791361 21.61882,47.6778575 21.3293509,47.3883883 L19.4950392,45.5540927 C19.4363654,45.5004535 19.3862106,45.4376241 19.3467804,45.36789 Z M20.000024,51 C23.3136955,51 26,48.3136955 26,45.000024 C26,41.6862885 23.3136955,39 20.000024,39 C16.6862885,39 14,41.6862885 14,45.000024 C14,48.3136955 16.6862885,51 20.000024,51 Z" id="Shape"></path>
            </g>
        </g>
    </g>
</svg>