<?xml version="1.0" encoding="UTF-8"?>
<svg width="30px" height="30px" viewBox="0 0 30 30" version="1.1" xmlns="http://www.w3.org/2000/svg" xmlns:xlink="http://www.w3.org/1999/xlink">
    <!-- Generator: Sketch 49.3 (51167) - http://www.bohemiancoding.com/sketch -->
    <title>Group 2 Copy</title>
    <desc>Created with Sketch.</desc>
    <defs></defs>
    <g id="Page-1" stroke="none" stroke-width="1" fill="none" fill-rule="evenodd">
        <g id="chat_direct_1" transform="translate(-288.000000, -739.000000)">
            <g id="Group" transform="translate(0.000000, 729.000000)">
                <g id="Group-2-Copy" transform="translate(289.000000, 11.000000)">
                    <path d="M20,22 C20,21.7896339 19.9891738,21.5817964 19.9680482,21.3770143 C19.6564006,18.3560469 17.1033424,16 14,16 C13.3580712,16 12.7396875,16.1008088 12.1598164,16.2874589 C10.9804233,16.6670843 9.96034536,17.4018097 9.22551245,18.3657052 C8.58184665,19.2100148 8.15703852,20.230158 8.03572198,21.3415006 C8.01211519,21.557755 8,21.7774627 8,22" id="Oval-2" stroke="#3C3C3C" stroke-width="2" stroke-linecap="round" transform="translate(14.000000, 19.000000) scale(1, -1) translate(-14.000000, -19.000000) "></path>
                    <circle id="Oval" fill="#3C3C3C" cx="8" cy="10" r="2"></circle>
                    <circle id="Oval-Copy" fill="#3C3C3C" cx="20" cy="10" r="2"></circle>
                    <circle id="Oval-9-Copy-4" stroke="#3C3C3C" cx="14" cy="14" r="14"></circle>
                </g>
            </g>
        </g>
    </g>
</svg>