<?xml version="1.0" encoding="UTF-8"?>
<svg width="15px" height="15px" viewBox="0 0 15 15" version="1.1" xmlns="http://www.w3.org/2000/svg" xmlns:xlink="http://www.w3.org/1999/xlink">
    <!-- Generator: Sketch 49.3 (51167) - http://www.bohemiancoding.com/sketch -->
    <title>Shape</title>
    <desc>Created with Sketch.</desc>
    <defs></defs>
    <g id="Page-1" stroke="none" stroke-width="1" fill="none" fill-rule="evenodd">
        <g id="chat_direct_2" transform="translate(-51.000000, -702.000000)" fill="#BFBFBF" fill-rule="nonzero">
            <path d="M57.0646875,712.341563 C56.368125,712.341563 55.2778125,709.587188 54.75,710.700938 C54.530625,711.164062 54.165,712.15125 53.8125,712.941563 L53.8125,713.25 C53.8125,713.767767 54.232233,714.1875 54.75,714.1875 L62.25,714.1875 C62.7684375,714.1875 63.1875,713.768438 63.1875,713.25 L63.1875,712.813125 C62.6578125,711.620625 61.9715625,709.644375 61.3125,708.885 C59.964375,707.3325 58.35375,712.341563 57.0646875,712.341563 Z M63.1875,702 L53.8125,702 C52.2591991,702 51,703.259199 51,704.8125 L51,714.1875 C51,715.74 52.2590625,717 53.8125,717 L63.1875,717 C64.74,717 66,715.74 66,714.1875 L66,704.8125 C66,703.259063 64.74,702 63.1875,702 Z M64.125,714.1875 C64.125,714.705938 63.7059375,715.125 63.1875,715.125 L53.8125,715.125 C53.294733,715.125 52.875,714.705267 52.875,714.1875 L52.875,704.8125 C52.875,704.295 53.295,703.875 53.8125,703.875 L63.1875,703.875 C63.705267,703.875 64.125,704.294733 64.125,704.8125 L64.125,714.1875 Z M55.21875,707.625 C55.9959375,707.625 56.625,706.995937 56.625,706.21875 C56.625,705.441563 55.9959375,704.8125 55.21875,704.8125 C54.4415625,704.8125 53.8125,705.441563 53.8125,706.21875 C53.8125,706.995937 54.4415625,707.625 55.21875,707.625 Z" id="Shape"></path>
        </g>
    </g>
</svg>