<?xml version="1.0" encoding="UTF-8"?>
<svg width="12px" height="18px" viewBox="0 0 12 18" version="1.1" xmlns="http://www.w3.org/2000/svg" xmlns:xlink="http://www.w3.org/1999/xlink">
    <!-- Generator: Sketch 49.3 (51167) - http://www.bohemiancoding.com/sketch -->
    <title>Shape</title>
    <desc>Created with Sketch.</desc>
    <defs></defs>
    <g id="Page-1" stroke="none" stroke-width="1" fill="none" fill-rule="evenodd">
        <g id="chat_direct_2" transform="translate(-312.000000, -700.000000)" fill="#BFBFBF" fill-rule="nonzero">
            <path d="M320.589657,705.726438 C320.589657,704.93607 320.310046,704.261275 319.750824,703.702053 C319.191601,703.14283 318.516806,702.863219 317.726438,702.863219 C316.93607,702.863219 316.261275,703.14283 315.702053,703.702053 C315.14283,704.261275 314.863219,704.93607 314.863219,705.726438 C314.863219,706.516806 315.14283,707.191601 315.702053,707.750824 C316.261275,708.310046 316.93607,708.589657 317.726438,708.589657 C318.516806,708.589657 319.191601,708.310046 319.750824,707.750824 C320.310046,707.191601 320.589657,706.516806 320.589657,705.726438 Z M323.452876,705.726438 C323.452876,706.539175 323.329848,707.206514 323.08379,707.728455 L319.01265,716.385219 C318.893349,716.631277 318.716262,716.82514 318.481389,716.96681 C318.246515,717.10848 317.994865,717.179315 317.726438,717.179315 C317.458011,717.179315 317.206361,717.10848 316.971488,716.96681 C316.736614,716.82514 316.563255,716.631277 316.451411,716.385219 L312.369087,707.728455 C312.123029,707.206514 312,706.539175 312,705.726438 C312,704.145703 312.559222,702.796112 313.677667,701.677667 C314.796112,700.559222 316.145703,700 317.726438,700 C319.307174,700 320.656764,700.559222 321.775209,701.677667 C322.893654,702.796112 323.452876,704.145703 323.452876,705.726438 Z" id="Shape"></path>
        </g>
    </g>
</svg>