<?xml version="1.0" encoding="UTF-8"?>
<svg width="10px" height="15px" viewBox="0 0 10 15" version="1.1" xmlns="http://www.w3.org/2000/svg" xmlns:xlink="http://www.w3.org/1999/xlink">
    <!-- Generator: Sketch 49.3 (51167) - http://www.bohemiancoding.com/sketch -->
    <title>Shape Copy</title>
    <desc>Created with Sketch.</desc>
    <defs></defs>
    <g id="Page-1" stroke="none" stroke-width="1" fill="none" fill-rule="evenodd">
        <g id="chat_direct_1" transform="translate(-25.000000, -159.000000)" fill="#FFCC00" fill-rule="nonzero">
            <path d="M32.5,164 C32.5,163.309896 32.2558594,162.720703 31.7675781,162.232422 C31.2792969,161.744141 30.6901042,161.5 30,161.5 C29.3098958,161.5 28.7207031,161.744141 28.2324219,162.232422 C27.7441406,162.720703 27.5,163.309896 27.5,164 C27.5,164.690104 27.7441406,165.279297 28.2324219,165.767578 C28.7207031,166.255859 29.3098958,166.5 30,166.5 C30.6901042,166.5 31.2792969,166.255859 31.7675781,165.767578 C32.2558594,165.279297 32.5,164.690104 32.5,164 Z M35,164 C35,164.709635 34.8925781,165.292318 34.6777344,165.748047 L31.1230469,173.306641 C31.0188802,173.521484 30.8642578,173.690755 30.6591797,173.814453 C30.4541016,173.938151 30.234375,174 30,174 C29.765625,174 29.5458984,173.938151 29.3408203,173.814453 C29.1357422,173.690755 28.984375,173.521484 28.8867188,173.306641 L25.3222656,165.748047 C25.1074219,165.292318 25,164.709635 25,164 C25,162.619792 25.4882812,161.441406 26.4648438,160.464844 C27.4414062,159.488281 28.6197917,159 30,159 C31.3802083,159 32.5585938,159.488281 33.5351562,160.464844 C34.5117188,161.441406 35,162.619792 35,164 Z" id="Shape-Copy"></path>
        </g>
    </g>
</svg>