<?xml version="1.0" encoding="UTF-8"?>
<svg width="586px" height="878px" viewBox="0 0 586 878" version="1.1" xmlns="http://www.w3.org/2000/svg" xmlns:xlink="http://www.w3.org/1999/xlink">
    <!-- Generator: Sketch 49.3 (51167) - http://www.bohemiancoding.com/sketch -->
    <title>location</title>
    <desc>Created with Sketch.</desc>
    <defs></defs>
    <g id="Page-1" stroke="none" stroke-width="1" fill="none" fill-rule="evenodd">
        <g id="location" fill="#3C3C3C" fill-rule="nonzero">
            <path d="M439.257408,292.756416 C439.257408,252.378048 424.972608,217.904064 396.403008,189.334464 C367.833408,160.764864 333.359424,146.480064 292.981056,146.480064 C252.602688,146.480064 218.128704,160.764864 189.559104,189.334464 C160.989504,217.904064 146.704704,252.378048 146.704704,292.756416 C146.704704,333.134784 160.989504,367.608768 189.559104,396.178368 C218.128704,424.747968 252.602688,439.032768 292.981056,439.032768 C333.359424,439.032768 367.833408,424.747968 396.403008,396.178368 C424.972608,367.608768 439.257408,333.134784 439.257408,292.756416 Z M585.53376,292.756416 C585.53376,334.277568 579.248448,368.370624 566.677824,395.035584 L358.691136,837.292992 C352.596288,849.863616 343.549248,859.767744 331.550016,867.005376 C319.550784,874.243008 306.694464,877.861824 292.981056,877.861824 C279.267648,877.861824 266.411328,874.243008 254.412096,867.005376 C242.412864,859.767744 233.556288,849.863616 227.842368,837.292992 L19.284288,395.035584 C6.713664,368.370624 0.428352,334.277568 0.428352,292.756416 C0.428352,211.99968 28.997952,143.051712 86.137152,85.912512 C143.276352,28.773312 212.22432,0.203712 292.981056,0.203712 C373.737792,0.203712 442.68576,28.773312 499.82496,85.912512 C556.96416,143.051712 585.53376,211.99968 585.53376,292.756416 Z" id="Shape"></path>
        </g>
    </g>
</svg>