<?xml version="1.0" encoding="UTF-8"?>
<svg width="26px" height="25px" viewBox="0 0 26 25" version="1.1" xmlns="http://www.w3.org/2000/svg" xmlns:xlink="http://www.w3.org/1999/xlink">
    <!-- Generator: Sketch 49.3 (51167) - http://www.bohemiancoding.com/sketch -->
    <title>Star Copy</title>
    <desc>Created with Sketch.</desc>
    <defs></defs>
    <g id="Page-1" stroke="none" stroke-width="1" fill="none" fill-rule="evenodd">
        <g id="myprofile" transform="translate(-105.000000, -604.000000)" fill="#FFCC00">
            <path d="M117.999858,624.521792 L111.377622,627.999735 C110.888668,628.256529 110.284121,628.068327 110.027327,627.579374 C109.92471,627.383985 109.889613,627.160139 109.927503,626.94272 L111.205155,619.611452 L105.844164,614.432091 C105.44697,614.048354 105.436061,613.415283 105.819799,613.018088 C105.974265,612.858204 106.177606,612.754351 106.397688,612.722939 L113.800501,611.666355 L117.103271,604.979908 C117.347861,604.484737 117.947556,604.281601 118.442727,604.526191 C118.639699,604.623485 118.79915,604.782936 118.896444,604.979908 L122.199215,611.666355 L129.602028,612.722939 C130.148771,612.800975 130.528735,613.307458 130.4507,613.854202 C130.419288,614.074284 130.315435,614.277625 130.155551,614.432091 L124.79456,619.611452 L126.072212,626.94272 C126.167032,627.486804 125.802831,628.004738 125.258747,628.099558 C125.041328,628.137449 124.817482,628.102351 124.622094,627.999735 L117.999858,624.521792 Z" id="Star-Copy"></path>
        </g>
    </g>
</svg>