<?xml version="1.0" encoding="UTF-8"?>
<svg width="16px" height="18px" viewBox="0 0 16 18" version="1.1" xmlns="http://www.w3.org/2000/svg" xmlns:xlink="http://www.w3.org/1999/xlink">
    <!-- Generator: Sketch 49.3 (51167) - http://www.bohemiancoding.com/sketch -->
    <title>safety-certificate</title>
    <desc>Created with Sketch.</desc>
    <defs></defs>
    <g id="Page-1" stroke="none" stroke-width="1" fill="none" fill-rule="evenodd">
        <g id="myprofile" transform="translate(-235.000000, -250.000000)" fill="#FFBD00" fill-rule="nonzero">
            <g id="safety-certificate" transform="translate(235.000000, 250.000000)">
                <path d="M7.99943166,1.55822322 L1.52332527,4.20776368 L1.52332527,8.16463579 C1.52332527,9.12319565 1.69359876,10.0513786 2.03528851,10.95481 C2.72117917,12.784693 3.9874001,14.3484704 5.64645776,15.4145885 C6.37018396,15.8819091 7.16427194,16.2338833 7.99943166,16.4575287 C8.83404411,16.2344362 9.6277258,15.8832304 10.3512628,15.4168387 C12.0100537,14.3496531 13.2764515,12.7857577 13.9635748,10.9559351 C14.3029422,10.063666 14.4763629,9.11853193 14.475538,8.16576086 L14.475538,4.20776368 L7.99943166,1.55822322 Z M15.9988572,3.70710742 L15.9988572,8.16463579 C15.9988572,9.30095675 15.796586,10.4046507 15.3931864,11.4757176 C14.5931484,13.6056228 13.1188167,15.4259019 11.1877741,16.6679168 C10.2138076,17.2948843 9.13415022,17.745963 7.99943166,18 C6.86469804,17.7460089 5.78503263,17.2949268 4.81108918,16.6679168 C2.87924763,15.4262687 1.40471673,13.6053492 0.605676881,11.4745925 C0.203866967,10.4159424 -0.00128839449,9.29477991 6.0878013e-06,8.16463579 L6.0878013e-06,3.70823249 C6.0878013e-06,3.40446352 0.185135651,3.13219652 0.468543871,3.01631428 L7.70802401,0.057379495 C7.89531686,-0.0191264983 8.105832,-0.0191264983 8.29312485,0.057379495 L15.5303194,3.01631428 C15.8148704,3.13219652 16,3.40558859 16,3.70823249 L15.9988572,3.70710742 Z M7.08521159,9.92087046 L11.351191,5.62422714 L12.570532,6.85055372 L7.08521159,12.3746487 L3.42833133,8.69229374 L4.64767234,7.46596716 L7.08521159,9.91862032 L7.08521159,9.92087046 Z" id="Shape"></path>
            </g>
        </g>
    </g>
</svg>