<?xml version="1.0" standalone="no"?><!DOCTYPE svg PUBLIC "-//W3C//DTD SVG 1.1//EN" "http://www.w3.org/Graphics/SVG/1.1/DTD/svg11.dtd"><svg t="1541735066790" class="icon" style="" viewBox="0 0 1133 1024" version="1.1" xmlns="http://www.w3.org/2000/svg" p-id="3668" xmlns:xlink="http://www.w3.org/1999/xlink" width="221.2890625" height="200"><defs><style type="text/css"></style></defs><path d="M661.9506 398.904728V397.459421C648.942837 265.936486 533.318278 174.882145 411.912491 193.671136c-122.851094 19.511644-211.737474 143.808045-179.218066 273.163021 30.351447 119.96048 153.202541 200.897671 229.081157 205.956245-6.503881 7.949188-10.117149 20.234298-13.730416 34.687368-5.781228 20.234298 17.343684 5.781228 37.577981 1.445307 0 1.445307 0.722653 2.890614 0.722654 4.335921 2.16796 12.285109 1.445307 30.351447-5.781228 54.199012-7.226535 27.460833-9.394495 46.972477-7.226535 62.870854 2.16796 14.45307 8.671842 26.015526 17.343684 34.687367 8.671842 8.671842 20.956951 18.788991 26.738179 23.124912 5.781228 4.335921 12.285109 5.781228 15.898377-0.722653 3.613267-5.781228-0.722653-9.394495-3.613267-11.562456-1.445307-1.445307-20.234298-15.898377-26.73818-23.124912-6.503881-7.226535-10.839802-14.45307-12.285109-25.292872-2.16796-11.562456 0-28.90614 7.226535-54.921666 7.226535-26.015526 7.949188-46.249824 5.781228-62.1482 0-0.722653 0-2.16796-0.722654-2.890614 15.898377 0 28.90614 1.445307 20.234298-12.285109-6.503881-11.562456-13.730416-22.402258-22.402258-28.183487 20.956951-7.949188 44.081863-23.124912 65.761468-44.081863 5.058574-4.335921 9.394495-9.394495 14.45307-14.45307s9.394495-10.839802 13.730416-15.898376c36.132675-44.804517 64.316161-103.33945 66.484121-166.210304v-12.285109c1.445307-5.058574 0.722653-10.117149 0.722654-15.175724z m-109.120678-108.398024c-36.132675-34.687368-75.878617-55.644319-68.652081-62.870854 7.226535-7.226535 46.972477 10.117149 83.105151 44.804517 36.132675 34.687368 55.644319 74.43331 48.417784 81.659845s-26.738179-28.90614-62.870854-63.593508zM628.708539 421.306987c-6.503881 1.445307-14.45307-5.781228-17.343684-16.621031-2.890614-10.839802 0.722653-21.679605 7.226535-23.124912 7.226535-1.445307 14.45307 5.781228 17.343684 16.621031 2.890614 10.839802 0 21.679605-7.226535 23.124912z" fill="#f4ea2a" p-id="3669"></path><path d="M878.023994 351.209598v-0.722654c-9.394495-101.171489-98.280875-170.546224-190.780522-156.093154-30.351447 5.058574-57.812279 18.066337-80.214538 36.855328 47.695131 36.855328 81.659845 93.944954 88.163727 161.874382v1.445307c0.722653 5.058574 0.722653 10.117149 0.722653 15.175724v12.285109c-1.445307 41.913903-15.175723 82.382498-33.964714 117.792519 22.402258 12.285109 45.52717 19.511644 64.316161 20.956952-5.058574 6.503881-7.226535 15.175723-10.117149 26.015526-4.335921 15.898377 13.007763 4.335921 28.90614 1.445307 0 1.445307 0.722653 2.16796 0.722653 3.613267 1.445307 9.394495 0.722653 23.124912-4.335921 41.913903-5.781228 20.956951-7.226535 35.410021-5.781228 47.69513 1.445307 11.562456 6.503881 20.234298 13.007763 26.738179 6.503881 7.226535 15.898377 14.45307 20.234298 17.343684 4.335921 3.613267 9.394495 4.335921 12.285109-0.722653 2.890614-4.335921 0-7.226535-2.890614-9.394496-1.445307-1.445307-15.175723-12.285109-20.234298-17.343683-5.058574-5.781228-7.949188-10.839802-9.394495-19.511645-1.445307-9.394495 0-22.402258 5.058575-41.913902 5.781228-20.234298 6.503881-35.410021 4.33592-47.695131 0-0.722653 0-1.445307-0.722653-2.16796 12.285109 0 21.679605 1.445307 15.898377-9.394496-5.058574-9.394495-10.117149-17.343684-17.343684-21.679605 15.898377-5.781228 33.242061-17.343684 50.585745-33.24206l10.839802-10.839803c3.613267-3.613267 7.226535-7.949188 10.839802-12.285109 27.460833-33.964714 49.140438-79.491884 50.585745-127.187015v-9.394495c-0.722653-3.613267-0.722653-7.949188-0.722654-11.562456z m-83.827805-83.105152c-27.460833-26.738179-57.812279-42.636556-52.031051-47.695131 5.781228-5.781228 36.132675 7.226535 63.593507 33.964715 27.460833 26.738179 41.913903 57.089626 36.855328 62.1482-5.781228 5.781228-20.234298-21.679605-48.417784-48.417784zM852.731122 368.553282c-5.058574 1.445307-11.562456-4.335921-13.730416-13.007763-2.16796-8.671842 0-16.62103 5.781228-18.066338 5.058574-1.445307 11.562456 4.335921 13.730416 13.007763 1.445307 8.671842-0.722653 16.62103-5.781228 18.066338z" fill="#f4ea2a" p-id="3670"></path></svg>