<?xml version="1.0" encoding="UTF-8"?>
<svg width="62px" height="78px" viewBox="0 0 62 78" version="1.1" xmlns="http://www.w3.org/2000/svg" xmlns:xlink="http://www.w3.org/1999/xlink">
    <!-- Generator: Sketch 49.3 (51167) - http://www.bohemiancoding.com/sketch -->
    <title>Group 2</title>
    <desc>Created with Sketch.</desc>
    <defs>
        <linearGradient x1="50%" y1="100%" x2="50%" y2="3.061617e-15%" id="linearGradient-1">
            <stop stop-color="#FFCC00" offset="0%"></stop>
            <stop stop-color="#FFE26F" offset="100%"></stop>
        </linearGradient>
    </defs>
    <g id="Page-1" stroke="none" stroke-width="1" fill="none" fill-rule="evenodd">
        <g id="icons" transform="translate(-62.000000, -473.000000)">
            <g id="Group-2" transform="translate(62.000000, 473.000000)">
                <text id="HiMeeting" font-family="HelveticaNeue-Medium, Helvetica Neue" font-size="12" font-weight="400" letter-spacing="0.699999988" fill="#463B2D">
                    <tspan x="0" y="75">HiMeetin</tspan>
                    <tspan x="54.9439999" y="75">g</tspan>
                </text>
                <g id="Group" transform="translate(1.000000, 0.000000)">
                    <rect id="Rectangle-20" fill="url(#linearGradient-1)" x="0" y="0" width="60" height="60" rx="13.5"></rect>
                    <rect id="Rectangle-6" fill="#FFFFFF" x="32" y="43" width="4" height="10" rx="2"></rect>
                    <path d="M13,43.7443605 C13.1997123,43.6774572 13.4134797,43.6412109 13.6357129,43.6412109 L17.7939746,43.6412109 C18.8985441,43.6412109 19.7939746,44.5366414 19.7939746,45.6412109 C19.7939746,46.7457804 18.8985441,47.6412109 17.7939746,47.6412109 L13.6357129,47.6412109 C13.4134797,47.6412109 13.1997123,47.6049646 13,47.5380614 L13,50.7353516 C13,51.8399211 12.1045695,52.7353516 11,52.7353516 C9.8954305,52.7353516 9,51.8399211 9,50.7353516 L9,37 C9,35.8954305 9.8954305,35 11,35 C12.1045695,35 13,35.8954305 13,37 L13,43.7443605 Z M23.3515625,35 C24.456132,35 25.3515625,35.8954305 25.3515625,37 L25.3515625,50.7353516 C25.3515625,51.8399211 24.456132,52.7353516 23.3515625,52.7353516 C22.246993,52.7353516 21.3515625,51.8399211 21.3515625,50.7353516 L21.3515625,37 C21.3515625,35.8954305 22.246993,35 23.3515625,35 Z" id="Combined-Shape" fill="#FFFFFF"></path>
                    <path d="M50.9267417,16.4666385 C50.9267417,21.6949186 46.6883833,25.933277 41.4601032,25.933277 L38.9284528,25.933277 C38.1647638,25.933277 37.4442557,26.2874542 36.9778123,26.8921455 L33.1582343,31.8437976 L29.241255,26.788851 C28.8230491,26.2491472 28.1786848,25.933277 27.4959137,25.933277 L27.4666385,25.933277 C22.2383584,25.933277 18,21.6949186 18,16.4666385 C18,11.2383584 22.2383584,7 27.4666385,7 L41.4601032,7 C46.6883833,7 50.9267417,11.2383584 50.9267417,16.4666385 Z M26.9349473,18.6901934 C28.1822974,18.6901934 29.1934744,17.7074065 29.1934744,16.4950773 C29.1934744,15.2827482 28.1822974,14.2999612 26.9349473,14.2999612 C25.6875973,14.2999612 24.6764203,15.2827482 24.6764203,16.4950773 C24.6764203,17.7074065 25.6875973,18.6901934 26.9349473,18.6901934 Z M34.4633709,18.6901934 C35.7107209,18.6901934 36.7218979,17.7074065 36.7218979,16.4950773 C36.7218979,15.2827482 35.7107209,14.2999612 34.4633709,14.2999612 C33.2160208,14.2999612 32.2048438,15.2827482 32.2048438,16.4950773 C32.2048438,17.7074065 33.2160208,18.6901934 34.4633709,18.6901934 Z M42.3682156,18.6901934 C43.6155656,18.6901934 44.6267426,17.7074065 44.6267426,16.4950773 C44.6267426,15.2827482 43.6155656,14.2999612 42.3682156,14.2999612 C41.1208655,14.2999612 40.1096885,15.2827482 40.1096885,16.4950773 C40.1096885,17.7074065 41.1208655,18.6901934 42.3682156,18.6901934 Z" id="Combined-Shape" fill="#FFFFFF"></path>
                </g>
            </g>
        </g>
    </g>
</svg>