<?xml version="1.0" encoding="UTF-8"?>
<svg width="120px" height="56px" viewBox="0 0 120 56" version="1.1" xmlns="http://www.w3.org/2000/svg" xmlns:xlink="http://www.w3.org/1999/xlink">
    <!-- Generator: Sketch 49.3 (51167) - http://www.bohemiancoding.com/sketch -->
    <title>logo</title>
    <desc>Created with Sketch.</desc>
    <defs></defs>
    <g id="Page-1" stroke="none" stroke-width="1" fill="none" fill-rule="evenodd">
        <g id="logo" fill="#FFCC00">
            <rect id="Rectangle-6" fill-rule="nonzero" x="22" y="40" width="4" height="10" rx="2"></rect>
            <path d="M4,41.009009 C4.19971233,40.9421057 4.41347973,40.9058594 4.63571289,40.9058594 L8.79397461,40.9058594 C9.89854411,40.9058594 10.7939746,41.8012899 10.7939746,42.9058594 C10.7939746,44.0104289 9.89854411,44.9058594 8.79397461,44.9058594 L4.63571289,44.9058594 C4.41347973,44.9058594 4.19971233,44.8696131 4,44.8027098 L4,48 C4,49.1045695 3.1045695,50 2,50 C0.8954305,50 1.3527075e-16,49.1045695 0,48 L4.4408921e-16,34.2646484 C3.0881846e-16,33.1600789 0.8954305,32.2646484 2,32.2646484 C3.1045695,32.2646484 4,33.1600789 4,34.2646484 L4,41.009009 Z M14.3515625,32.2646484 C15.456132,32.2646484 16.3515625,33.1600789 16.3515625,34.2646484 L16.3515625,48 C16.3515625,49.1045695 15.456132,50 14.3515625,50 C13.246993,50 12.3515625,49.1045695 12.3515625,48 L12.3515625,34.2646484 C12.3515625,33.1600789 13.246993,32.2646484 14.3515625,32.2646484 Z" id="Combined-Shape" fill-rule="nonzero"></path>
            <g id="Group-2" transform="translate(8.000000, 0.000000)" fill-rule="nonzero">
                <g id="Group">
                    <path d="M43.1020979,12.2120641 C43.1020979,18.9134668 37.6695376,24.3460271 30.9681349,24.3460271 L27.7231655,24.3460271 C26.7442991,24.3460271 25.8207804,24.7999975 25.2229117,25.5750669 L20.3271275,31.9218988 L15.3064983,25.4426681 C14.7704585,24.750897 13.9445379,24.3460271 13.0693888,24.3460271 L13.0318651,24.3460271 C6.33046236,24.3460271 0.897902098,18.9134668 0.897902098,12.2120641 C0.897902098,5.51066144 6.33046236,0.0781011791 13.0318651,0.0781011791 L30.9681349,0.0781011791 C37.6695376,0.0781011791 43.1020979,5.51066144 43.1020979,12.2120641 Z M12.3503644,15.062129 C13.9491683,15.062129 15.245255,13.8024315 15.245255,12.2485159 C15.245255,10.6946003 13.9491683,9.43490287 12.3503644,9.43490287 C10.7515604,9.43490287 9.45547366,10.6946003 9.45547366,12.2485159 C9.45547366,13.8024315 10.7515604,15.062129 12.3503644,15.062129 Z M22,15.062129 C23.598804,15.062129 24.8948907,13.8024315 24.8948907,12.2485159 C24.8948907,10.6946003 23.598804,9.43490287 22,9.43490287 C20.401196,9.43490287 19.1051093,10.6946003 19.1051093,12.2485159 C19.1051093,13.8024315 20.401196,15.062129 22,15.062129 Z M32.1321174,15.062129 C33.7309214,15.062129 35.0270081,13.8024315 35.0270081,12.2485159 C35.0270081,10.6946003 33.7309214,9.43490287 32.1321174,9.43490287 C30.5333134,9.43490287 29.2372267,10.6946003 29.2372267,12.2485159 C29.2372267,13.8024315 30.5333134,15.062129 32.1321174,15.062129 Z" id="Combined-Shape"></path>
                </g>
            </g>
            <g id="Meeting" transform="translate(31.000000, 32.000000)" font-family="VanillaExtractRegular, Vanilla Extract" font-size="20" font-weight="600">
                <text>
                    <tspan x="0.336719" y="17.5">Meeting</tspan>
                </text>
            </g>
        </g>
    </g>
</svg>