<?xml version="1.0" encoding="UTF-8"?>
<svg width="141px" height="141px" viewBox="0 0 141 141" version="1.1" xmlns="http://www.w3.org/2000/svg" xmlns:xlink="http://www.w3.org/1999/xlink">
    <!-- Generator: Sketch 49.3 (51167) - http://www.bohemiancoding.com/sketch -->
    <title>Group</title>
    <desc>Created with Sketch.</desc>
    <defs></defs>
    <g id="Page-1" stroke="none" stroke-width="1" fill="none" fill-rule="evenodd">
        <g id="Group">
            <path d="M140.974,70.891 C140.974,109.575 109.613,140.936 70.928,140.936 C32.243,140.936 0.882,109.575 0.882,70.891 C0.882,32.206 32.243,0.844 70.928,0.844 C109.613,0.844 140.974,32.206 140.974,70.891" id="Fill-206" fill="#DD6F8E"></path>
            <path d="M112.932,90.378 C112.932,110.198 98.939,125.228 79.119,125.228 L62.736,125.228 C42.918,125.228 28.925,110.198 28.925,90.378 L29.962,59.76 C29.962,39.941 47.255,18.689 70.929,18.689 C96.558,18.689 111.894,39.941 111.894,59.76 L112.932,90.378" id="Fill-207" fill="#4F2F19"></path>
            <polygon id="Fill-208" fill="#FFCC99" points="65.556 123.117 77.337 123.117 77.337 104.927 65.556 104.927"></polygon>
            <path d="M94.065,127.389 C91.637,120.218 90.36,118.482 83.24,115.123 L83.201,114.85 C83.184,114.769 83.123,114.705 83.043,114.683 L80.073,113.585 C80.067,113.583 80.047,113.583 80.037,113.583 L78.64,113.044 L78.633,113.08 C77.93,112.533 72.66,120.563 71.406,120.944 C70.153,120.563 64.774,112.612 64.001,113.123 L63.991,113.082 L62.628,113.583 C62.628,113.584 62.622,113.584 62.621,113.585 L59.651,114.683 C59.571,114.705 59.511,114.769 59.493,114.85 L59.438,115.225 C52.495,118.538 51.203,120.382 48.829,127.389 C48.362,128.768 47.54,132.255 46.595,136.588 C49.698,137.739 52.907,138.668 56.2,139.372 C56.589,139.456 56.978,139.536 57.369,139.614 C61.143,140.354 65.026,140.78 68.991,140.887 C69.636,140.905 70.278,140.936 70.928,140.936 C71.21,140.936 71.489,140.918 71.771,140.915 C72.423,140.907 73.072,140.891 73.72,140.866 C77.805,140.706 81.8,140.198 85.677,139.368 C86,139.297 86.32,139.219 86.644,139.145 C89.93,138.391 93.127,137.409 96.218,136.211 C95.307,132.053 94.52,128.728 94.065,127.389" id="Fill-209" fill="#3C313F"></path>
            <path d="M78.633,113.08 C77.93,112.533 77.337,112.027 77.337,112.027 C77.337,112.027 72.602,114.515 71.348,114.896 C70.095,114.515 65.556,112.027 65.556,112.027 C65.556,112.027 64.774,112.612 64.001,113.123 L64.392,114.712 L70.928,140.936 C71.21,140.936 71.489,140.918 71.771,140.915 L78.445,114.142 L78.633,113.08" id="Fill-210" fill="#FFFFFF"></path>
            <path d="M98.223,36.298 C92.379,28.012 86.379,27.755 76.705,27.355 L66.19,27.355 C56.514,27.755 50.515,28.012 44.673,36.298 C38.824,44.591 41.04,46.742 41.501,56.746 C41.85,64.303 37.332,59 40.458,80.023 C43.585,101.044 61.841,107.787 71.446,107.787 C81.053,107.787 97.939,102.149 102.438,80.023 C106.936,57.896 101.044,64.303 101.395,56.746 C101.854,46.742 104.068,44.591 98.223,36.298" id="Fill-211" fill="#FFCC99"></path>
            <path d="M69.361,87.759 C69.327,87.759 69.29,87.755 69.253,87.753 C68.595,87.695 68.108,87.113 68.169,86.455 C68.331,84.639 68.585,77.509 68.585,75.327 C68.585,74.666 69.12,74.128 69.782,74.128 C70.442,74.128 70.979,74.666 70.979,75.327 C70.979,77.401 70.735,84.637 70.554,86.668 C70.497,87.291 69.975,87.759 69.361,87.759" id="Fill-212" fill="#BA8663"></path>
            <path d="M70.97,97.24 C67.525,97.24 63.528,96.394 61.339,93.974 C60.895,93.483 60.933,92.726 61.423,92.283 C61.915,91.839 62.669,91.877 63.113,92.367 C64.695,94.115 68.259,95.076 72.204,94.804 C75.243,94.597 77.823,93.668 78.627,92.496 C78.999,91.949 79.742,91.808 80.29,92.183 C80.836,92.555 80.977,93.3 80.604,93.845 C79.352,95.675 76.273,96.925 72.366,97.193 C71.916,97.223 71.448,97.24 70.97,97.24" id="Fill-213" fill="#BA8663"></path>
            <path d="M58.479,74.511 C58.479,77.297 56.575,79.556 54.228,79.556 C51.88,79.556 49.974,77.297 49.974,74.511 C49.974,71.725 51.88,69.464 54.228,69.464 C56.575,69.464 58.479,71.725 58.479,74.511" id="Fill-214" fill="#3A1E0A"></path>
            <path d="M59.591,65.547 C59.233,65.547 58.877,65.4 58.62,65.111 C57.417,63.753 55.794,63.445 54.643,63.425 C52.825,63.394 50.938,64.084 49.935,65.144 C49.441,65.662 48.62,65.684 48.103,65.191 C47.583,64.7 47.562,63.878 48.054,63.359 C49.575,61.756 52.118,60.791 54.688,60.833 C57.05,60.874 59.135,61.782 60.562,63.392 C61.036,63.928 60.987,64.748 60.45,65.222 C60.204,65.441 59.897,65.547 59.591,65.547" id="Fill-215" fill="#3A1E0A"></path>
            <path d="M84.357,65.404 C84.078,65.404 83.796,65.313 83.559,65.126 C82.996,64.685 82.896,63.871 83.34,63.307 C84.43,61.917 86.492,60.988 88.717,60.88 C91.072,60.769 93.229,61.595 94.77,63.212 C95.264,63.732 95.244,64.552 94.727,65.045 C94.209,65.539 93.389,65.521 92.894,65.001 C91.525,63.566 89.766,63.423 88.842,63.47 C87.174,63.55 85.879,64.271 85.379,64.908 C85.123,65.234 84.742,65.404 84.357,65.404" id="Fill-216" fill="#3A1E0A"></path>
            <path d="M92.863,74.511 C92.863,77.298 90.957,79.556 88.611,79.556 C86.264,79.556 84.359,77.298 84.359,74.511 C84.359,71.724 86.264,69.463 88.611,69.463 C90.957,69.463 92.863,71.724 92.863,74.511" id="Fill-217" fill="#3A1E0A"></path>
            <path d="M79.865,23.962 C87.867,25.785 93.674,28.859 98.514,35.464 C100.955,38.795 100.957,39.291 98.709,43.311 C96.797,46.73 85.193,50.533 85.155,42.269 C85.191,50.147 63.437,59.521 61.595,49.171 C59.18,56.41 47.2,60.904 45.546,54.41 C45.287,58.656 43.331,62.695 40.487,65.121 C36.712,68.342 34.714,66.119 34.255,61.449 C33.348,52.175 37.608,43.334 43.118,36.269 C52.222,24.598 64.833,20.536 79.865,23.962" id="Fill-218" fill="#4F2F19"></path>
            <path d="M105.016,65.642 C107.721,59.173 107.563,40.821 99.045,38.087 C96.627,41.71 101.491,63.808 105.016,65.642" id="Fill-219" fill="#4F2F19"></path>
            <path d="M65.941,120.944 C65.753,120.944 65.565,120.864 65.438,120.707 C65.21,120.429 65.251,120.02 65.53,119.792 L70.937,115.374 C71.214,115.147 71.624,115.189 71.851,115.466 C72.077,115.745 72.036,116.154 71.759,116.38 L66.351,120.798 C66.231,120.897 66.085,120.944 65.941,120.944" id="Fill-220" fill="#B0ADB2"></path>
            <path d="M76.753,120.944 C76.609,120.944 76.464,120.897 76.344,120.798 L70.937,116.38 C70.658,116.154 70.618,115.745 70.844,115.466 C71.071,115.189 71.479,115.147 71.759,115.374 L77.165,119.792 C77.443,120.019 77.483,120.429 77.257,120.707 C77.13,120.864 76.942,120.944 76.753,120.944" id="Fill-221" fill="#B0ADB2"></path>
            <path d="M57.442,85.525 C57.442,87.816 54.754,89.672 51.437,89.672 C48.12,89.672 45.433,87.816 45.433,85.525 C45.433,83.233 48.12,81.375 51.437,81.375 C54.754,81.375 57.442,83.233 57.442,85.525" id="Fill-222" fill="#FCB095"></path>
            <path d="M97.405,85.525 C97.405,87.816 94.717,89.672 91.4,89.672 C88.084,89.672 85.396,87.816 85.396,85.525 C85.396,83.233 88.084,81.375 91.4,81.375 C94.717,81.375 97.405,83.233 97.405,85.525" id="Fill-223" fill="#FCB095"></path>
            <path d="M64.001,113.123 L63.991,113.082 L62.628,113.583 C62.628,113.584 62.622,113.584 62.621,113.585 L59.651,114.683 C59.571,114.705 59.511,114.769 59.493,114.85 L59.438,115.225 L58.271,123.255 C58.251,123.346 58.288,123.439 58.367,123.49 L63.077,126.542 L61.244,131.601 C61.214,131.683 61.235,131.777 61.3,131.838 L68.991,140.887 C69.636,140.905 70.278,140.936 70.928,140.936 L64.392,114.712 L64.001,113.123" id="Fill-224" fill="#54485A"></path>
            <path d="M81.451,131.601 L79.617,126.542 L84.326,123.49 C84.404,123.439 84.443,123.346 84.424,123.255 L83.24,115.123 L83.201,114.85 C83.184,114.769 83.123,114.705 83.043,114.683 L80.073,113.585 C80.067,113.583 80.047,113.583 80.037,113.583 L78.64,113.044 L78.633,113.08 L78.445,114.142 L71.771,140.915 C72.423,140.907 73.072,140.891 73.72,140.866 L81.395,131.838 C81.459,131.777 81.48,131.683 81.451,131.601" id="Fill-225" fill="#54485A"></path>
            <path d="M104.084,70.592 L39.297,70.592 C38.582,70.592 38,70.011 38,69.295 C38,68.58 38.582,68 39.297,68 L104.084,68 C104.801,68 105.381,68.58 105.381,69.295 C105.381,70.011 104.801,70.592 104.084,70.592" id="Fill-177-Copy" fill="#3A1E0A"></path>
            <path d="M58.0405552,83.021 C55.1615552,83.021 51.7705552,82.92 49.4135552,82.849 C48.2955552,82.816 47.4595552,82.791 47.1085552,82.791 C46.0405552,82.791 44.4955552,82.664 43.4115552,81.566 C41.9345552,80.07 41.9635552,77.576 42.0185552,73.445 C42.0285552,72.588 42.0405552,71.648 42.0405552,70.629 C42.0405552,69.912 42.6225552,69.332 43.3365552,69.332 C44.0535552,69.332 44.6335552,69.912 44.6335552,70.629 C44.6335552,71.662 44.6225552,72.609 44.6105552,73.478 C44.5695552,76.695 44.5405552,79.019 45.2565552,79.744 C45.3665552,79.857 45.7045552,80.197 47.1085552,80.197 C47.4695552,80.197 48.3365552,80.223 49.4915552,80.258 C52.8275552,80.357 59.0345552,80.543 61.7905552,80.328 C63.6245552,80.185 63.8255552,79.926 63.7915552,72.619 C63.7885552,71.898 63.7865552,71.127 63.7865552,70.295 C63.7865552,69.58 64.3645552,69 65.0825552,69 C65.7975552,69 66.3775552,69.58 66.3775552,70.295 C66.3775552,71.123 66.3815552,71.892 66.3835552,72.607 C66.4155552,79.445 66.4305552,82.566 61.9915552,82.914 C60.9795552,82.992 59.5845552,83.021 58.0405552,83.021" id="Fill-178-Copy" fill="#3A1E0A"></path>
            <path d="M85.4075941,83.387 C83.4485941,83.387 81.8315941,83.336 80.9625941,83.193 C75.8805941,82.353 75.9305941,79.213 76.0225941,73.51 C76.0385941,72.549 76.0555941,71.48 76.0555941,70.295 C76.0555941,69.58 76.6355941,69 77.3525941,69 C78.0675941,69 78.6495941,69.58 78.6495941,70.295 C78.6495941,71.496 78.6305941,72.578 78.6145941,73.553 C78.5125941,79.728 78.6965941,80.191 81.3855941,80.635 C83.1305941,80.922 89.5285941,80.748 92.6025941,80.664 C93.6065941,80.639 94.3645941,80.617 94.6965941,80.617 C96.8835941,80.617 97.1125941,80.252 97.3585941,79.555 C97.8395941,78.182 97.8395941,75.346 97.8395941,70.648 L99.1335941,70.629 L100.430594,70.648 C100.430594,75.791 100.430594,78.623 99.8035941,80.414 C98.8975941,82.994 96.6925941,83.209 94.6965941,83.209 C94.3745941,83.209 93.6435941,83.228 92.6735941,83.258 C90.1965941,83.324 87.5895941,83.387 85.4075941,83.387" id="Fill-179-Copy" fill="#3A1E0A"></path>
        </g>
    </g>
</svg>