<?xml version="1.0" encoding="UTF-8"?>
<svg width="60px" height="60px" viewBox="0 0 60 60" version="1.1" xmlns="http://www.w3.org/2000/svg" xmlns:xlink="http://www.w3.org/1999/xlink">
    <!-- Generator: Sketch 49.3 (51167) - http://www.bohemiancoding.com/sketch -->
    <title>Group 11</title>
    <desc>Created with Sketch.</desc>
    <defs></defs>
    <g id="Page-1" stroke="none" stroke-width="1" fill="none" fill-rule="evenodd">
        <g id="chat_list" transform="translate(-10.000000, -107.000000)">
            <g id="Group-16" transform="translate(10.000000, 107.000000)">
                <g id="Group-11">
                    <path d="M59.6131915,29.807234 C59.6131915,46.2685106 46.2685106,59.6131915 29.8068085,59.6131915 C13.3446809,59.6131915 0,46.2685106 0,29.807234 C0,13.3455319 13.3446809,0 29.8068085,0 C46.2685106,0 59.6131915,13.3455319 59.6131915,29.807234" id="Fill-310" fill="#DD6F8E"></path>
                    <path d="M19.6855319,31.3068085 C19.9374468,33.3391489 18.767234,35.1557447 17.0710638,35.366383 C15.3748936,35.5765957 13.7957447,34.0995745 13.5446809,32.0676596 C13.292766,30.0361702 14.4638298,28.2195745 16.16,28.0089362 C17.8565957,27.7987234 19.4348936,29.2757447 19.6855319,31.3068085" id="Fill-311" fill="#FFCC99"></path>
                    <path d="M40.5229787,53.8817021 C39.3876596,51.0404255 38.1914894,50.4195745 32.8157447,48.0076596 C31.8689362,47.6651064 30.446383,48.0306383 29.806383,48.2310638 C29.166383,48.0306383 27.7434043,47.6651064 26.7965957,48.0076596 C22.8008511,49.8008511 21.1148936,50.6038298 20.046383,52.0651064 C26.3344681,54.6855319 33.8170213,55.3446809 40.5229787,53.8817021" id="Fill-313" fill="#FFCC99"></path>
                    <path d="M41.2276596,14.9323404 C38.7348936,11.3974468 36.1757447,11.2889362 32.0493617,11.1174468 L27.5638298,11.1174468 C23.4365957,11.2889362 20.8774468,11.3974468 18.3859574,14.9323404 C15.8914894,18.4697872 16.8365957,19.386383 17.033617,23.6531915 C17.1825532,26.8770213 15.2548936,24.6157447 16.5880851,33.5817021 C17.9221277,42.5485106 25.7089362,45.4242553 29.806383,45.4242553 C33.9038298,45.4242553 41.1059574,43.02 43.0251064,33.5817021 C44.9434043,24.1442553 42.4302128,26.8770213 42.5795745,23.6531915 C42.7757447,19.386383 43.7208511,18.4697872 41.2276596,14.9323404" id="Fill-314" fill="#FFCC99"></path>
                    <polygon id="Fill-315" fill="#FFCC99" points="26.7974468 52.8859574 32.8148936 52.8859574 32.8148936 43.5965957 26.7974468 43.5965957"></polygon>
                    <path d="M28.9170213,36.8812766 C28.9021277,36.8812766 28.886383,36.8804255 28.8702128,36.8795745 C28.5893617,36.8540426 28.3825532,36.606383 28.4076596,36.3251064 C28.4774468,35.5497872 28.5855319,32.5089362 28.5855319,31.5787234 C28.5855319,31.2970213 28.8140426,31.0685106 29.0957447,31.0685106 C29.3782979,31.0685106 29.6068085,31.2970213 29.6068085,31.5787234 C29.6068085,32.4621277 29.5029787,35.5480851 29.4246809,36.4165957 C29.4017021,36.6817021 29.1778723,36.8812766 28.9170213,36.8812766" id="Fill-316" fill="#BA8663"></path>
                    <path d="M29.6025532,40.9255319 C28.1331915,40.9255319 26.4285106,40.5646809 25.4953191,39.532766 C25.3059574,39.3229787 25.3217021,39.0008511 25.5310638,38.8110638 C25.7404255,38.6225532 26.0638298,38.6382979 26.2523404,38.8468085 C26.927234,39.5931915 28.4523404,40.0012766 30.1293617,39.8868085 C31.4251064,39.7987234 32.526383,39.4021277 32.8680851,38.9017021 C33.0268085,38.6689362 33.3451064,38.6093617 33.5778723,38.7680851 C33.8114894,38.9276596 33.8702128,39.2451064 33.7114894,39.4778723 C33.1782979,40.2582979 31.8651064,40.7919149 30.1987234,40.9055319 C30.006383,40.9178723 29.807234,40.9255319 29.6025532,40.9255319" id="Fill-317" fill="#BA8663"></path>
                    <path d="M24.2753191,31.2314894 C24.2753191,32.42 23.4629787,33.3829787 22.4617021,33.3829787 C21.46,33.3829787 20.647234,32.42 20.647234,31.2314894 C20.647234,30.0429787 21.46,29.0787234 22.4617021,29.0787234 C23.4629787,29.0787234 24.2753191,30.0429787 24.2753191,31.2314894" id="Fill-318" fill="#3A1E0A"></path>
                    <path d="M24.7489362,27.4080851 C24.5970213,27.4080851 24.4446809,27.3451064 24.3348936,27.2221277 C23.8221277,26.6429787 23.1297872,26.5114894 22.6387234,26.5029787 C21.8846809,26.4923404 21.0587234,26.7842553 20.6306383,27.2361702 C20.4204255,27.4574468 20.0697872,27.466383 19.8485106,27.2561702 C19.6276596,27.0459574 19.6182979,26.6961702 19.8285106,26.4748936 C20.4770213,25.7910638 21.5617021,25.3851064 22.6578723,25.3970213 C23.6651064,25.4144681 24.5553191,25.8025532 25.1629787,26.4889362 C25.3655319,26.7174468 25.3438298,27.0668085 25.1153191,27.2693617 C25.0106383,27.3625532 24.8795745,27.4080851 24.7489362,27.4080851" id="Fill-319" fill="#3A1E0A"></path>
                    <path d="M35.3131915,27.3468085 C35.1944681,27.3468085 35.0740426,27.3085106 34.9723404,27.2289362 C34.7323404,27.04 34.6906383,26.692766 34.8787234,26.4523404 C35.3438298,25.86 36.2225532,25.4625532 37.1723404,25.4178723 C38.1765957,25.3693617 39.0965957,25.7225532 39.7540426,26.412766 C39.9651064,26.633617 39.9565957,26.9834043 39.7357447,27.193617 C39.5144681,27.4051064 39.1646809,27.3965957 38.953617,27.1757447 C38.3702128,26.5621277 37.6195745,26.5038298 37.2255319,26.5221277 C36.5148936,26.5561702 35.9617021,26.8638298 35.7489362,27.1348936 C35.64,27.2744681 35.4778723,27.3468085 35.3131915,27.3468085" id="Fill-320" fill="#3A1E0A"></path>
                    <path d="M38.9408511,31.2314894 C38.9408511,32.42 38.1280851,33.3829787 37.1276596,33.3829787 C36.1259574,33.3829787 35.3140426,32.42 35.3140426,31.2314894 C35.3140426,30.0421277 36.1259574,29.0778723 37.1276596,29.0778723 C38.1280851,29.0778723 38.9408511,30.0421277 38.9408511,31.2314894" id="Fill-321" fill="#3A1E0A"></path>
                    <path d="M23.8323404,35.9289362 C23.8323404,36.906383 22.6859574,37.6982979 21.2714894,37.6982979 C19.8570213,37.6982979 18.7102128,36.906383 18.7102128,35.9289362 C18.7102128,34.9514894 19.8570213,34.1595745 21.2714894,34.1595745 C22.6859574,34.1595745 23.8323404,34.9514894 23.8323404,35.9289362" id="Fill-322" fill="#FCB095"></path>
                    <path d="M40.8782979,35.9289362 C40.8782979,36.906383 39.7314894,37.6982979 38.3170213,37.6982979 C36.9021277,37.6982979 35.7561702,36.906383 35.7561702,35.9289362 C35.7561702,34.9514894 36.9021277,34.1595745 38.3170213,34.1595745 C39.7314894,34.1595745 40.8782979,34.9514894 40.8782979,35.9289362" id="Fill-323" fill="#FCB095"></path>
                    <path d="M38.6259574,11.5995745 C34.553617,8.89829787 28.6868085,8.62978723 24,10.1591489 C21.4404255,10.9944681 15.2425532,13.2068085 14.5685106,21.5323404 C13.6765957,27.5804255 15.8076596,31.352766 15.8076596,31.352766 C15.8076596,31.352766 16.1161702,25.9238298 26.7974468,22.9451064 C33.7974468,20.992766 36.1485106,18.786383 36.1485106,18.786383 C36.1485106,18.786383 36.906383,21.7965957 39.892766,24.8991489 C43.8710638,29.0331915 43.5097872,32.1391489 43.5097872,32.1391489 C43.5097872,32.1391489 44.9051064,30.0229787 45.1097872,26.4651064 C45.1106383,26.4634043 45.1110638,26.4617021 45.1110638,26.46 C45.8914894,22.4880851 45.2493617,15.9910638 38.6259574,11.5995745" id="Fill-324" fill="#4F2F19"></path>
                    <path d="M38.7582979,8.37574468 C38.7582979,13.2451064 35.1161702,14.0506383 30.6242553,14.0506383 C26.1310638,14.0506383 22.4889362,12.8421277 22.4889362,8.37574468 C22.4889362,5.24170213 26.1310638,2.70085106 30.6242553,2.70085106 C35.1161702,2.70085106 38.7582979,5.24170213 38.7582979,8.37574468" id="Fill-325" fill="#4F2F19"></path>
                    <path d="M41.3595745,55.5655319 C39.9834043,51.4017021 39.3442553,50.7442553 34.5268085,48.5361702 C34.4621277,48.5068085 34.3880851,48.5085106 34.3259574,48.5434043 C34.2634043,48.5774468 34.2353191,48.6425532 34.2119149,48.7097872 C33.1123404,51.8140426 26.8,51.9561702 25.6646809,48.6306383 L25.6557447,48.5825532 C25.6438298,48.5144681 25.6008511,48.4553191 25.5391489,48.4238298 C25.4787234,48.3914894 25.4055319,48.3889362 25.3429787,48.4178723 C20.2974468,50.7187234 19.6348936,51.3868085 18.252766,55.5655319 C18.1480851,55.8829787 18.007234,56.4191489 17.8425532,57.107234 C21.5055319,58.7148936 25.5502128,59.6131915 29.8068085,59.6131915 C34.0634043,59.6131915 38.1076596,58.7148936 41.7706383,57.107234 C41.6055319,56.4191489 41.4646809,55.8829787 41.3595745,55.5655319" id="Fill-326" fill="#684B75"></path>
                </g>
            </g>
        </g>
    </g>
</svg>