<?xml version="1.0" encoding="UTF-8"?>
<svg width="60px" height="60px" viewBox="0 0 60 60" version="1.1" xmlns="http://www.w3.org/2000/svg" xmlns:xlink="http://www.w3.org/1999/xlink">
    <!-- Generator: Sketch 49.3 (51167) - http://www.bohemiancoding.com/sketch -->
    <title>Group 8</title>
    <desc>Created with Sketch.</desc>
    <defs></defs>
    <g id="Page-1" stroke="none" stroke-width="1" fill="none" fill-rule="evenodd">
        <g id="chat_list" transform="translate(-10.000000, -519.000000)">
            <g id="Group-19" transform="translate(10.000000, 519.000000)">
                <g id="Group-8">
                    <path d="M59.612766,29.807234 C59.612766,46.2685106 46.2685106,59.613617 29.806383,59.613617 C13.3446809,59.613617 0,46.2685106 0,29.807234 C0,13.3451064 13.3446809,0 29.806383,0 C46.2685106,0 59.612766,13.3451064 59.612766,29.807234" id="Fill-284" fill="#5DF7FF"></path>
                    <polygon id="Fill-285" fill="#E0AA79" points="26.1587234 59.1646809 33.4621277 59.1646809 33.4621277 50.2225532 26.1587234 50.2225532"></polygon>
                    <path d="M38.3906383,35.6574468 C37.9144681,38.3634043 39.5195745,40.6174468 41.9770213,41.1038298 C44.433617,41.5880851 46.8106383,40.1221277 47.2859574,37.4153191 C47.7625532,34.7085106 46.1570213,32.12 43.7004255,31.6348936 C41.2438298,31.1485106 38.8659574,32.9489362 38.3906383,35.6574468" id="Fill-289" fill="#E0AA79"></path>
                    <path d="M21.2485106,35.6574468 C21.7242553,38.3634043 20.1195745,40.6174468 17.6621277,41.1038298 C15.2051064,41.5880851 12.8289362,40.1221277 12.3531915,37.4153191 C11.8774468,34.7085106 13.4821277,32.12 15.9391489,31.6348936 C18.3957447,31.1485106 20.7723404,32.9489362 21.2485106,35.6574468" id="Fill-290" fill="#E0AA79"></path>
                    <path d="M42.08,17.4217021 C39.6812766,14.1621277 35.9404255,12.0229787 31.9685106,11.8642553 C31.9680851,11.8642553 31.8906383,11.8617021 31.7629787,11.8565957 L31.7676596,11.7004255 C31.7676596,11.7004255 30.8046809,11.7395745 29.8102128,11.7787234 C28.8161702,11.7395745 27.8531915,11.7004255 27.8531915,11.7004255 L27.8574468,11.8565957 C27.7297872,11.8617021 27.6523404,11.8642553 27.6519149,11.8642553 C23.6795745,12.0229787 19.9391489,14.1621277 17.5408511,17.4217021 C15.14,20.6834043 14.8208511,24.7914894 15.0097872,28.7259574 C15.1531915,31.6987234 15.6791489,36.4987234 15.8268085,39.4723404 C18.2361702,48.4842553 24.2297872,50.0242553 29.8102128,50.0242553 C35.3902128,50.0242553 41.5842553,48.4842553 43.7940426,39.4723404 C43.9408511,36.4987234 44.467234,31.6987234 44.6106383,28.7259574 C44.7995745,24.7914894 44.4808511,20.6834043 42.08,17.4217021" id="Fill-291" fill="#E0AA79"></path>
                    <path d="M23.9348936,34.1770213 C23.9348936,35.2765957 23.1842553,36.1668085 22.2582979,36.1668085 C21.332766,36.1668085 20.5817021,35.2765957 20.5817021,34.1770213 C20.5817021,33.0782979 21.332766,32.1885106 22.2582979,32.1885106 C23.1842553,32.1885106 23.9348936,33.0782979 23.9348936,34.1770213" id="Fill-294" fill="#3A1E0A"></path>
                    <path d="M39.1868085,34.1770213 C39.1868085,35.2765957 38.4365957,36.1668085 37.5106383,36.1668085 C36.5846809,36.1668085 35.833617,35.2765957 35.833617,34.1770213 C35.833617,33.0782979 36.5846809,32.1885106 37.5106383,32.1885106 C38.4365957,32.1885106 39.1868085,33.0782979 39.1868085,34.1770213" id="Fill-295" fill="#3A1E0A"></path>
                    <path d="M19.9140426,30.5259574 C19.7757447,30.5259574 19.6374468,30.4753191 19.5293617,30.3723404 C19.3055319,30.1604255 19.2961702,29.806383 19.5089362,29.5829787 C20.467234,28.5723404 23.272766,27.9489362 24.9204255,29.0859574 C25.1744681,29.2621277 25.2382979,29.6102128 25.0625532,29.8638298 C24.8868085,30.1170213 24.5391489,30.1812766 24.2851064,30.0059574 C23.0834043,29.1757447 20.9174468,29.7225532 20.3195745,30.3523404 C20.2097872,30.4680851 20.0617021,30.5259574 19.9140426,30.5259574" id="Fill-296" fill="#3A1E0A"></path>
                    <path d="M44.5765957,40.1629787 C44.5034043,39.4106383 44.4195745,38.5587234 44.4693617,37.5914894 C44.6106383,34.7548936 44.553617,34.6940426 44.4855319,34.6234043 C44.4502128,34.5859574 44.3987234,34.5638298 44.3476596,34.5638298 C44.1638298,34.5638298 44.1404255,34.7297872 44.0987234,35.0323404 C44.0880851,35.107234 42.9982979,42.4991489 37.5106383,42.4991489 C37.1251064,42.4991489 36.7340426,42.3719149 36.1931915,42.1974468 C35.0753191,41.8353191 33.3851064,41.2859574 29.9374468,41.2859574 C27.2910638,41.2859574 25.6646809,41.6646809 24.3587234,41.9697872 C23.4995745,42.1693617 22.8208511,42.327234 22.086383,42.327234 C19.8634043,42.327234 18.1919149,41.2502128 17.1170213,39.127234 C16.2446809,37.4021277 16.0906383,35.5761702 16.0757447,35.3723404 L16.0757447,35.3714894 C16.0757447,35.3680851 16.0757447,35.3642553 16.0753191,35.36 C16.0748936,35.3506383 16.0740426,35.3417021 16.073617,35.3331915 L16.0723404,35.3242553 C16.0510638,35.1638298 15.9485106,35.1387234 15.8868085,35.1387234 C15.8348936,35.1387234 15.7855319,35.1604255 15.7502128,35.1978723 C15.6974468,35.2553191 15.6991489,35.3102128 15.7042553,35.386383 C15.7042553,35.3880851 15.7034043,35.3889362 15.7034043,35.3897872 C15.7161702,36.0097872 15.7408511,36.4702128 15.76,36.8110638 C15.7429787,36.8076596 15.726383,36.8034043 15.7085106,36.8059574 C15.6097872,36.8110638 15.5323404,36.8931915 15.5323404,36.9923404 L15.5323404,37.1782979 C15.5323404,37.2191489 15.5378723,37.2480851 15.5625532,37.2795745 C15.5625532,37.2804255 15.5638298,37.2829787 15.5642553,37.2838298 C15.6476596,38.0187234 15.8123404,39.4923404 15.6617021,40.1148936 C15.3748936,41.3042553 15.1595745,42.9246809 15.7668085,43.892766 C15.9706383,44.2195745 16.252766,44.447234 16.607234,44.572766 C16.1344681,45.5651064 16.1493617,46.6089362 16.6561702,47.4659574 C17.0587234,48.1451064 17.713617,48.5778723 18.3361702,48.5629787 C18.4761702,50.5974468 19.9025532,51.3280851 21.2221277,51.3280851 C21.4676596,51.3280851 21.7080851,51.3034043 21.9268085,51.2557447 C22.4957447,52.6361702 23.7795745,53.1340426 24.8174468,53.1340426 C25.5851064,53.1340426 26.2519149,52.8791489 26.6055319,52.4748936 C27.0255319,53.2195745 27.8608511,53.7 28.7855319,53.7 C29.6753191,53.7 30.4480851,53.2638298 30.8974468,52.5191489 C31.2293617,52.8068085 31.9825532,53.3434043 32.9625532,53.3434043 C33.9093617,53.3434043 34.8068085,52.8468085 35.6323404,51.8676596 C35.9565957,52.0978723 36.3668085,52.2182979 36.8297872,52.2182979 C38.126383,52.2182979 39.6017021,51.28 39.7919149,49.9923404 C39.9093617,50.0093617 40.0242553,50.0174468 40.1374468,50.0174468 C40.1374468,50.0174468 40.1374468,50.0174468 40.1378723,50.0174468 C40.9178723,50.0174468 41.5906383,49.6144681 41.9829787,48.9110638 C42.3417021,48.267234 42.3961702,47.4834043 42.1408511,46.88 C42.5765957,46.7519149 43.0417021,46.3804255 43.3634043,45.8859574 C43.6476596,45.4489362 44.0468085,44.5561702 43.6476596,43.3634043 C44.8353191,42.7859574 44.7259574,41.6757447 44.5765957,40.1629787" id="Fill-297" fill="#3A1E0A"></path>
                    <path d="M39.9689362,30.573617 C39.8212766,30.573617 39.6740426,30.5144681 39.5638298,30.4 C38.707234,29.5012766 36.666383,29.5246809 35.4429787,30.4497872 C35.1965957,30.6348936 34.8459574,30.5876596 34.66,30.3408511 C34.473617,30.0948936 34.5225532,29.7438298 34.7689362,29.5578723 C36.4540426,28.286383 39.1246809,28.3187234 40.372766,29.6285106 C40.5855319,29.8519149 40.5774468,30.2059574 40.3544681,30.4187234 C40.2459574,30.5221277 40.1068085,30.573617 39.9689362,30.573617" id="Fill-298" fill="#3A1E0A"></path>
                    <path d="M28.9170213,40.9697872 C28.9042553,40.9697872 28.8902128,40.9697872 28.8761702,40.9680851 C28.5685106,40.9468085 28.3370213,40.6791489 28.3591489,40.3714894 C28.4314894,39.3651064 28.5446809,35.4114894 28.5446809,34.2012766 C28.5446809,33.892766 28.7940426,33.6429787 29.1029787,33.6429787 C29.4119149,33.6429787 29.6625532,33.892766 29.6625532,34.2012766 C29.6625532,35.4561702 29.5493617,39.4034043 29.4740426,40.4514894 C29.452766,40.7455319 29.207234,40.9697872 28.9170213,40.9697872" id="Fill-299" fill="#B27D56"></path>
                    <path d="M29.8493617,45.5153191 C28.2970213,45.5153191 26.7995745,44.972766 25.8540426,44.0382979 C25.6344681,43.8208511 25.6319149,43.467234 25.8493617,43.247234 C26.0659574,43.0285106 26.4195745,43.0268085 26.6395745,43.2421277 C28.0982979,44.6842553 31.3685106,44.9353191 33.2434043,43.0825532 C33.4625532,42.867234 33.8170213,42.8680851 34.0331915,43.0885106 C34.2506383,43.3076596 34.2485106,43.6621277 34.0289362,43.8787234 C32.8795745,45.0148936 31.3387234,45.5153191 29.8493617,45.5153191" id="Fill-300" fill="#A36E46"></path>
                    <path d="M15.8859574,32.1234043 C15.9953191,29.9442553 15.5412766,24.2493617 18.1119149,23.2238298 C19.0046809,22.8680851 19.5395745,22.9544681 20.4306383,23.227234 C21.6306383,23.5944681 23.386383,23.3187234 24.447234,22.686383 C26.2468085,24.0868085 28.6965957,23.4234043 29.6280851,22.4408511 C29.6187234,22.4485106 30.5178723,23.4706383 32.4740426,23.6344681 C33.6387234,23.732766 34.8382979,23.6659574 35.9987234,23.5914894 C37.9255319,23.467234 40.713617,22.9621277 41.6204255,23.0859574 C44.0914894,23.4225532 44.0438298,27.9706383 44.0655319,29.9982979 C44.0753191,30.9365957 44.0655319,33.6702128 43.3757447,37.8655319 C43.3391489,38.0859574 43.4540426,38.0893617 43.7612766,38.0544681 C44.1051064,38.0153191 44.2310638,37.8374468 44.2834043,37.5821277 C44.6902128,35.6340426 45.2242553,29.6310638 45.752766,27.7378723 C46.6204255,24.6285106 47.2817021,20.0131915 46.16,17.4361702 C45.8395745,16.6978723 44.0217021,14.4242553 42.2153191,14.5629787 C44.0246809,10.9880851 40.4255319,9.10425532 37.4991489,8.98425532 C32.7748936,8.79234043 28.8761702,9.86553191 24.4629787,11.3480851 C22.0165957,12.1702128 20.1174468,13.1748936 18.032766,14.7706383 C16.233617,16.1476596 15.2957447,17.333617 14.7523404,19.4855319 C13.5953191,24.0668085 14.8617021,32.7085106 15.5323404,37.307234 C15.6,37.7702128 15.6621277,38.246383 15.7795745,38.7008511 C16.0361702,39.6914894 17.04,39.0348936 16.8008511,38.4668085 C15.9212766,36.3753191 15.8382979,33.0659574 15.8859574,32.1234043" id="Fill-301" fill="#3A1E0A"></path>
                    <path d="M14.5953191,29.9676596 C14.5953191,29.9676596 23.9348936,20.6293617 25.8404255,17.4319149 C25.8404255,17.4319149 30.1791489,22.8574468 37.5106383,25.6085106 C44.8417021,28.3604255 45.3251064,30.0148936 45.3251064,30.0148936 C45.3251064,30.0148936 47.3693617,27.5540426 48.6297872,21.7161702 C50.4668085,13.2029787 41.5506383,-2.75021277 20.7208511,6.00553191 C20.7208511,6.00553191 5.72851064,12.2987234 14.5953191,29.9676596" id="Fill-302" fill="#2D7E9E"></path>
                    <path d="M25.7625532,17.4204255 C25.6885106,17.4204255 25.6148936,17.3902128 25.5591489,17.332766 C25.3634043,17.1302128 20.7548936,12.3004255 20.4387234,6.48680851 C20.4302128,6.3306383 20.5502128,6.19787234 20.7059574,6.1893617 C20.8604255,6.17531915 20.9953191,6.30085106 21.0038298,6.45617021 C21.3080851,12.0553191 25.92,16.8914894 25.966383,16.94 C26.0748936,17.052766 26.0719149,17.2314894 25.9595745,17.3404255 C25.9042553,17.392766 25.833617,17.4204255 25.7625532,17.4204255" id="Fill-303" fill="#1C618C"></path>
                    <path d="M44.6106383,29.0093617 C44.4902128,29.0093617 44.3791489,28.9319149 44.3408511,28.8114894 C44.2885106,28.6446809 38.8995745,12.0685106 21.9434043,6.13361702 C21.7957447,6.0812766 21.7182979,5.92 21.7697872,5.77276596 C21.8212766,5.62510638 21.9821277,5.54680851 22.1306383,5.59914894 C39.3608511,11.6306383 44.8268085,28.4723404 44.8804255,28.6421277 C44.9276596,28.7906383 44.8442553,28.9493617 44.6953191,28.9970213 C44.667234,29.0051064 44.6382979,29.0093617 44.6106383,29.0093617" id="Fill-304" fill="#1C618C"></path>
                    <path d="M47.3693617,25.1506383 C47.2170213,25.1506383 47.0919149,25.0289362 47.0868085,24.8770213 C47.0851064,24.8297872 46.8995745,20.1204255 44.2314894,15.3157447 C41.7774468,10.8974468 36.6510638,5.48553191 26.1634043,4.79702128 C26.007234,4.78723404 25.8893617,4.65361702 25.8995745,4.49702128 C25.9097872,4.34085106 26.0451064,4.22468085 26.2004255,4.23361702 C36.9540426,4.93914894 42.2161702,10.5110638 44.7374468,15.0617021 C47.4646809,19.9834043 47.6506383,24.8106383 47.6523404,24.8587234 C47.6574468,25.0140426 47.5348936,25.1455319 47.3791489,25.1506383 C47.3757447,25.1506383 47.372766,25.1506383 47.3693617,25.1506383" id="Fill-305" fill="#1C618C"></path>
                    <path d="M13.8876596,27.5723404 C13.8723404,27.5723404 13.8574468,27.5714894 13.8425532,27.5689362 C13.6885106,27.5451064 13.5829787,27.3995745 13.6076596,27.2446809 C13.6191489,27.1702128 14.8897872,19.6557447 22.9208511,14.247234 C23.0502128,14.1595745 23.226383,14.1944681 23.313617,14.3234043 C23.4008511,14.4540426 23.3668085,14.6285106 23.2370213,14.7165957 C15.4076596,19.9893617 14.1778723,27.2608511 14.1659574,27.333617 C14.1442553,27.472766 14.0242553,27.5723404 13.8876596,27.5723404" id="Fill-306" fill="#1C618C"></path>
                    <path d="M12.2697872,22.2165957 C12.2604255,22.2165957 12.2506383,22.2157447 12.2408511,22.2148936 C12.0851064,22.1991489 11.9723404,22.0604255 11.9880851,21.9051064 C11.9978723,21.8085106 13.0497872,12.3004255 20.5876596,8.27148936 C20.7246809,8.19829787 20.8965957,8.24893617 20.9706383,8.38680851 C21.0446809,8.52468085 20.992766,8.69702128 20.8544681,8.7706383 C13.5859574,12.6553191 12.5604255,21.8702128 12.5510638,21.9621277 C12.5361702,22.1076596 12.412766,22.2165957 12.2697872,22.2165957" id="Fill-307" fill="#1C618C"></path>
                </g>
            </g>
        </g>
    </g>
</svg>