<?xml version="1.0" encoding="UTF-8"?>
<svg width="40px" height="40px" viewBox="0 0 40 40" version="1.1" xmlns="http://www.w3.org/2000/svg" xmlns:xlink="http://www.w3.org/1999/xlink">
    <!-- Generator: Sketch 49.3 (51167) - http://www.bohemiancoding.com/sketch -->
    <title>Group 3</title>
    <desc>Created with Sketch.</desc>
    <defs></defs>
    <g id="Page-1" stroke="none" stroke-width="1" fill="none" fill-rule="evenodd">
        <g id="share_list" transform="translate(-82.000000, -750.000000)">
            <g id="Group-3" transform="translate(82.000000, 750.000000)">
                <path d="M39.741844,19.8714894 C39.741844,30.8453901 30.8456738,39.7424113 19.870922,39.7424113 C8.8964539,39.7424113 0,30.8453901 0,19.8714894 C0,8.89673759 8.8964539,0 19.870922,0 C30.8456738,0 39.741844,8.89673759 39.741844,19.8714894" id="Fill-160" fill="#6EBBC5"></path>
                <polygon id="Fill-161" fill="#FFCC99" points="18.1560284 35.7982979 21.4984397 35.7982979 21.4984397 30.3546099 18.1560284 30.3546099"></polygon>
                <path d="M26.2856738,36.9824113 C25.5205674,34.7239716 25.1659574,34.3676596 22.4902128,33.1696454 C22.4547518,33.1543262 21.5407092,32.6241135 21.5407092,32.6241135 L19.8797163,35.9639716 L19.0660993,34.4822695 L18.1982979,32.6241135 C18.1982979,32.6241135 17.418156,33.0944681 17.391773,33.1060993 C14.5886525,34.3537589 14.2207092,34.7157447 13.452766,36.9824113 C13.3602837,37.2561702 13.2184397,37.8235461 13.0496454,38.5591489 C15.1188652,39.3239716 17.3512057,39.7500709 19.6794326,39.7792908 C19.764539,39.7804255 19.8485106,39.7860993 19.9339007,39.7860993 C19.9687943,39.7860993 20.0034043,39.7832624 20.0385816,39.7832624 C22.3761702,39.7710638 24.6184397,39.3560284 26.6990071,38.6031206 C26.5262411,37.8451064 26.3801418,37.2615603 26.2856738,36.9824113" id="Fill-162" fill="#C63B21"></path>
                <path d="M28.0049069,22.681485 C28.0049069,22.681485 30.9010771,24.5793573 30.9010771,27.441485 C30.9010771,32.1019105 28.6571055,32.4221942 29.1762544,33.5535417 C29.3626374,33.9580807 28.917531,34.2335417 27.8049069,33.7975133 C26.2060416,33.1697119 23.4077438,30.7966623 25.3322828,26.3966623 C27.2571055,21.9966623 27.2514317,22.1402084 28.0049069,22.681485" id="Fill-163" fill="#896349"></path>
                <path d="M9.43881613,21.950922 C9.43881613,21.950922 7.85271684,13.8595745 11.3315821,10.0382979 C14.5114402,6.54524823 18.5486034,6.5248227 20.458958,6.5248227 C22.3693126,6.5248227 29.1724332,7.82411348 30.1236388,14.2380142 C31.1903055,21.4306383 28.9276105,21.1580142 28.9276105,21.1580142 C28.9276105,21.1580142 21.2226459,26.4243972 18.1417949,25.2093617 C13.4683197,23.3648227 9.43881613,21.950922 9.43881613,21.950922" id="Fill-164" fill="#896349"></path>
                <path d="M13.185186,22.0656916 C13.3525619,23.4163299 12.5741222,24.6254079 11.4458953,24.7649824 C10.317952,24.9045569 9.26773923,23.9224292 9.10064703,22.5709398 C8.93327115,21.2194505 9.71227824,20.0109398 10.8402215,19.8713654 C11.9684485,19.7317909 13.0178102,20.7142023 13.185186,22.0656916" id="Fill-165" fill="#FFCC99"></path>
                <path d="M26.4057657,22.0656916 C26.2378225,23.4163299 27.0162622,24.6254079 28.1450565,24.7649824 C29.2727161,24.9045569 30.3232125,23.9224292 30.4903047,22.5709398 C30.6576806,21.2194505 29.8786735,20.0109398 28.7501629,19.8713654 C27.6219359,19.7317909 26.5725742,20.7142023 26.4057657,22.0656916" id="Fill-166" fill="#FFCC99"></path>
                <path d="M27.481573,11.3319149 C25.8239844,8.98099291 24.1218567,8.90780142 21.3774595,8.79432624 L18.3941971,8.79432624 C15.6492326,8.90780142 13.9471049,8.98099291 12.2900837,11.3319149 C10.6310766,13.6839716 11.2594454,14.2939007 11.3902255,17.1319149 C11.4892326,19.2763121 10.2078141,17.7719149 11.094339,23.7356028 C11.9814312,29.6990071 17.1607219,31.6116312 19.8858283,31.6116312 C22.610651,31.6116312 27.4012893,30.012766 28.6773177,23.7356028 C29.9527787,17.4584397 28.2818567,19.2763121 28.3808638,17.1319149 C28.5116439,14.2939007 29.1400127,13.6839716 27.481573,11.3319149" id="Fill-167" fill="#FFCC99"></path>
                <path d="M19.346913,25.710922 C19.3369839,25.710922 19.3264875,25.7103546 19.3165584,25.7092199 C19.1290407,25.692766 18.9917357,25.5273759 19.0084733,25.3407092 C19.0549981,24.8255319 19.1264875,22.8025532 19.1264875,22.1841135 C19.1264875,21.9963121 19.2788279,21.8439716 19.4660619,21.8439716 C19.6538634,21.8439716 19.8056364,21.9963121 19.8056364,22.1841135 C19.8056364,22.7721986 19.7364166,24.8238298 19.6847854,25.4011348 C19.6694662,25.5778723 19.5208137,25.710922 19.346913,25.710922" id="Fill-168" fill="#BA8663"></path>
                <path d="M19.5574439,28.4441277 C18.5807064,28.4441277 17.446522,28.2044114 16.825529,27.5178866 C16.6995716,27.3788795 16.7100681,27.1638441 16.8496425,27.0378866 C16.9889333,26.9127802 17.2039688,26.9227093 17.3290751,27.0617164 C17.7778695,27.5581703 18.7929049,27.8296597 19.9083659,27.7533476 C20.7699262,27.6946242 21.5024085,27.4313618 21.7296425,27.0983121 C21.8354581,26.9431348 22.046522,26.9039859 22.2016993,27.0098015 C22.3568766,27.1156171 22.3960255,27.3266809 22.2907773,27.4812909 C21.9356,28.0004398 21.0624085,28.3550497 19.9543234,28.4310781 C19.8263801,28.4398724 19.6938978,28.4441277 19.5574439,28.4441277" id="Fill-169" fill="#BA8663"></path>
                <path d="M13.4183099,19.548551 C13.3051184,19.548551 13.1939127,19.4969198 13.121856,19.3996149 C13.0010049,19.2359269 13.0353312,19.0055723 13.1987354,18.8852886 C13.8829907,18.3789056 15.9383099,18.197629 16.6801538,18.9164943 C16.8256858,19.0583383 16.82909,19.2909624 16.6878134,19.4370617 C16.5459695,19.5828773 16.3139127,19.5862815 16.1675297,19.4450049 C15.7158985,19.0078418 14.0815723,19.1474163 13.6364659,19.4764943 C13.5712177,19.5252886 13.4940546,19.548551 13.4183099,19.548551" id="Fill-170" fill="#6B462D"></path>
                <path d="M26.5811411,19.5776069 C26.5107865,19.5776069 26.4392971,19.5571813 26.3760347,19.5146281 C25.5468148,18.956614 24.0483751,19.1810111 23.5519212,19.5146281 C23.3836943,19.6281033 23.1547581,19.5832806 23.0409992,19.41477 C22.9280914,19.2462593 22.9729141,19.0181742 23.1414248,18.903848 C23.8673822,18.4159047 25.691212,18.166543 26.7873822,18.903848 C26.9556091,19.0181742 27.0001482,19.2462593 26.8869567,19.41477 C26.8154673,19.5205856 26.6997226,19.5776069 26.5811411,19.5776069" id="Fill-171" fill="#6B462D"></path>
                <path d="M25.9585816,22.1415603 C25.9585816,22.9321986 25.8703546,22.524539 24.7529078,22.524539 C23.6348936,22.524539 23.5460993,22.9321986 23.5460993,22.1415603 C23.5460993,21.350922 24.0868085,20.7092199 24.7529078,20.7092199 C25.4190071,20.7092199 25.9585816,21.350922 25.9585816,22.1415603" id="Fill-172" fill="#3A1E0A"></path>
                <path d="M15.8887943,25.2904965 C15.8887943,25.9404255 15.1259574,26.467234 14.1855319,26.467234 C13.2442553,26.467234 12.4822695,25.9404255 12.4822695,25.2904965 C12.4822695,24.6405674 13.2442553,24.1134752 14.1855319,24.1134752 C15.1259574,24.1134752 15.8887943,24.6405674 15.8887943,25.2904965" id="Fill-173" fill="#FCB095"></path>
                <path d="M27.2368794,25.2904965 C27.2368794,25.9404255 26.4743262,26.467234 25.533617,26.467234 C24.5929078,26.467234 23.8297872,25.9404255 23.8297872,25.2904965 C23.8297872,24.6405674 24.5929078,24.1134752 25.533617,24.1134752 C26.4743262,24.1134752 27.2368794,24.6405674 27.2368794,25.2904965" id="Fill-174" fill="#FCB095"></path>
                <path d="M19.7535856,36.4329822 C19.7237984,36.4329822 19.6925927,36.4256064 19.665075,36.4097198 C19.5791176,36.3603581 19.5490466,36.2505709 19.597841,36.1646134 L20.5964225,34.4148262 L22.1717417,35.1612092 L21.9311743,33.3949681 C21.9184083,33.296812 21.9870608,33.2060319 22.0852168,33.1932659 C22.1847913,33.1793652 22.274153,33.2485851 22.2874864,33.3467411 L22.6165644,35.7697198 L20.7430892,34.8820603 L19.9098977,36.3424858 C19.8767062,36.4006418 19.8157133,36.4329822 19.7535856,36.4329822" id="Fill-175" fill="#A32616"></path>
                <path d="M16.0295035,22.1415603 C16.0295035,22.9321986 15.9409929,22.524539 14.8232624,22.524539 C13.7052482,22.524539 13.6170213,22.9321986 13.6170213,22.1415603 C13.6170213,21.350922 14.1577305,20.7092199 14.8232624,20.7092199 C15.4893617,20.7092199 16.0295035,21.350922 16.0295035,22.1415603" id="Fill-176" fill="#3A1E0A"></path>
                <path d="M29.2436879,20.5934752 L10.8643972,20.5934752 C10.6615603,20.5934752 10.4964539,20.4286525 10.4964539,20.2255319 C10.4964539,20.022695 10.6615603,19.858156 10.8643972,19.858156 L29.2436879,19.858156 C29.4470922,19.858156 29.6116312,20.022695 29.6116312,20.2255319 C29.6116312,20.4286525 29.4470922,20.5934752 29.2436879,20.5934752" id="Fill-177" fill="#3A1E0A"></path>
                <path d="M16.1817178,24.1194326 C15.3649802,24.1194326 14.4029944,24.0907801 13.7343419,24.0706383 C13.4171788,24.0612766 13.1800157,24.0541844 13.0804412,24.0541844 C12.7774625,24.0541844 12.3391646,24.018156 12.0316469,23.7066667 C11.6126398,23.2822695 11.6208667,22.5747518 11.6364696,21.4028369 C11.6393065,21.1597163 11.6427107,20.8930496 11.6427107,20.6039716 C11.6427107,20.4005674 11.8078171,20.2360284 12.0103703,20.2360284 C12.2137745,20.2360284 12.3783135,20.4005674 12.3783135,20.6039716 C12.3783135,20.8970213 12.375193,21.1656738 12.3717887,21.4121986 C12.3601575,22.3248227 12.3519306,22.9841135 12.5550511,23.1897872 C12.5862568,23.221844 12.6821433,23.3182979 13.0804412,23.3182979 C13.1828526,23.3182979 13.42881,23.3256738 13.7564696,23.3356028 C14.7028526,23.3636879 16.4637036,23.4164539 17.2455476,23.355461 C17.7658313,23.3148936 17.8228526,23.2414184 17.8132072,21.1685106 C17.8123561,20.9639716 17.8117887,20.7452482 17.8117887,20.5092199 C17.8117887,20.306383 17.9757604,20.141844 18.1794483,20.141844 C18.3822852,20.141844 18.5468242,20.306383 18.5468242,20.5092199 C18.5468242,20.7441135 18.5479589,20.9622695 18.5485263,21.1651064 C18.5576043,23.1049645 18.5618596,23.9903546 17.3025689,24.089078 C17.0154767,24.1112057 16.619732,24.1194326 16.1817178,24.1194326" id="Fill-178" fill="#3A1E0A"></path>
                <path d="M23.9454168,24.2232624 C23.3896721,24.2232624 22.9309487,24.2087943 22.6844239,24.168227 C21.2427217,23.9299291 21.2569061,23.0391489 21.2830054,21.4212766 C21.2875444,21.1486525 21.2923671,20.8453901 21.2923671,20.5092199 C21.2923671,20.306383 21.4569061,20.141844 21.6603104,20.141844 C21.8631473,20.141844 22.0282536,20.306383 22.0282536,20.5092199 C22.0282536,20.8499291 22.0228636,21.1568794 22.0183246,21.4334752 C21.9893884,23.1852482 22.041587,23.3165957 22.8044239,23.4425532 C23.2994593,23.5239716 25.1144948,23.4746099 25.9865515,23.4507801 C26.2713742,23.4436879 26.4864097,23.4374468 26.5805941,23.4374468 C27.2010196,23.4374468 27.2659841,23.3339007 27.3357714,23.1361702 C27.4722253,22.7466667 27.4722253,21.9421277 27.4722253,20.6093617 L27.8393175,20.6039716 L28.2072607,20.6093617 C28.2072607,22.0683688 28.2072607,22.871773 28.0293884,23.3798582 C27.7723671,24.111773 27.1468352,24.172766 26.5805941,24.172766 C26.4892466,24.172766 26.2818707,24.178156 26.0066934,24.1866667 C25.3039983,24.2053901 24.5644239,24.2232624 23.9454168,24.2232624" id="Fill-179" fill="#3A1E0A"></path>
                <path d="M29.8475713,15.6563238 C29.8382096,15.6313593 29.8277131,15.6063948 29.8172167,15.5808628 C29.3987769,14.5757565 29.3633159,13.5329196 28.7877131,12.6010047 C28.097784,11.4829905 27.3692734,10.232494 26.2228904,9.49320326 C26.1701245,9.45887702 26.1142379,9.42625291 26.0589188,9.39306142 C24.7389188,8.27419617 22.9831741,8.37774227 21.1071457,8.13065007 C16.7706918,7.56015362 12.9482805,8.16724582 10.6847344,11.7045508 C9.8160819,13.062565 9.49182658,15.4418557 9.21211027,17.0381678 C9.03367056,18.0532033 9.01324502,19.8151891 9.27423793,20.8191607 C9.43140105,21.427104 9.85437978,22.5417139 10.6282805,21.8773167 C11.1451599,21.432494 10.9091315,18.8793026 10.9091315,18.8793026 C11.4262947,19.1856855 12.368706,18.773487 12.7559401,18.4370331 C13.115089,18.1258274 13.8952308,17.3184515 13.6989188,16.7678132 C14.337784,18.5584515 17.7896989,17.3190189 18.4104081,14.9280969 C19.2640252,17.1672458 22.8921103,15.0069621 23.7471457,13.2614302 C23.8807628,14.3141962 24.1916847,15.16526 25.0609046,15.7215721 C25.7281386,16.1488061 26.9338124,16.1533451 27.5448762,15.5754728 C26.8637415,16.4563238 27.1704081,19.4177423 28.6722521,19.3141962 C28.5803372,19.7031323 28.221472,20.9022813 28.977784,21.2435579 C29.408706,21.4381678 29.8835996,20.8983096 30.0299826,20.5720685 C30.2691315,20.040721 30.1289897,18.7584515 30.155089,18.1751891 C30.1982096,17.2177423 30.19055,16.5167494 29.8475713,15.6563238" id="Fill-180" fill="#896349"></path>
                <path d="M20.0417021,36.2534078 L20.0417021,36.2074503 L19.9222695,35.989578 L19.1086525,34.5078759 L19.0836879,34.4624858 L17.4629787,35.1728404 L17.7046809,33.3949681 C17.7180142,33.296812 17.6485106,33.2060319 17.5512057,33.1932659 C17.4519149,33.1793652 17.3617021,33.2485851 17.3483688,33.3467411 L17.0212766,35.758656 L18.9268085,34.9229113 L19.6825532,36.2999326 C19.6836879,36.8417766 19.6930496,37.381351 19.7032624,37.9223439 C19.7148936,38.5393652 19.7253901,39.1756773 19.7219858,39.8048971 C19.8070922,39.8060319 19.8910638,39.8117056 19.9764539,39.8117056 C20.0113475,39.8117056 20.0459574,39.8088688 20.0811348,39.8088688 C20.0842553,39.1751099 20.0731915,38.5356773 20.0621277,37.9161028 C20.0521986,37.3620603 20.0417021,36.8080177 20.0417021,36.2534078" id="Fill-181" fill="#A32616"></path>
            </g>
        </g>
    </g>
</svg>