<?xml version="1.0" encoding="UTF-8"?>
<svg width="40px" height="40px" viewBox="0 0 40 40" version="1.1" xmlns="http://www.w3.org/2000/svg" xmlns:xlink="http://www.w3.org/1999/xlink">
    <!-- Generator: Sketch 49.3 (51167) - http://www.bohemiancoding.com/sketch -->
    <title>Group 2</title>
    <desc>Created with Sketch.</desc>
    <defs></defs>
    <g id="Page-1" stroke="none" stroke-width="1" fill="none" fill-rule="evenodd">
        <g id="share_list" transform="translate(-82.000000, -670.000000)">
            <g id="Group-2" transform="translate(82.000000, 670.000000)">
                <path d="M39.7424113,19.8714894 C39.7424113,30.8456738 30.8456738,39.7424113 19.8714894,39.7424113 C8.89673759,39.7424113 0,30.8456738 0,19.8714894 C0,8.89702128 8.89673759,0 19.8714894,0 C30.8456738,0 39.7424113,8.89702128 39.7424113,19.8714894" id="Fill-59" fill="#6DAF6D"></path>
                <path d="M25.6161702,21.013617 C25.2970213,22.8283688 26.372766,24.3392908 28.0204255,24.6649645 C29.6675177,24.9903546 31.2607092,24.0068085 31.5790071,22.1920567 C31.8984397,20.377305 30.822695,18.6419858 29.1756028,18.3168794 C27.5287943,17.990922 25.9347518,19.1982979 25.6161702,21.013617" id="Fill-60" fill="#FFCC99"></path>
                <path d="M14.1234043,21.013617 C14.4425532,22.8283688 13.3668085,24.3392908 11.7194326,24.6649645 C10.0723404,24.9903546 8.47914894,24.0068085 8.16056738,22.1920567 C7.84113475,20.377305 8.91716312,18.6419858 10.5639716,18.3168794 C12.2110638,17.990922 13.804539,19.1982979 14.1234043,21.013617" id="Fill-61" fill="#FFCC99"></path>
                <path d="M28.0893617,8.78836879 C26.4811348,6.60368794 23.9733333,5.16907801 21.3106383,5.06326241 C21.3100709,5.06326241 21.2584397,5.06099291 21.1724823,5.05787234 L21.1756028,4.95347518 C21.1756028,4.95347518 20.5302128,4.97900709 19.8638298,5.00567376 C19.1971631,4.97900709 18.551773,4.95347518 18.551773,4.95347518 L18.5543262,5.05787234 C18.4689362,5.06099291 18.4167376,5.06326241 18.4167376,5.06326241 C15.7534752,5.16907801 13.2456738,6.60368794 11.6380142,8.78836879 C10.0283688,10.9753191 9.81446809,13.7296454 9.9412766,16.3670922 C10.0371631,18.36 10.3900709,21.5775887 10.489078,23.5713475 C12.1041135,29.6130496 16.1225532,30.6451064 19.8635461,30.6451064 C23.6048227,30.6451064 27.7571631,29.6130496 29.2380142,23.5713475 C29.3367376,21.5775887 29.6893617,18.36 29.7855319,16.3670922 C29.9123404,13.7296454 29.6987234,10.9753191 28.0893617,8.78836879" id="Fill-62" fill="#FFCC99"></path>
                <polygon id="Fill-63" fill="#FFCC99" points="17.4156028 35.2408511 22.3114894 35.2408511 22.3114894 29.5299291 17.4156028 29.5299291"></polygon>
                <path d="M12.5665248,18.4879433 C12.4646809,18.4879433 12.3634043,18.4470922 12.2893617,18.3662411 C12.1497872,18.2133333 12.1608511,17.9761702 12.3137589,17.8368794 C13.0175887,17.1943262 15.2723404,16.9066667 16.289078,17.5083688 C16.4669504,17.6141844 16.5259574,17.8442553 16.4204255,18.0221277 C16.3148936,18.2 16.0853901,18.2587234 15.9069504,18.1534752 C15.2,17.7344681 13.3035461,17.9478014 12.8190071,18.3900709 C12.747234,18.4558865 12.6564539,18.4879433 12.5665248,18.4879433" id="Fill-64" fill="#A57944"></path>
                <path d="M26.9912057,18.6382979 C26.8819858,18.6382979 26.7739007,18.5912057 26.6998582,18.4995745 C26.3276596,18.0402837 24.3580142,17.8192908 23.5548936,18.1460993 C23.3636879,18.2243972 23.1449645,18.1321986 23.0669504,17.9407092 C22.9886525,17.7489362 23.0808511,17.5299291 23.2723404,17.4524823 C24.2275177,17.0641135 26.6144681,17.2048227 27.2817021,18.0275177 C27.4124823,18.1889362 27.3875177,18.4243972 27.2269504,18.5546099 C27.1574468,18.6110638 27.0740426,18.6382979 26.9912057,18.6382979" id="Fill-65" fill="#A57944"></path>
                <path d="M19.2646809,24.5758865 C19.2558865,24.5758865 19.2468085,24.5753191 19.2377305,24.5747518 C19.0312057,24.5597163 18.8757447,24.3801418 18.8907801,24.1741844 C18.9395745,23.4992908 19.0147518,20.849078 19.0147518,20.0377305 C19.0147518,19.8312057 19.1824113,19.6632624 19.3895035,19.6632624 C19.5963121,19.6632624 19.7639716,19.8312057 19.7639716,20.0377305 C19.7639716,20.8051064 19.6921986,23.4782979 19.6382979,24.2278014 C19.6241135,24.4252482 19.4595745,24.5758865 19.2646809,24.5758865" id="Fill-66" fill="#CC9A75"></path>
                <path d="M19.7651064,27.8121986 C18.5775887,27.8121986 17.5398582,27.511773 16.8774468,26.968227 C16.7177305,26.8368794 16.6941844,26.6008511 16.8255319,26.4414184 C16.9565957,26.2811348 17.1926241,26.2575887 17.3526241,26.3886525 C17.9339007,26.8658156 18.9653901,27.1146099 20.1080851,27.053617 C21.1409929,26.9988652 22.0731915,26.6984397 22.4280851,26.3055319 C22.5662411,26.1514894 22.8031206,26.1392908 22.9571631,26.2785816 C23.1106383,26.4170213 23.1228369,26.6541844 22.9841135,26.8076596 C22.4902128,27.3546099 21.4034043,27.7356028 20.1475177,27.8022695 C20.0184397,27.8087943 19.8907801,27.8121986 19.7651064,27.8121986" id="Fill-67" fill="#BA8663"></path>
                <path d="M11.7129078,12.4590071 C11.5858156,12.7350355 11.6255319,14.1716312 13.2292199,14.1239716 C14.627234,14.0825532 15.4059574,13.2343262 16.1163121,12.5100709 C16.1163121,12.5100709 14.8005674,14.581844 16.5421277,14.9985816 C18.2893617,15.4161702 19.9512057,13.1251064 19.9512057,13.1251064 C19.7080851,13.3041135 19.6686525,14.2814184 20.3710638,14.5988652 C21.4380142,15.0814184 23.901844,14.7069504 26.6737589,11.0851064 C29.2385816,14.3319149 29.4459574,19.9523404 29.466383,20.3486525 C29.4746099,20.5092199 29.5163121,20.9404255 29.7265248,20.8987234 C29.9617021,20.8533333 29.9889362,19.9835461 30.0121986,19.7974468 C30.1812766,18.4885106 30.2266667,17.1466667 30.2258156,15.8295035 C30.222695,13.3971631 30.9296454,8.71404255 26.5287943,5.79574468 C23.8221277,4.00056738 18.2269504,3.82212766 15.1126241,4.83829787 C12.9429787,5.54638298 10.8629787,7.39035461 10.0896454,9.53843972 C9.24085106,11.8978723 9.26241135,13.7412766 9.54212766,18.4133333 C9.57219858,18.9202837 9.63205674,19.4278014 9.70241135,19.9296454 C9.74893617,20.2643972 9.79234043,20.6068085 9.87347518,20.9341844 C10.0504965,21.6485106 10.297305,21.1387234 10.2896454,20.6944681 C10.2780142,20.0161702 10.0476596,15.04 11.7129078,12.4590071" id="Fill-68" fill="#E8AC5D"></path>
                <path d="M15.938156,21.3049645 C15.8819858,21.3049645 15.8255319,21.292766 15.7724823,21.2660993 C14.6635461,20.7182979 13.1217021,20.9758865 12.7946099,21.2275177 C12.6303546,21.3531915 12.3951773,21.3225532 12.2689362,21.1585816 C12.1432624,20.9946099 12.1739007,20.7591489 12.3378723,20.6334752 C12.9299291,20.1784397 14.8144681,19.9563121 16.1043972,20.5946099 C16.2899291,20.6859574 16.3656738,20.910922 16.2740426,21.0967376 C16.2087943,21.2283688 16.0760284,21.3049645 15.938156,21.3049645" id="Fill-69" fill="#BA8663"></path>
                <path d="M28.5985816,36.7038298 C28.324539,36.2870922 27.9693617,35.8777305 27.5634043,35.4865248 C27.5747518,35.4394326 23.4144681,32.6870922 23.3985816,32.7024113 C23.1764539,32.5605674 22.4346099,32.0873759 22.4666667,32.097305 C22.5043972,32.1095035 19.8714894,33.6150355 19.8714894,33.6150355 L17.2760284,32.097305 L16.3565957,32.7134752 C16.3384397,32.6930496 12.3205674,35.2879433 12.3279433,35.3460993 C11.8590071,35.7790071 11.4513475,36.2368794 11.1441135,36.7038298 C10.995461,36.9304965 10.8434043,37.1974468 10.6893617,37.4921986 C11.3259574,37.8252482 11.9829787,38.1234043 12.6578723,38.386383 C14.5988652,39.1432624 16.6851064,39.608227 18.8669504,39.7168794 C19.1997163,39.7333333 19.5344681,39.7424113 19.8714894,39.7424113 C20.208227,39.7424113 20.5429787,39.7333333 20.8757447,39.7168794 C23.0598582,39.608227 25.1483688,39.1421277 27.0910638,38.3838298 C27.7639716,38.1211348 28.4187234,37.8235461 29.053617,37.4921986 C28.8995745,37.1974468 28.747234,36.9304965 28.5985816,36.7038298" id="Fill-70" fill="#86695D"></path>
                <path d="M26.4910638,21.2428369 C26.4363121,21.2428369 26.3804255,21.2306383 26.3276596,21.2051064 C25.6578723,20.8805674 24.1339007,20.7293617 23.4008511,21.186383 C23.2252482,21.2956028 22.9943262,21.2417021 22.884539,21.0660993 C22.7753191,20.8904965 22.8289362,20.6595745 23.004539,20.5497872 C24.0053901,19.9265248 25.8053901,20.1191489 26.6550355,20.5307801 C26.8411348,20.6212766 26.9188652,20.8456738 26.8283688,21.031773 C26.7636879,21.1653901 26.6300709,21.2428369 26.4910638,21.2428369" id="Fill-71" fill="#BA8663"></path>
                <path d="M20.4550355,36.067234 L21.1685106,34.8601418 L19.9069504,33.9707801 L19.9069504,33.9049645 L19.8686525,33.9375887 L19.8297872,33.9049645 L19.8297872,33.9707801 L18.5687943,34.8601418 L19.2819858,36.067234 L18.7361702,39.4774468 C18.7792908,39.5577305 18.822695,39.6382979 18.8669504,39.7168794 C19.1997163,39.7333333 19.5344681,39.7424113 19.8714894,39.7424113 C20.208227,39.7424113 20.5429787,39.7333333 20.8757447,39.7168794 C20.9185816,39.6408511 20.9602837,39.5634043 21.0019858,39.4856738 L20.4550355,36.067234" id="Fill-72" fill="#3C313F"></path>
                <path d="M17.2689362,36.0921986 C17.213617,36.0921986 17.1585816,36.0678014 17.1217021,36.0212766 C17.0575887,35.9398582 17.0714894,35.8224113 17.1526241,35.7580142 L19.7460993,33.7075177 C19.8275177,33.6434043 19.9455319,33.6570213 20.0093617,33.7387234 C20.0737589,33.8195745 20.0598582,33.9375887 19.9790071,34.0017021 L17.3846809,36.0516312 C17.3503546,36.0788652 17.3095035,36.0921986 17.2689362,36.0921986" id="Fill-73" fill="#684D44"></path>
                <path d="M22.4561702,36.0921986 C22.4158865,36.0921986 22.3747518,36.0788652 22.3404255,36.0516312 L19.7460993,34.0017021 C19.6652482,33.9375887 19.6516312,33.8195745 19.7157447,33.7387234 C19.7795745,33.6570213 19.8978723,33.6434043 19.9790071,33.7075177 L22.5724823,35.7580142 C22.6539007,35.8224113 22.6675177,35.9398582 22.6036879,36.0212766 C22.5665248,36.0678014 22.511773,36.0921986 22.4561702,36.0921986" id="Fill-74" fill="#684D44"></path>
                <path d="M16.4190071,32.8289362 C16.4102128,32.7843972 16.386383,32.7469504 16.3565957,32.7134752 C16.3384397,32.6930496 16.3194326,32.6726241 16.2947518,32.6587234 C16.257305,32.6382979 16.2156028,32.6278014 16.1739007,32.6278014 C16.1441135,32.6278014 16.1140426,32.6331915 16.0853901,32.6436879 C14.7296454,33.1580142 13.2473759,34.2073759 12.3897872,34.9503546 C12.3262411,35.0056738 12.2947518,35.088227 12.3055319,35.1713475 C12.3131915,35.2306383 12.3205674,35.2879433 12.3279433,35.3460993 C12.4689362,36.4434043 12.5860993,37.4283688 12.6578723,38.386383 C14.5988652,39.1432624 16.6851064,39.608227 18.8669504,39.7168794 C18.822695,39.6382979 18.7792908,39.5577305 18.7361702,39.4774468 C17.182695,36.586383 16.4280851,32.875461 16.4190071,32.8289362" id="Fill-75" fill="#3C313F"></path>
                <path d="M27.5634043,35.4865248 C27.5747518,35.4394326 27.5832624,35.3920567 27.5948936,35.3449645 C27.6170213,35.2556028 27.5880851,35.1619858 27.52,35.0998582 C26.5829787,34.2510638 25.0255319,33.1622695 23.6575887,32.6436879 C23.6286525,32.6331915 23.5988652,32.6278014 23.5687943,32.6278014 C23.5270922,32.6278014 23.4851064,32.6382979 23.4479433,32.6587234 C23.4283688,32.6697872 23.4144681,32.6870922 23.3985816,32.7024113 C23.3628369,32.737305 23.3339007,32.7790071 23.3239716,32.8289362 C23.3148936,32.875461 22.5580142,36.5937589 21.0019858,39.4856738 C20.9602837,39.5634043 20.9185816,39.6408511 20.8757447,39.7168794 C23.0598582,39.608227 25.1483688,39.1421277 27.0910638,38.3838298 C27.1801418,37.4051064 27.3358865,36.4422695 27.5634043,35.4865248" id="Fill-76" fill="#3C313F"></path>
            </g>
        </g>
    </g>
</svg>