<?xml version="1.0" encoding="UTF-8"?>
<svg width="90px" height="90px" viewBox="0 0 90 90" version="1.1" xmlns="http://www.w3.org/2000/svg" xmlns:xlink="http://www.w3.org/1999/xlink">
    <!-- Generator: Sketch 49.3 (51167) - http://www.bohemiancoding.com/sketch -->
    <title>Group 7</title>
    <desc>Created with Sketch.</desc>
    <defs></defs>
    <g id="Page-1" stroke="none" stroke-width="1" fill="none" fill-rule="evenodd">
        <g id="onboarding_22" transform="translate(-143.000000, -377.000000)">
            <g id="Group" transform="translate(40.000000, 280.000000)">
                <g id="Group-7" transform="translate(103.000000, 97.000000)">
                    <path d="M53.2819149,77.2474468 C53.046383,77.1689362 52.6238298,77.0119149 52.6238298,77.0119149 C52.6238298,77.0119149 50.1382979,74.6323404 50.2180851,74.6597872 C50.2978723,74.687234 44.7102128,78.0740426 44.7102128,78.0740426 L39.2023404,74.6597872 L36.8170213,76.907234 C36.8170213,76.907234 35.7817021,77.3674468 35.2729787,77.5378723 C28.7559574,79.7285106 25.1431915,81.096383 23.0955319,83.8487234 C29.4408511,87.3606383 36.7276596,89.3751064 44.4829787,89.4140426 C44.5589362,89.4140426 44.6342553,89.4191489 44.7102128,89.4191489 C44.9202128,89.4191489 45.1276596,89.406383 45.3370213,89.4038298 C52.9429787,89.2978723 60.0887234,87.2993617 66.323617,83.8487234 C64.187234,80.976383 60.347234,79.6123404 53.2819149,77.2474468" id="Fill-77" fill="#1E5E8B"></path>
                    <path d="M89.4197872,44.7108511 C89.4197872,69.4008511 69.402766,89.4191489 44.7102128,89.4191489 C20.0170213,89.4191489 0,69.4008511 0,44.7108511 C0,20.0176596 20.0170213,0 44.7102128,0 C69.402766,0 89.4197872,20.0176596 89.4197872,44.7108511" id="Fill-78" fill="#EC6F46"></path>
                    <polygon id="Fill-79" fill="#FFCC99" points="39.2023404 81.7308511 50.2180851 81.7308511 50.2180851 68.2429787 39.2023404 68.2429787"></polygon>
                    <path d="M53.2819149,77.2474468 C53.046383,77.1689362 52.6238298,77.0119149 52.6238298,77.0119149 C52.6238298,77.0119149 50.1382979,74.6323404 50.2180851,74.6597872 C50.2978723,74.687234 44.7102128,78.0740426 44.7102128,78.0740426 L39.2023404,74.6597872 L36.8170213,76.907234 C36.8170213,76.907234 35.7817021,77.3674468 35.2729787,77.5378723 C28.7559574,79.7285106 25.1431915,81.096383 23.0955319,83.8487234 C29.4408511,87.3606383 36.7276596,89.3751064 44.4829787,89.4140426 C44.5589362,89.4140426 44.6342553,89.4191489 44.7102128,89.4191489 C44.9202128,89.4191489 45.1276596,89.406383 45.3370213,89.4038298 C52.9429787,89.2978723 60.0887234,87.2993617 66.323617,83.8487234 C64.187234,80.976383 60.347234,79.6123404 53.2819149,77.2474468" id="Fill-80" fill="#1E5E8B"></path>
                    <path d="M57.6529787,49.0812766 C56.9355319,53.1644681 59.3559574,56.5640426 63.0625532,57.2968085 C66.7691489,58.0302128 70.3531915,55.817234 71.0712766,51.7346809 C71.7893617,47.6514894 69.3689362,43.7470213 65.6617021,43.0148936 C61.956383,42.2808511 58.3710638,44.9987234 57.6529787,49.0812766" id="Fill-81" fill="#FFCC99"></path>
                    <path d="M31.7942553,49.0812766 C32.5129787,53.1644681 30.0925532,56.5640426 26.3859574,57.2968085 C22.6793617,58.0302128 19.0946809,55.817234 18.3778723,51.7346809 C17.6597872,47.6514894 20.0802128,43.7470213 23.7855319,43.0148936 C27.4914894,42.2808511 31.0774468,44.9987234 31.7942553,49.0812766" id="Fill-82" fill="#FFCC99"></path>
                    <path d="M63.2182979,21.5751064 C59.5991489,16.6602128 53.9578723,13.4317021 47.9648936,13.193617 C47.9648936,13.193617 47.8480851,13.1897872 47.6553191,13.1808511 L47.6623404,12.9465957 C47.6623404,12.9465957 46.2089362,13.0040426 44.7102128,13.0640426 C43.2102128,13.0040426 41.7580851,12.9465957 41.7580851,12.9465957 L41.7638298,13.1808511 C41.5717021,13.1897872 41.4548936,13.193617 41.453617,13.193617 C35.4625532,13.4317021 29.82,16.6602128 26.2021277,21.5751064 C22.5804255,26.4957447 22.0997872,32.6929787 22.3844681,38.6278723 C22.6002128,43.1125532 23.3942553,50.3521277 23.6170213,54.8361702 C27.2514894,68.4312766 36.2923404,70.7540426 44.7095745,70.7540426 C53.1274468,70.7540426 62.4702128,68.4312766 65.802766,54.8361702 C66.0248936,50.3521277 66.8182979,43.1125532 67.0353191,38.6278723 C67.3206383,32.6929787 66.84,26.4957447 63.2182979,21.5751064" id="Fill-83" fill="#FFCC99"></path>
                    <path d="M35.8468085,46.8510638 C35.8468085,48.5080851 34.7157447,49.8517021 33.3178723,49.8517021 C31.9219149,49.8517021 30.7882979,48.5080851 30.7882979,46.8510638 C30.7882979,45.1934043 31.9219149,43.8504255 33.3178723,43.8504255 C34.7157447,43.8504255 35.8468085,45.1934043 35.8468085,46.8510638" id="Fill-84" fill="#3A1E0A"></path>
                    <path d="M58.8542553,46.8510638 C58.8542553,48.5080851 57.7225532,49.8517021 56.3253191,49.8517021 C54.9287234,49.8517021 53.7957447,48.5080851 53.7957447,46.8510638 C53.7957447,45.1934043 54.9287234,43.8504255 56.3253191,43.8504255 C57.7225532,43.8504255 58.8542553,45.1934043 58.8542553,46.8510638" id="Fill-85" fill="#3A1E0A"></path>
                    <path d="M29.7823404,40.7808511 C29.5742553,40.7808511 29.3655319,40.703617 29.202766,40.5491489 C28.8644681,40.2287234 28.8504255,39.6951064 29.1702128,39.3574468 C30.6165957,37.8338298 34.8485106,36.8917021 37.3334043,38.6080851 C37.7170213,38.873617 37.812766,39.3982979 37.5478723,39.7812766 C37.283617,40.1642553 36.7589362,40.2612766 36.3753191,39.9957447 C34.5619149,38.7414894 31.2951064,39.5680851 30.3938298,40.5178723 C30.2285106,40.692766 30.0057447,40.7808511 29.7823404,40.7808511" id="Fill-86" fill="#3A1E0A"></path>
                    <path d="M60.0331915,40.8510638 C59.8110638,40.8510638 59.5882979,40.763617 59.4229787,40.5906383 C58.1304255,39.2342553 55.0525532,39.2712766 53.2065957,40.6653191 C52.8351064,40.9455319 52.307234,40.8721277 52.026383,40.5006383 C51.7448936,40.1304255 51.8182979,39.6006383 52.1897872,39.3197872 C54.732766,37.4004255 58.7610638,37.4514894 60.6440426,39.4270213 C60.9644681,39.7653191 60.9517021,40.2976596 60.6140426,40.6193617 C60.4512766,40.7751064 60.2425532,40.8510638 60.0331915,40.8510638" id="Fill-87" fill="#3A1E0A"></path>
                    <path d="M43.3621277,57.096383 C43.3423404,57.096383 43.3219149,57.096383 43.3014894,57.0938298 C42.8368085,57.0612766 42.4870213,56.6578723 42.5208511,56.1925532 C42.6306383,54.6753191 42.8004255,48.7110638 42.8004255,46.8874468 C42.8004255,46.4221277 43.1770213,46.0448936 43.6429787,46.0448936 C44.1082979,46.0448936 44.4855319,46.4221277 44.4855319,46.8874468 C44.4855319,48.78 44.3170213,54.732766 44.202766,56.3144681 C44.1708511,56.7587234 43.8006383,57.096383 43.3621277,57.096383" id="Fill-88" fill="#CC9A75"></path>
                    <path d="M24.2208511,43.7482979 C24.3874468,40.4610638 23.2034043,32.1804255 27.5444681,30.3229787 C29.2104255,29.61 31.0314894,29.5697872 32.712766,29.7357447 C38.7855319,30.33 44.4459574,33.3012766 55.0531915,31.5842553 C60.9561702,30.6293617 62.4906383,29.6087234 64.0787234,28.3544681 C64.7355319,27.8355319 64.8925532,37.4425532 64.9225532,40.5006383 C64.9346809,41.9157447 64.92,43.2631915 64.9014894,44.6782979 C64.89,45.5087234 64.8925532,46.3391489 64.877234,47.1676596 C64.8702128,47.5059574 64.7974468,48.36 65.9068085,48.3587234 C66.7212766,48.3574468 66.8240426,46.2006383 66.8546809,45.8074468 C67.3289362,39.5968085 67.5638298,36.2393617 67.2874468,30.4423404 C67.1546809,27.6414894 67.2076596,27.6925532 66.9765957,25.2012766 C68.7440426,23.8040426 69.8591489,21.2668085 69.8629787,18.2687234 C68.9821277,18.9446809 67.0665957,19.4904255 67.0665957,19.4904255 C68.6048936,17.5429787 69.8668085,14.43 69.4761702,10.776383 C67.8057447,12.3542553 66.0185106,13.103617 63.7678723,12.9044681 C64.3589362,11.9253191 64.8606383,10.5944681 63.7729787,8.78297872 C62.7695745,10.1342553 60.9331915,10.9608511 58.3410638,11.3968085 C52.6946809,12.3497872 41.9725532,5.09234043 28.4840426,15.0823404 C23.7593617,18.5802128 22.0021277,24.9695745 21.9957447,31.1042553 C21.9868085,39.0721277 21.9893617,36.7621277 21.9810638,44.6380851 C21.9804255,45.3453191 22.0308511,47.8225532 22.847234,48.3759574 C23.6348936,48.9108511 24.2368085,48.1142553 24.2234043,47.3495745 C24.2010638,46.182766 24.1487234,45.1704255 24.2208511,43.7482979" id="Fill-89" fill="#4F2F19"></path>
                    <path d="M37.7821277,60.1819149 C40.763617,68.5359574 51.6529787,65.5410638 52.2529787,59.7280851 L37.7821277,60.1819149" id="Fill-90" fill="#FFFFFF"></path>
                    <path d="M38.8238298,60.852766 C40.0065957,63.2738298 42.1346809,64.6410638 44.783617,64.6410638 L44.7842553,64.6410638 C47.8340426,64.6410638 50.6476596,62.7951064 51.3861702,60.4576596 L38.8238298,60.852766 Z M44.7842553,66.0465957 L44.783617,66.0465957 C41.1906383,66.0465957 38.3968085,63.9957447 37.1202128,60.4174468 C37.0448936,60.2068085 37.0755319,59.9712766 37.2012766,59.7868085 C37.3282979,59.6010638 37.5351064,59.4874468 37.7597872,59.4797872 L52.2312766,59.0259574 C52.4278723,59.0125532 52.6289362,59.1012766 52.7674468,59.2493617 C52.9059574,59.3974468 52.9723404,59.5985106 52.9519149,59.8002128 C52.5957447,63.2451064 48.9319149,66.0465957 44.7842553,66.0465957 Z" id="Fill-91" fill="#BA8663"></path>
                    <path d="M38.9955319,83.9482979 L36.6478723,77.4606383 C36.5668085,77.2404255 36.6817021,76.9946809 36.9031915,76.9148936 C37.1240426,76.8351064 37.3704255,76.9487234 37.4502128,77.1702128 L39.3829787,82.5108511 L44.4229787,78.2885106 C44.6042553,78.1378723 44.873617,78.1614894 45.0242553,78.3421277 C45.1755319,78.522766 45.1519149,78.7921277 44.9719149,78.9434043 L38.9955319,83.9482979" id="Fill-92" fill="#134768"></path>
                    <path d="M50.3948936,83.9451064 L44.4229787,78.9434043 C44.2423404,78.7921277 44.2187234,78.522766 44.37,78.3421277 C44.5219149,78.1614894 44.7906383,78.1378723 44.9719149,78.2885106 L50.0151064,82.5134043 L51.9714894,77.2365957 C52.0531915,77.0144681 52.2989362,76.9021277 52.5191489,76.9831915 C52.7412766,77.0655319 52.853617,77.3112766 52.7719149,77.5334043 L50.3948936,83.9451064" id="Fill-93" fill="#134768"></path>
                    <path d="M45.1002128,79.1087234 C45.1002128,78.8731915 44.9093617,78.6810638 44.6738298,78.6810638 C44.4382979,78.6810638 44.2468085,78.8731915 44.2468085,79.1087234 C44.2468085,83.2825532 44.3412766,85.7151064 44.4319149,88.0665957 C44.4497872,88.5089362 44.466383,88.9538298 44.4829787,89.4140426 C44.5589362,89.4140426 44.6342553,89.4191489 44.7102128,89.4191489 C44.9202128,89.4191489 45.1276596,89.406383 45.3370213,89.4038298 C45.3197872,88.9365957 45.3019149,88.482766 45.2846809,88.0340426 C45.1940426,85.6902128 45.1002128,83.2665957 45.1002128,79.1087234" id="Fill-94" fill="#134768"></path>
                </g>
            </g>
        </g>
    </g>
</svg>