<?xml version="1.0" encoding="UTF-8"?>
<svg width="60px" height="60px" viewBox="0 0 60 60" version="1.1" xmlns="http://www.w3.org/2000/svg" xmlns:xlink="http://www.w3.org/1999/xlink">
    <!-- Generator: Sketch 49.3 (51167) - http://www.bohemiancoding.com/sketch -->
    <title>Group 9</title>
    <desc>Created with Sketch.</desc>
    <defs></defs>
    <g id="Page-1" stroke="none" stroke-width="1" fill="none" fill-rule="evenodd">
        <g id="chat_list" transform="translate(-10.000000, -415.000000)">
            <g id="Group-18" transform="translate(10.000000, 415.000000)">
                <g id="Group-9">
                    <path d="M59.6131915,29.807234 C59.6131915,46.2685106 46.2689362,59.613617 29.8068085,59.613617 C13.3451064,59.613617 0,46.2685106 0,29.807234 C0,13.3455319 13.3451064,0 29.8068085,0 C46.2689362,0 59.6131915,13.3455319 59.6131915,29.807234" id="Fill-43" fill="#2D7E9E"></path>
                    <path d="M38.4357447,33.5055319 C37.9570213,36.2276596 39.5702128,38.4940426 42.0417021,38.9829787 C44.512766,39.4706383 46.9021277,37.9961702 47.3808511,35.273617 C47.8587234,32.5514894 46.2455319,29.9493617 43.7748936,29.4608511 C41.3038298,28.9719149 38.9144681,30.7829787 38.4357447,33.5055319" id="Fill-44" fill="#FFCC99"></path>
                    <path d="M21.1965957,33.5055319 C21.6753191,36.2276596 20.0612766,38.4940426 17.5902128,38.9829787 C15.1195745,39.4706383 12.7302128,37.9961702 12.2523404,35.273617 C11.772766,32.5514894 13.3868085,29.9493617 15.8574468,29.4608511 C18.3276596,28.9719149 20.7187234,30.7829787 21.1965957,33.5055319" id="Fill-45" fill="#FFCC99"></path>
                    <path d="M42.1459574,15.1680851 C39.7331915,11.8910638 35.9714894,9.73914894 31.9770213,9.58042553 C31.9770213,9.58042553 31.8987234,9.57702128 31.7702128,9.57191489 L31.7748936,9.41574468 C31.7748936,9.41574468 30.8059574,9.45404255 29.8059574,9.49404255 C28.807234,9.45404255 27.8387234,9.41574468 27.8387234,9.41574468 L27.8429787,9.57191489 C27.7140426,9.57702128 27.6370213,9.58042553 27.6361702,9.58042553 C23.6417021,9.73914894 19.88,11.8910638 17.4680851,15.1680851 C15.0540426,18.4485106 14.7331915,22.58 14.9234043,26.5370213 C15.067234,29.526383 15.5965957,34.3519149 15.7446809,37.3421277 C18.167234,46.4055319 24.1953191,47.9540426 29.8059574,47.9540426 C35.4187234,47.9540426 41.646383,46.4055319 43.8676596,37.3421277 C44.0165957,34.3519149 44.5459574,29.526383 44.6897872,26.5370213 C44.88,22.58 44.5591489,18.4485106 42.1459574,15.1680851" id="Fill-46" fill="#FFCC99"></path>
                    <polygon id="Fill-47" fill="#FFCC99" points="26.1344681 55.2719149 33.4778723 55.2719149 33.4778723 46.28 26.1344681 46.28"></polygon>
                    <path d="M23.8978723,32.0187234 C23.8978723,33.1234043 23.1438298,34.0195745 22.2123404,34.0195745 C21.2812766,34.0195745 20.5259574,33.1234043 20.5259574,32.0187234 C20.5259574,30.913617 21.2812766,30.0174468 22.2123404,30.0174468 C23.1438298,30.0174468 23.8978723,30.913617 23.8978723,32.0187234" id="Fill-48" fill="#3A1E0A"></path>
                    <path d="M39.2361702,32.0187234 C39.2361702,33.1234043 38.4812766,34.0195745 37.5497872,34.0195745 C36.6187234,34.0195745 35.8642553,33.1234043 35.8642553,32.0187234 C35.8642553,30.913617 36.6187234,30.0174468 37.5497872,30.0174468 C38.4812766,30.0174468 39.2361702,30.913617 39.2361702,32.0187234" id="Fill-49" fill="#3A1E0A"></path>
                    <path d="M19.767234,28.393617 C19.6276596,28.393617 19.4885106,28.3421277 19.38,28.2382979 C19.1544681,28.0246809 19.146383,27.6689362 19.3608511,27.4434043 C20.1170213,26.6489362 21.5208511,26.427234 22.5812766,26.4829787 C23.1323404,26.512766 24.4812766,26.6689362 25.1029787,27.4791489 C25.2914894,27.7255319 25.2451064,28.0787234 24.9991489,28.267234 C24.7523404,28.4557447 24.3995745,28.4093617 24.2102128,28.1634043 C24.0306383,27.9289362 23.4255319,27.6540426 22.5204255,27.6055319 C21.5165957,27.5531915 20.5748936,27.7982979 20.1744681,28.2191489 C20.0638298,28.3344681 19.9148936,28.393617 19.767234,28.393617" id="Fill-50" fill="#4F2F19"></path>
                    <path d="M28.9085106,38.8489362 C28.8944681,38.8489362 28.8812766,38.8480851 28.8676596,38.847234 C28.5578723,38.8246809 28.3251064,38.5565957 28.3476596,38.246383 C28.4208511,37.2348936 28.532766,33.2587234 28.532766,32.0429787 C28.532766,31.7323404 28.7846809,31.4804255 29.0948936,31.4804255 C29.4055319,31.4804255 29.6574468,31.7323404 29.6574468,32.0429787 C29.6574468,33.1931915 29.5493617,37.2025532 29.4689362,38.327234 C29.447234,38.6229787 29.2004255,38.8489362 28.9085106,38.8489362" id="Fill-51" fill="#BA8663"></path>
                    <path d="M29.8068085,59.613617 C35.0246809,59.613617 39.9268085,58.2689362 44.192766,55.913617 C42.873617,54.1948936 40.4621277,53.2829787 35.0446809,51.5642553 L33.4778723,50.4944681 L29.8059574,52.4502128 L26.1344681,50.4944681 L24.5144681,51.6331915 C19.1046809,53.3485106 16.727234,54.2204255 15.4246809,55.9153191 C19.6893617,58.2697872 24.5906383,59.613617 29.8068085,59.613617" id="Fill-52" fill="#A3D685"></path>
                    <path d="M25.9995745,56.4570213 L24.4344681,52.132766 C24.3812766,51.9846809 24.4570213,51.8217021 24.6051064,51.7680851 C24.753617,51.7148936 24.9157447,51.7910638 24.9689362,51.9391489 L26.2582979,55.4987234 L29.6182979,52.6838298 C29.7378723,52.5834043 29.9174468,52.5982979 30.0187234,52.7195745 C30.1195745,52.84 30.1046809,53.0195745 29.9834043,53.12 L25.9995745,56.4570213" id="Fill-53" fill="#71A350"></path>
                    <path d="M33.5995745,56.4553191 L29.6182979,53.12 C29.4978723,53.0195745 29.4812766,52.84 29.5825532,52.7195745 C29.6838298,52.5991489 29.8634043,52.5838298 29.9834043,52.6838298 L33.3459574,55.5012766 L34.6506383,51.9821277 C34.7046809,51.8353191 34.8685106,51.7595745 35.0157447,51.8144681 C35.1634043,51.8693617 35.2382979,52.0331915 35.1842553,52.18 L33.5995745,56.4553191" id="Fill-54" fill="#71A350"></path>
                    <path d="M25.1634043,41.2476596 C27.0425532,45.0731915 33.9634043,43.7268085 34.4387234,41.0723404 L25.1634043,41.2476596" id="Fill-55" fill="#FFFFFF"></path>
                    <path d="M26.006383,41.6995745 C27.0710638,42.9987234 28.8455319,43.1548936 29.6331915,43.1548936 C31.4234043,43.1548936 33.1046809,42.4642553 33.7348936,41.5544681 L26.006383,41.6995745 Z M29.6331915,44.0906383 C27.3493617,44.0906383 25.5668085,43.1302128 24.7421277,41.453617 C24.6723404,41.3097872 24.68,41.1404255 24.7629787,41.0034043 C24.8459574,40.8668085 24.9940426,40.7821277 25.1544681,40.7787234 L34.4297872,40.6042553 C34.5651064,40.5991489 34.7038298,40.6617021 34.7944681,40.7680851 C34.8859574,40.8753191 34.9242553,41.0165957 34.8991489,41.1544681 C34.5710638,42.992766 31.9638298,44.0906383 29.6331915,44.0906383 Z" id="Fill-56" fill="#BA8663"></path>
                    <path d="M40.0221277,28.393617 C39.873617,28.393617 39.7255319,28.3344681 39.6148936,28.2191489 C39.2059574,27.7893617 38.2404255,27.5425532 37.2140426,27.6080851 C36.3310638,27.6629787 35.7502128,27.9297872 35.5842553,28.1557447 C35.3987234,28.4051064 35.047234,28.4565957 34.7978723,28.2731915 C34.5485106,28.0885106 34.4953191,27.7361702 34.68,27.4868085 C35.2740426,26.6846809 36.6012766,26.52 37.1451064,26.4859574 C38.226383,26.4178723 39.6582979,26.6348936 40.4285106,27.4434043 C40.6421277,27.6689362 40.6348936,28.0246809 40.4093617,28.2382979 C40.3008511,28.3421277 40.1608511,28.393617 40.0221277,28.393617" id="Fill-57" fill="#4F2F19"></path>
                    <path d="M15.6323404,26.4676596 C17.6451064,26.8378723 18.3851064,23.3553191 17.6170213,22.2782979 C20.6365957,23.112766 23.0025532,20.92 23.3774468,19.5612766 C23.7157447,21.9217021 27.4982979,21.2940426 27.5919149,19.3085106 C27.6859574,21.0604255 32.6502128,21.7629787 34.5310638,19.4051064 C34.3855319,21.9068085 38.0782979,22.2540426 39.4953191,20.6251064 C38.9259574,22.5119149 41.3029787,24.0757447 42.4382979,22.9804255 C41.5017021,25.0408511 43.2987234,27.4608511 44.1123404,27.0212766 C43.1612766,27.9017021 42.9459574,30.0451064 43.9834043,31.0055319 C45.2574468,32.1859574 46.0387234,30.1365957 45.8565957,29.0344681 C48.2455319,27.8319149 48.0059574,23.4740426 46.2429787,23.4808511 C48.6268085,22.813617 48.0782979,17.9812766 45.9787234,18.2523404 C46.9812766,17.6182979 46.9702128,15.0076596 44.9489362,15.2570213 C46.3719149,13.613617 45.2017021,10.0110638 42.4948936,10.8178723 C43.1404255,8.36851064 38.0357447,6.69659574 36.1365957,8.86042553 C37.052766,6.69659574 33.3059574,6.30723404 31.9378723,7.74765957 C32.8114894,7.03446809 33.0331915,5.34 31.827234,5.04340426 C30.152766,4.63276596 28.5753191,5.88595745 28.1770213,7.53914894 C27.5919149,4.97914894 24.172766,5.41829787 24.4140426,7.92382979 C23.1429787,6.07404255 20.192766,8.13404255 20.267234,10.6557447 C18.787234,8.88382979 15.2285106,10.9442553 15.8842553,13.567234 C13.4953191,13.4268085 10.5451064,16.9855319 13.2987234,20.9982979 C12.4774468,20.8097872 11.4817021,21.8565957 11.4817021,23.4740426 C11.4817021,24.4323404 12.1680851,25.4174468 12.9710638,25.8468085 C12.1680851,26.2119149 11.8025532,27.7817021 12.7165957,29.4697872 C13.4612766,30.8455319 14.7280851,31.2182979 15.6497872,30.8485106 C17.2680851,30.1978723 16.3097872,27.4519149 15.6323404,26.4676596" id="Fill-58" fill="#DB7B3A"></path>
                </g>
            </g>
        </g>
    </g>
</svg>