<?xml version="1.0" encoding="UTF-8"?>
<svg width="40px" height="40px" viewBox="0 0 40 40" version="1.1" xmlns="http://www.w3.org/2000/svg" xmlns:xlink="http://www.w3.org/1999/xlink">
    <!-- Generator: Sketch 49.3 (51167) - http://www.bohemiancoding.com/sketch -->
    <title>Group</title>
    <desc>Created with Sketch.</desc>
    <defs></defs>
    <g id="Page-1" stroke="none" stroke-width="1" fill="none" fill-rule="evenodd">
        <g id="share_list" transform="translate(-82.000000, -588.000000)">
            <g id="Group" transform="translate(82.000000, 588.000000)">
                <path d="M39.741844,19.8714894 C39.741844,30.8451064 30.8456738,39.741844 19.870922,39.741844 C8.89617021,39.741844 0,30.8451064 0,19.8714894 C0,8.89673759 8.89617021,0 19.870922,0 C30.8456738,0 39.741844,8.89673759 39.741844,19.8714894" id="Fill-248" fill="#2D7E9E"></path>
                <polygon id="Fill-249" fill="#FFCC99" points="17.4391489 35.6434043 22.3078014 35.6434043 22.3078014 29.6819858 17.4391489 29.6819858"></polygon>
                <path d="M24.7934752,33.9676596 L14.9441135,33.9693617 C12.3653901,34.9004255 10.8104965,35.6825532 10.0209929,37.1259574 C11.4382979,37.9370213 12.9636879,38.5775887 14.5721986,39.021844 C15.1131915,39.1710638 15.662695,39.2975887 16.2207092,39.4014184 C17.4048227,39.6212766 18.6238298,39.741844 19.870922,39.741844 C21.1174468,39.741844 22.3350355,39.6215603 23.5174468,39.4022695 C24.0757447,39.2984397 24.6260993,39.1719149 25.1668085,39.022695 C26.7761702,38.5784397 28.302695,37.9375887 29.7205674,37.1262411 C28.9310638,35.6819858 27.3747518,34.8998582 24.7934752,33.9676596" id="Fill-250" fill="#6D4A2B"></path>
                <path d="M23.6303546,33.5943262 C23.4609929,33.5066667 23.2950355,33.4178723 23.2950355,33.4178723 C23.2950355,33.4178723 22.2723404,32.4558865 22.3078014,32.4680851 C22.3432624,32.4805674 19.8737589,34.0150355 19.8737589,34.0150355 L17.4391489,32.4680851 L16.4468085,33.449078 C16.4468085,33.449078 16.2876596,33.5242553 16.1078014,33.604539 L16.1012766,34.2621277 L16.2207092,39.4014184 C17.4048227,39.6212766 18.6238298,39.741844 19.870922,39.741844 C21.1174468,39.741844 22.3350355,39.6215603 23.5174468,39.4022695 L23.6368794,34.2621277 L23.6303546,33.5943262" id="Fill-251" fill="#FFFFFF"></path>
                <path d="M16.1078014,33.604539 L16.1092199,33.4595745 L15.0757447,33.8116312 C15.0425532,33.812766 15.012766,33.8326241 14.9982979,33.8621277 L14.9441135,33.9693617 L13.3914894,37.0320567 C13.3753191,37.0655319 13.3804255,37.1060993 13.4053901,37.133617 L14.8516312,38.8314894 L14.5721986,39.021844 C15.1131915,39.1710638 15.662695,39.2975887 16.2207092,39.4014184 L16.1012766,34.2621277 L16.1078014,33.604539" id="Fill-252" fill="#4C2F19"></path>
                <path d="M26.3324823,37.133617 C26.3574468,37.1060993 26.3631206,37.0655319 26.3466667,37.0320567 L24.7934752,33.9676596 L24.7398582,33.8621277 C24.7251064,33.8326241 24.6953191,33.812766 24.662695,33.8116312 L23.6286525,33.4595745 L23.6303546,33.5943262 L23.6368794,34.2621277 L23.5174468,39.4022695 C24.0757447,39.2984397 24.6260993,39.1719149 25.1668085,39.022695 L24.8865248,38.8314894 L26.3324823,37.133617" id="Fill-253" fill="#4C2F19"></path>
                <path d="M25.5409929,21.2243972 C25.2238298,23.0283688 26.2933333,24.5313475 27.9316312,24.8553191 C29.5699291,25.1790071 31.1540426,24.2011348 31.4712057,22.3963121 C31.7886525,20.5923404 30.7185816,18.8666667 29.0808511,18.5424113 C27.4428369,18.2192908 25.858156,19.4195745 25.5409929,21.2243972" id="Fill-254" fill="#FFCC99"></path>
                <path d="M14.1126241,21.2243972 C14.4300709,23.0283688 13.3602837,24.5313475 11.7219858,24.8553191 C10.0839716,25.1790071 8.49957447,24.2011348 8.18269504,22.3963121 C7.86524823,20.5923404 8.93503546,18.8666667 10.5730496,18.5424113 C12.2107801,18.2192908 13.795461,19.4195745 14.1126241,21.2243972" id="Fill-255" fill="#FFCC99"></path>
                <path d="M28.0533333,9.30524823 C26.5131915,7.09021277 23.9602837,5.45702128 21.3123404,5.35205674 C21.311773,5.35205674 21.2601418,5.35007092 21.1753191,5.34666667 L21.1778723,5.24283688 C21.1778723,5.24283688 20.5361702,5.26865248 19.8737589,5.29503546 C19.2104965,5.26865248 18.568227,5.24283688 18.568227,5.24283688 L18.5716312,5.34666667 C18.4865248,5.35007092 18.4346099,5.35205674 18.4343262,5.35205674 C15.786383,5.45702128 13.2984397,7.13702128 11.693617,9.30524823 C9.03546099,12.8953191 10.2243972,20.9285106 10.7991489,23.7565957 C12.4053901,29.7651064 16.1531915,30.7914894 19.8731915,30.7914894 C23.5937589,30.7914894 27.4746099,29.7651064 28.947234,23.7565957 C29.5219858,21.2371631 30.7687943,13.2104965 28.0533333,9.30524823" id="Fill-256" fill="#FFCC99"></path>
                <path d="M17.3069504,36.524539 L16.2695035,33.657305 C16.2340426,33.5591489 16.2842553,33.4510638 16.3824113,33.4156028 C16.4811348,33.3801418 16.5886525,33.4314894 16.6241135,33.5287943 L17.4780142,35.889078 L19.7058156,34.0229787 C19.7849645,33.9557447 19.9043972,33.9659574 19.9713475,34.0465248 C20.0382979,34.1262411 20.0280851,34.2453901 19.9478014,34.3123404 L17.3069504,36.524539" id="Fill-257" fill="#B0ADB2"></path>
                <path d="M22.3452482,36.5231206 L19.7058156,34.3123404 C19.6258156,34.2453901 19.6156028,34.1262411 19.6825532,34.0465248 C19.7495035,33.9659574 19.8689362,33.9557447 19.9478014,34.0229787 L22.1775887,35.8904965 L23.0422695,33.5577305 C23.0782979,33.4595745 23.1866667,33.4102128 23.2842553,33.4462411 C23.3821277,33.4825532 23.4320567,33.5914894 23.395461,33.6885106 L22.3452482,36.5231206" id="Fill-258" fill="#B0ADB2"></path>
                <path d="M12.9582979,18.0822695 C12.866383,18.0822695 12.7739007,18.0479433 12.701844,17.9798582 C12.5526241,17.8382979 12.5466667,17.6025532 12.6879433,17.4530496 C13.0990071,17.0198582 14.0530496,16.8238298 14.8167376,16.8212766 C14.8209929,16.8212766 14.8260993,16.8212766 14.830922,16.8212766 C15.3265248,16.8212766 16.2161702,16.9004255 16.715461,17.4204255 C16.858156,17.569078 16.8533333,17.8048227 16.7049645,17.947234 C16.5560284,18.0893617 16.3208511,18.0851064 16.1778723,17.9364539 C15.9551773,17.7041135 15.4524823,17.5665248 14.8314894,17.5665248 C14.8278014,17.5665248 14.8232624,17.5665248 14.8187234,17.5665248 C14.0683688,17.569078 13.4093617,17.7756028 13.2286525,17.9656738 C13.1548936,18.0428369 13.0567376,18.0822695 12.9582979,18.0822695" id="Fill-259" fill="#3A1E0A"></path>
                <path d="M22.8201418,18.1007092 C22.707234,18.1007092 22.5957447,18.0496454 22.5225532,17.9526241 C22.3985816,17.7880851 22.430922,17.5546099 22.595461,17.4306383 C23.7188652,16.582695 25.8592908,16.6031206 26.6862411,17.4706383 C26.8280851,17.6195745 26.8229787,17.8556028 26.6737589,17.9977305 C26.5248227,18.1392908 26.289078,18.1341844 26.1469504,17.9849645 C25.5744681,17.3838298 23.8635461,17.4070922 23.044539,18.0255319 C22.977305,18.0760284 22.8984397,18.1007092 22.8201418,18.1007092" id="Fill-260" fill="#3A1E0A"></path>
                <path d="M19.2782979,24.755461 C19.2692199,24.755461 19.2604255,24.7551773 19.2507801,24.7546099 C19.0459574,24.7395745 18.8913475,24.5614184 18.906383,24.3560284 C18.9546099,23.6822695 19.0292199,21.0468085 19.0292199,20.2431206 C19.0292199,20.0377305 19.1963121,19.870922 19.4022695,19.870922 C19.6076596,19.870922 19.7744681,20.0377305 19.7744681,20.2431206 C19.7744681,21.0774468 19.6995745,23.7075177 19.6493617,24.4096454 C19.635461,24.6056738 19.4720567,24.755461 19.2782979,24.755461" id="Fill-261" fill="#CC9A75"></path>
                <path d="M19.6377305,27.7310638 C19.5446809,27.7310638 19.453617,27.7285106 19.3653901,27.724539 C18.2913475,27.6692199 17.4153191,27.3228369 16.9617021,26.7730496 C16.8306383,26.6141844 16.8533333,26.3795745 17.0124823,26.248227 C17.1707801,26.1174468 17.4059574,26.1401418 17.5364539,26.2990071 C17.8479433,26.6760284 18.5634043,26.937305 19.4034043,26.9798582 C20.4434043,27.0337589 21.4241135,26.7543262 21.9131915,26.270922 C22.0601418,26.1265248 22.2956028,26.1276596 22.4405674,26.2740426 C22.5846809,26.4204255 22.5835461,26.6564539 22.4374468,26.8011348 C21.7401418,27.4899291 20.5812766,27.7310638 19.6377305,27.7310638" id="Fill-262" fill="#BA8663"></path>
                <path d="M10.6609929,18.3421277 C10.7347518,16.8893617 10.4686525,13.7543262 12.3869504,12.932766 C13.1234043,12.6178723 14.3268085,11.6121986 15.0382979,11.3875177 C18.5778723,10.2695035 16.0323404,11.2899291 20.7202837,10.5313475 C23.3287943,10.1092199 25.9764539,11.9446809 27.3852482,12.1531915 C28.5060993,12.3188652 29.0419858,15.3007092 28.9106383,17.8629787 C28.8791489,18.4876596 28.8868085,19.0110638 28.7321986,20.2241135 C28.7129078,20.3719149 28.5764539,20.8388652 28.9285106,20.8388652 C29.2885106,20.8388652 29.5080851,20.089078 29.658156,18.9963121 C30.0334752,16.2680851 30.1886525,15.0998582 30.0666667,12.5370213 C30.0249645,11.6556028 30.1398582,8.69900709 28.3529078,8.19602837 C22.6158865,6.5812766 9.4187234,5.04 9.4187234,12.9710638 C9.4187234,16.4919149 9.95007092,20.6678014 10.310922,20.9126241 C10.6592908,21.1480851 10.7602837,20.8221277 10.7540426,20.484539 C10.7438298,19.9685106 10.6292199,18.9707801 10.6609929,18.3421277" id="Fill-263" fill="#3A1E0A"></path>
                <path d="M14.6842553,21.4178723 C14.0119149,21.4178723 13.2235461,21.1784397 12.9415603,20.6212766 C12.849078,20.4380142 12.9228369,20.2139007 13.1060993,20.1208511 C13.2896454,20.0286525 13.5143262,20.1015603 13.6070922,20.2853901 C13.711773,20.492766 14.2280851,20.7007092 14.795461,20.6695035 C14.9843972,20.6587234 15.6133333,20.5892199 15.7815603,20.1370213 C15.852766,19.9443972 16.0669504,19.8465248 16.2604255,19.9177305 C16.4533333,19.9892199 16.5514894,20.2042553 16.48,20.3965957 C16.2604255,20.9880851 15.6462411,21.3679433 14.8374468,21.413617 C14.787234,21.4164539 14.7356028,21.4178723 14.6842553,21.4178723" id="Fill-264" fill="#BA8663"></path>
                <path d="M24.4822695,21.5665248 C24.4365957,21.5665248 24.3906383,21.5656738 24.3438298,21.5631206 C23.5251064,21.5182979 22.8385816,21.0788652 22.5514894,20.4150355 C22.4697872,20.2258156 22.5568794,20.0065248 22.7455319,19.9248227 C22.9356028,19.8431206 23.1540426,19.9304965 23.235461,20.1194326 C23.4436879,20.6002837 23.9656738,20.7960284 24.3841135,20.8190071 C24.9412766,20.8493617 25.4462411,20.609078 25.6743262,20.2073759 C25.7761702,20.0280851 26.0039716,19.9659574 26.1824113,20.067234 C26.3614184,20.1687943 26.4243972,20.3963121 26.3225532,20.5750355 C25.9707801,21.1946099 25.2737589,21.5665248 24.4822695,21.5665248" id="Fill-265" fill="#BA8663"></path>
                <path d="M29.2896454,19.0252482 L10.4121986,19.0252482 C10.2068085,19.0252482 10.04,18.8587234 10.04,18.652766 C10.04,18.4470922 10.2068085,18.2805674 10.4121986,18.2805674 L29.2896454,18.2805674 C29.4953191,18.2805674 29.6621277,18.4470922 29.6621277,18.652766 C29.6621277,18.8587234 29.4953191,19.0252482 29.2896454,19.0252482" id="Fill-266" fill="#321806"></path>
                <path d="M24.195461,23.3276596 C23.2456738,23.3276596 22.4635461,23.0144681 21.8703546,22.3957447 C20.6048227,21.0763121 20.6831206,18.8411348 20.6868085,18.7460993 C20.6953191,18.5347518 20.8660993,18.3693617 21.0859574,18.3787234 C21.2978723,18.387234 21.462695,18.5656738 21.4541844,18.778156 C21.4533333,18.7977305 21.3880851,20.7860993 22.4269504,21.8666667 C22.8757447,22.3330496 23.4541844,22.5597163 24.195461,22.5597163 C25.2987234,22.5597163 26.1588652,22.2496454 26.7514894,21.6377305 C27.6885106,20.670922 27.7165957,19.2017021 27.7032624,18.7747518 C27.6967376,18.5625532 27.8632624,18.3852482 28.0751773,18.378156 C28.2828369,18.3753191 28.4643972,18.538156 28.470922,18.7500709 C28.4916312,19.395461 28.4187234,21.0209929 27.3032624,22.1724823 C26.5602837,22.9392908 25.5148936,23.3276596 24.195461,23.3276596" id="Fill-267" fill="#321806"></path>
                <path d="M15.0876596,23.3287943 C13.7628369,23.3287943 12.7129078,22.9384397 11.9673759,22.1693617 C10.8516312,21.017305 10.7790071,19.3946099 10.7994326,18.7500709 C10.8065248,18.5378723 10.9860993,18.3804255 11.1963121,18.3775887 C11.4085106,18.3843972 11.5753191,18.5622695 11.5685106,18.7747518 C11.5551773,19.2008511 11.5835461,20.667234 12.52,21.6337589 C13.1151773,22.248227 13.9787234,22.5594326 15.0876596,22.5594326 C15.8329078,22.5594326 16.4141844,22.3316312 16.8646809,21.8632624 C17.9038298,20.782695 17.8380142,18.7977305 17.8374468,18.778156 C17.8289362,18.5656738 17.9937589,18.3869504 18.2059574,18.378156 C18.4306383,18.3721986 18.5971631,18.5344681 18.6059574,18.7460993 C18.6099291,18.8405674 18.688227,21.0729078 17.421844,22.3937589 C16.8269504,23.0141844 16.0414184,23.3287943 15.0876596,23.3287943" id="Fill-268" fill="#321806"></path>
                <path d="M28.4902128,12.5912057 C27.8641135,13.018156 27.1151773,13.2388652 26.3180142,13.1129078 C25.2499291,12.9449645 25.2195745,12.1341844 25.9046809,11.4229787 C24.612766,12.9710638 19.541844,14.72 17.3778723,13.9100709 C16.6649645,13.6434043 16.6504965,12.8076596 16.9719149,12.4561702 C16.6595745,12.7574468 13.9100709,14.7546099 12.2765957,13.9421277 C11.5103546,13.5608511 12.2916312,12.5824113 12.2916312,12.5824113 C11.3367376,13.44 9.24992908,14.1699291 8.37475177,13.1880851 C7.51489362,12.2241135 8.62921986,10.8385816 9.5106383,10.2984397 C9.30865248,10.3137589 8.74553191,10.3929078 8.47858156,9.83546099 C7.91120567,8.65191489 10.1940426,6.33021277 14.1239716,4.99007092 C19.8567376,3.03574468 25.3441135,4.52567376 27.3968794,5.85191489 C28.4070922,6.5035461 29.7412766,7.66780142 30.0150355,8.96567376 C30.3424113,10.5165957 29.7914894,11.7041135 28.4902128,12.5912057" id="Fill-269" fill="#C1944C"></path>
            </g>
        </g>
    </g>
</svg>