<?xml version="1.0" encoding="UTF-8"?>
<svg width="60px" height="60px" viewBox="0 0 60 60" version="1.1" xmlns="http://www.w3.org/2000/svg" xmlns:xlink="http://www.w3.org/1999/xlink">
    <!-- Generator: Sketch 49.3 (51167) - http://www.bohemiancoding.com/sketch -->
    <title>Group 10</title>
    <desc>Created with Sketch.</desc>
    <defs></defs>
    <g id="Page-1" stroke="none" stroke-width="1" fill="none" fill-rule="evenodd">
        <g id="chat_list" transform="translate(-10.000000, -210.000000)">
            <g id="Group-17" transform="translate(10.000000, 210.000000)">
                <g id="Group-10">
                    <path d="M60,30.0004283 C60,46.5683979 46.5687303,60 30.0002141,60 C13.4312697,60 0,46.5683979 0,30.0004283 C0,13.4320304 13.4312697,0 30.0002141,0 C46.5687303,0 60,13.4320304 60,30.0004283" id="Fill-182" fill="#F3B43E"></path>
                    <path d="M28.9151797,11.5906826 C27.50854,8.03749945 18.6981518,9.82971837 18.091952,14.2841488 C12.0034862,15.3326782 11.3106254,21.7330319 12.8453355,25.6574176 C11.083514,25.5512374 9.95478703,28.9691265 11.5484094,30.3648823 C7.94109377,30.9000647 7.94109377,35.0475145 9.81433651,36.527615 C6.82474697,38.2235011 7.7472806,42.7802584 10.2450799,43.0876672 C7.0373438,44.7052025 8.81197235,49.3677119 11.2640932,49.3869784 C10.0188222,53.7155339 14.0654193,55.7021311 15.9574457,54.1595213 C16.0129428,55.584391 17.8759399,56.5151803 19.0926085,56.4689405 C20.5752366,56.4128534 22.0471922,56.0724773 23.5703759,56.0724773 C25.4154431,56.0716211 27.4022416,56.4098564 29.2268176,56.285694 C31.5632482,56.1268519 33.7891114,56.0300909 36.043577,55.4362525 C36.6894786,55.2649941 37.6231116,54.9554446 38.3351829,55.1519636 C39.212465,55.3934379 39.9070334,55.8575481 40.8628653,56.2775593 C42.3877566,56.9463232 45.0827843,55.7021311 44.9833163,52.7085347 C47.0725711,54.0306493 49.4145514,51.7494877 47.8691688,48.6912413 C50.1953538,48.9673954 52.0583509,46.5398079 50.2000497,43.5971608 C52.7507848,42.2810402 52.0583509,38.7848004 50.5095531,38.3579389 C52.6803461,37.6155338 52.537761,34.7323991 50.2837224,33.5447222 C51.456847,32.6426187 50.7375184,30.3344839 48.8783634,30.1238361 C49.5562826,27.6170416 47.6117474,26.2756604 45.9220722,26.4721794 C47.6117474,25.9785271 47.8017184,22.6321384 45.209574,22.3778197 C47.6117474,19.8560401 44.4287716,15.8503066 42.1747329,15.798501 C43.0895823,7.70953966 30.7461592,9.24829618 28.9151797,11.5906826" id="Fill-183" fill="#D86D25"></path>
                    <path d="M19.3780172,32.2840472 C19.62787,34.2232245 18.4634455,35.9564355 16.7772569,36.1575172 C15.0897958,36.3577849 13.5194134,34.9481772 13.2691364,33.0089999 C13.0188593,31.0710437 14.1837081,29.3362046 15.8711692,29.136751 C17.557782,28.9356692 19.1277401,30.3448699 19.3780172,32.2840472" id="Fill-184" fill="#FFD4AE"></path>
                    <path d="M39.7397488,32.2840472 C39.489442,34.2232245 40.6535805,35.9564355 42.3408178,36.1575172 C44.0276308,36.3577849 45.5986239,34.9481772 45.8485064,33.0089999 C46.0988131,31.0710437 44.9338261,29.3362046 43.2465888,29.136751 C41.5593516,28.9356692 39.9896313,30.3448699 39.7397488,32.2840472" id="Fill-185" fill="#FFD4AE"></path>
                    <path d="M39.7342265,19.9404915 C37.2669032,16.3926706 34.7632709,16.0540286 30.6785083,15.8823529 L27.05563,16.451751 C22.9700229,16.6242829 21.4205574,16.0364757 18.9545007,19.5842966 C16.4859109,23.1351143 16.5948379,20.6293347 16.7898932,24.9130919 C16.9376624,28.1488141 15.0305954,25.878928 16.3499632,34.8784142 C17.6697532,43.8783286 25.3778164,46.7647059 29.4326029,46.7647059 C33.4890783,46.7647059 40.6191529,44.3513999 42.5181981,34.8784142 C44.4163989,25.4054285 41.9288101,28.1488141 42.0765793,24.9130919 C42.2712124,20.6293347 42.2028164,23.4917373 39.7342265,19.9404915" id="Fill-186" fill="#FFD4AE"></path>
                    <polygon id="Fill-189" fill="#FFD4AE" points="27.3529412 55.5882353 32.6470588 55.5882353 32.6470588 45 27.3529412 45"></polygon>
                    <path d="M28.6111185,37.9411765 C28.599521,37.9411765 28.5882369,37.9402702 28.5769529,37.939364 C28.370392,37.9117237 28.2180573,37.6489145 28.2368641,37.3498556 C28.2879558,36.5256315 28.3669441,33.2948901 28.3669441,32.307996 C28.3669441,32.008031 28.5346377,31.7647059 28.7424523,31.7647059 C28.9499535,31.7647059 29.1176471,32.008031 29.1176471,32.307996 C29.1176471,33.2459532 29.0414797,36.5251783 28.9841191,37.4472763 C28.9665661,37.7286635 28.8029474,37.9411765 28.6111185,37.9411765" id="Fill-190" fill="#C68E75"></path>
                    <path d="M19.9318972,28.2352941 C19.7729458,28.2352941 19.6160014,28.1531141 19.5136463,27.9968818 C19.3430546,27.7367956 19.3916231,27.3710493 19.6224237,27.1786939 C20.5901806,26.3736007 23.4994723,26.0859707 24.5479091,27.2288147 C24.753422,27.4536809 24.7594429,27.8248456 24.5599509,28.0569364 C24.3588533,28.2899303 24.0293102,28.2939941 23.8233959,28.070031 C23.1847807,27.3742101 20.8703525,27.5968186 20.2421734,28.1206033 C20.1482476,28.1973649 20.0402731,28.2352941 19.9318972,28.2352941" id="Fill-191" fill="#AA5335"></path>
                    <path d="M34.9843462,28.2349488 C34.8003312,28.2349488 34.6194052,28.1464886 34.5090844,27.9832111 C34.3330125,27.720911 34.4022939,27.3657495 34.6648573,27.1905893 C35.7941005,26.4331756 38.6319915,26.0472071 40.3357851,27.1905893 C40.597466,27.3657495 40.6671887,27.720911 40.4906755,27.9832111 C40.313721,28.2446311 39.9589295,28.314167 39.6968074,28.1376865 C38.4064959,27.2715679 36.0756391,27.620568 35.3033938,28.1376865 C35.205429,28.2032616 35.0951082,28.2349488 34.9843462,28.2349488" id="Fill-192" fill="#AA5335"></path>
                    <path d="M38.8235294,31.9741219 C38.8235294,33.0644254 38.6936251,32.5020666 37.0588235,32.5020666 C35.4227768,32.5020666 35.2941176,33.0644254 35.2941176,31.9741219 C35.2941176,30.8834274 36.0851641,30 37.0588235,30 C38.032068,30 38.8235294,30.8834274 38.8235294,31.9741219" id="Fill-193" fill="#3A1E0A"></path>
                    <path d="M23.8235294,37.0590362 C23.8235294,38.0333563 22.638095,38.8235294 21.1762502,38.8235294 C19.7135237,38.8235294 18.5294118,38.0333563 18.5294118,37.0590362 C18.5294118,36.0847161 19.7135237,35.2941176 21.1762502,35.2941176 C22.638095,35.2941176 23.8235294,36.0847161 23.8235294,37.0590362" id="Fill-196" fill="#FFB69F"></path>
                    <path d="M40.5882353,37.0590362 C40.5882353,38.0333563 39.403143,38.8235294 37.9416174,38.8235294 C36.4787691,38.8235294 35.2941176,38.0333563 35.2941176,37.0590362 C35.2941176,36.0847161 36.4787691,35.2941176 37.9416174,35.2941176 C39.403143,35.2941176 40.5882353,36.0847161 40.5882353,37.0590362" id="Fill-197" fill="#FFB69F"></path>
                    <path d="M23.8235294,31.9741219 C23.8235294,33.0644254 23.6936251,32.5020666 22.0584085,32.5020666 C20.4223618,32.5020666 20.2941176,33.0644254 20.2941176,31.9741219 C20.2941176,30.8834274 21.084749,30 22.0584085,30 C23.032068,30 23.8235294,30.8834274 23.8235294,31.9741219" id="Fill-198" fill="#3A1E0A"></path>
                    <path d="M23.8235294,32.2071938 C23.8235294,33.4246695 23.0337281,34.4117647 22.0592386,34.4117647 C21.084749,34.4117647 20.2941176,33.4246695 20.2941176,32.2071938 C20.2941176,30.9879695 21.084749,30 22.0592386,30 C23.0337281,30 23.8235294,30.9879695 23.8235294,32.2071938" id="Fill-199" fill="#3A1E0A"></path>
                    <path d="M38.8235294,32.2071938 C38.8235294,33.4246695 38.032068,34.4117647 37.0588235,34.4117647 C36.0851641,34.4117647 35.2941176,33.4246695 35.2941176,32.2071938 C35.2941176,30.9879695 36.0851641,30 37.0588235,30 C38.032068,30 38.8235294,30.9879695 38.8235294,32.2071938" id="Fill-200" fill="#3A1E0A"></path>
                    <path d="M25.5882353,39.7058824 C26.2902154,43.6260024 32.3387365,42.8217512 32.6470588,39.7058824 L25.5882353,39.7058824" id="Fill-201" fill="#FFFFFF"></path>
                    <path d="M26.5593894,40.5281896 C27.1308077,42.2679708 28.8721704,42.4129869 29.4276681,42.4129869 C30.7396066,42.4129869 32.1883756,41.7554707 32.5812257,40.5281896 L26.5593894,40.5281896 Z M29.4285287,43.2352941 C29.4276681,43.2352941 29.4276681,43.2352941 29.4276681,43.2352941 C27.8334628,43.2344702 25.989262,42.4335858 25.5942605,40.1854242 C25.5731765,40.0655388 25.6080296,39.9440054 25.6893534,39.8517224 C25.7715379,39.7590275 25.891157,39.7058824 26.0172305,39.7058824 L33.1001492,39.7058824 C33.2210593,39.7058824 33.3363756,39.7540837 33.4172691,39.840187 C33.4994535,39.9254664 33.5390397,40.0399962 33.5274221,40.1549379 C33.3337939,42.1555009 31.2705781,43.2352941 29.4285287,43.2352941 Z" id="Fill-202" fill="#C68E75"></path>
                    <path d="M17.1107066,26.2927189 C19.5803225,27.2503404 23.4588616,22.7883033 22.3990111,19.4250729 C22.294163,20.7692725 28.7446396,23.2551386 30.7531763,20.1595715 C31.2479417,24.024093 36.0170583,24.8367477 37.6188348,23.3194282 C37.5493571,26.1901916 40.7023807,28.4894916 41.8194977,27.3079069 C41.1487222,28.0176141 42.0969874,30.6610527 43.7800316,30.6610527 C46.3005978,30.6610527 44.1573165,26.032619 44.0124661,24.8367477 C43.5581241,21.0886198 41.6775948,17.0186235 38.4782527,14.8424402 C38.2736093,14.7037763 38.063913,14.5730961 37.8483217,14.4525005 C32.7351852,11.5998054 28.867173,14.5688941 22.9855712,15.2206146 C18.0854996,15.763925 15.1994387,18.9935339 14.3543374,23.5686031 C14.0873747,25.0149098 14.0200024,26.5797112 14.2890705,28.0289593 C14.428868,28.7769041 15.0284815,30.232035 15.6744134,30.6694566 C17.5242041,31.9199531 17.5743123,27.2961415 17.1107066,26.2927189" id="Fill-203" fill="#D86D25"></path>
                    <path d="M39.0913437,54.9726922 C37.9533715,51.633829 37.426142,51.1070595 33.4483009,49.3363422 C33.395578,49.313275 32.0361695,48.5294118 32.0361695,48.5294118 L29.5670483,53.4670373 L28.3569512,51.2769175 L27.0671369,48.5294118 C27.0671369,48.5294118 25.9072321,49.2247811 25.8675844,49.2419766 C21.6999407,51.0869282 21.1528874,51.6216663 20.0111192,54.9726922 C19.8736177,55.3774156 19.6627259,56.2162206 19.4117647,57.3041507 C22.4882542,58.4344404 25.8076911,59.0643829 29.2692691,59.1080008 C29.3953824,59.109259 29.5202303,59.1176471 29.647609,59.1176471 C29.6994884,59.1176471 29.7505242,59.113453 29.8028253,59.113453 C33.2783222,59.0954187 36.6125215,58.4818329 39.7058824,57.3687387 C39.4485944,56.2480952 39.2317976,55.3858037 39.0913437,54.9726922" id="Fill-204" fill="#B3365E"></path>
                    <path d="M33.9026981,49.6651029 C33.8825109,49.5043502 33.7438341,49.3973361 33.5902365,49.4135504 C33.4379553,49.4353238 33.3317535,49.5835684 33.3519406,49.7438578 L33.7232082,52.6295315 L31.2867098,51.4097565 L29.9877122,53.8117821 L28.7791177,51.4866584 L26.2715256,52.6475988 L26.6454263,49.7438578 C26.6656134,49.5835684 26.5594116,49.4353238 26.4071304,49.4135504 C26.2544104,49.3964096 26.1152948,49.5043502 26.09423,49.6651029 L25.5882353,53.604703 L28.5364334,52.2394629 L29.7393228,54.5530051 C29.7423947,54.5594908 29.7485386,54.5613439 29.7516106,54.5664398 C29.7722366,54.6011846 29.7990064,54.6317601 29.8332368,54.6553865 C29.8494743,54.6660416 29.8665894,54.6706743 29.8841435,54.6780865 C29.9166184,54.6915212 29.949971,54.7058824 29.9833237,54.7058824 L29.9837625,54.7058824 C29.9842014,54.7058824 29.9842014,54.7058824 29.9842014,54.7058824 C30.0280864,54.7058824 30.0746046,54.6943007 30.1167342,54.6688212 L30.1171731,54.6688212 C30.1237559,54.6651151 30.1281444,54.6581661 30.1342883,54.6535335 C30.1663244,54.6308335 30.1922165,54.6035009 30.2119648,54.571999 C30.2154756,54.5664398 30.2216195,54.5636602 30.2251303,54.5585643 L31.5140344,52.1722896 L34.4117647,53.6227703 L33.9026981,49.6651029" id="Fill-205" fill="#96224B"></path>
                </g>
            </g>
        </g>
    </g>
</svg>