<?xml version="1.0" encoding="UTF-8"?>
<svg width="60px" height="60px" viewBox="0 0 60 60" version="1.1" xmlns="http://www.w3.org/2000/svg" xmlns:xlink="http://www.w3.org/1999/xlink">
    <!-- Generator: Sketch 49.3 (51167) - http://www.bohemiancoding.com/sketch -->
    <title>Group 12</title>
    <desc>Created with Sketch.</desc>
    <defs></defs>
    <g id="Page-1" stroke="none" stroke-width="1" fill="none" fill-rule="evenodd">
        <g id="chat_list" transform="translate(-10.000000, -621.000000)">
            <g id="Group-20" transform="translate(10.000000, 621.000000)">
                <g id="Group-12">
                    <path d="M59.612766,29.807234 C59.612766,46.2685106 46.2680851,59.613617 29.806383,59.613617 C13.3442553,59.613617 0,46.2685106 0,29.807234 C0,13.3451064 13.3442553,0 29.806383,0 C46.2680851,0 59.612766,13.3451064 59.612766,29.807234" id="Fill-4" fill="#FACB4C"></path>
                    <path d="M23.8902128,36.6995745 C24.1021277,36.493617 27.3834043,34.1723404 27.3212766,34.9319149 C27.1906383,36.5493617 28.6782979,35.2834043 29.4561702,35.6259574 C30.2608511,35.9808511 30.8561702,37.3412766 31.7502128,37.8646809 C33.2170213,38.7242553 36.566383,40.1306383 37.9702128,38.4591489 C38.5361702,40.146383 40.8378723,40.7497872 42.0093617,39.3319149 C44.1829787,40.9034043 46.6795745,38.8578723 46.4102128,36.4553191 C47.7625532,38.1651064 51.8251064,35.3489362 50.0689362,32.8451064 C52.3761702,32.9246809 52.9842553,29.5161702 50.8991489,28.7974468 C52.5587234,27.4668085 51.5574468,24.1 49.3706383,24.0421277 C50.512766,22.7021277 49.2744681,20.3489362 47.6229787,20.2008511 C48.3187234,18.78 47.1225532,17.7476596 45.7021277,17.9297872 C46.3821277,16.4029787 45.9506383,13.3544681 41.9723404,14.3510638 C44.3706383,10.3514894 37.5314894,6.75744681 34.3565957,8.64765957 C33.5157447,5.0812766 28.4348936,5.86042553 27.5225532,7.94978723 C26.7910638,6.8493617 24.1638298,6.64297872 24.3531915,8.40468085 C22.1102128,6.41106383 15.4510638,8.99957447 17.5540426,12.1757447 C12.7659574,12.3693617 10.5565957,17.2417021 12.4897872,18.6370213 C9.28255319,18.1719149 8.6093617,21.8012766 10.0455319,23.8770213 C7.40425532,23.7085106 6.49914894,28.5225532 8.6012766,29.7140426 C6.87744681,32.606383 8.9293617,33.9987234 10.2153191,33.7182979 C9.14212766,35.4778723 11.0344681,38.6651064 13.3468085,37.2365957 C12.6825532,40.6523404 16.3587234,41.0255319 17.0046809,39.507234 C18.4965957,42.86 22.6519149,37.9004255 23.8902128,36.6995745" id="Fill-5" fill="#331907"></path>
                    <path d="M41.9089362,17.6719149 C39.4212766,14.146383 36.8689362,14.0370213 32.752766,13.866383 L28.2778723,13.866383 C24.1604255,14.0370213 21.607234,14.146383 19.1212766,17.6719149 C16.6331915,21.2012766 17.5757447,22.1161702 17.7714894,26.3731915 C17.9204255,29.5893617 15.9978723,27.332766 17.3285106,36.2782979 C18.6582979,45.2234043 26.4268085,48.092766 30.5144681,48.092766 C34.6025532,48.092766 41.7885106,45.6940426 43.7025532,36.2782979 C45.6165957,26.8625532 43.1089362,29.5893617 43.2587234,26.3731915 C43.4540426,22.1161702 44.3965957,21.2012766 41.9089362,17.6719149" id="Fill-6" fill="#8E5F35"></path>
                    <polygon id="Fill-7" fill="#8E5F35" points="28.0076596 54.2153191 33.0208511 54.2153191 33.0208511 46.8765957 28.0076596 46.8765957"></polygon>
                    <path d="M29.6276596,39.5702128 C29.612766,39.5702128 29.5970213,39.5693617 29.5808511,39.5685106 C29.3008511,39.5429787 29.0940426,39.2953191 29.1187234,39.0153191 C29.1889362,38.2429787 29.2965957,35.2085106 29.2965957,34.2804255 C29.2965957,33.9987234 29.5255319,33.7706383 29.806383,33.7706383 C30.087234,33.7706383 30.3157447,33.9987234 30.3157447,34.2804255 C30.3157447,35.1629787 30.2119149,38.2412766 30.1344681,39.106383 C30.1106383,39.3710638 29.8885106,39.5702128 29.6276596,39.5702128" id="Fill-8" fill="#5F3A1B"></path>
                    <path d="M30.3114894,43.6046809 C28.846383,43.6046809 27.1451064,43.2446809 26.2131915,42.2148936 C26.0246809,42.006383 26.0404255,41.6838298 26.2489362,41.4953191 C26.4587234,41.306383 26.78,41.3221277 26.9697872,41.5310638 C27.6421277,42.2757447 29.1578723,42.6846809 30.8378723,42.5680851 C32.1302128,42.48 33.2280851,42.0851064 33.5693617,41.5859574 C33.7285106,41.3531915 34.0451064,41.2931915 34.2782979,41.452766 C34.5102128,41.6114894 34.5702128,41.9280851 34.4106383,42.1608511 C33.8787234,42.9387234 32.5689362,43.4714894 30.9059574,43.5846809 C30.7144681,43.5978723 30.5153191,43.6046809 30.3114894,43.6046809" id="Fill-9" fill="#563217"></path>
                    <path d="M24.9965957,33.932766 C24.9965957,35.1187234 24.186383,36.0795745 23.187234,36.0795745 C22.1889362,36.0795745 21.3778723,35.1187234 21.3778723,33.932766 C21.3778723,32.7476596 22.1889362,31.7851064 23.187234,31.7851064 C24.186383,31.7851064 24.9965957,32.7476596 24.9965957,33.932766" id="Fill-10" fill="#3A1E0A"></path>
                    <path d="M25.4702128,30.1187234 C25.3174468,30.1187234 25.1659574,30.0557447 25.0574468,29.9331915 C24.5451064,29.3553191 23.8544681,29.2246809 23.3642553,29.2153191 C22.5944681,29.2029787 21.7885106,29.4961702 21.3604255,29.947234 C21.1502128,30.1680851 20.8012766,30.1770213 20.5808511,29.967234 C20.3595745,29.7574468 20.3506383,29.4085106 20.5608511,29.1876596 C21.2076596,28.5055319 22.2944681,28.0965957 23.3834043,28.112766 C24.3880851,28.1302128 25.2757447,28.5165957 25.8825532,29.2012766 C26.0846809,29.4297872 26.0638298,29.7782979 25.8361702,29.98 C25.7306383,30.073617 25.6,30.1187234 25.4702128,30.1187234" id="Fill-11" fill="#3A1E0A"></path>
                    <path d="M36.0089362,30.0574468 C35.8893617,30.0574468 35.7693617,30.0191489 35.6689362,29.9395745 C35.4297872,29.7514894 35.387234,29.4051064 35.5748936,29.1655319 C36.0395745,28.573617 36.9165957,28.1787234 37.8638298,28.132766 C38.8638298,28.0868085 39.7838298,28.4374468 40.4395745,29.1255319 C40.6497872,29.3459574 40.6417021,29.6948936 40.4212766,29.9051064 C40.2,30.1157447 39.8510638,30.107234 39.6417021,29.886383 C39.0591489,29.2753191 38.3102128,29.213617 37.9161702,29.2348936 C37.207234,29.2685106 36.6553191,29.5757447 36.4434043,29.8468085 C36.3348936,29.9851064 36.172766,30.0574468 36.0089362,30.0574468" id="Fill-12" fill="#3A1E0A"></path>
                    <path d="M39.6285106,33.932766 C39.6285106,35.1187234 38.8170213,36.0804255 37.8191489,36.0804255 C36.82,36.0804255 36.0089362,35.1187234 36.0089362,33.932766 C36.0089362,32.7468085 36.82,31.7851064 37.8191489,31.7851064 C38.8170213,31.7851064 39.6285106,32.7468085 39.6285106,33.932766" id="Fill-13" fill="#3A1E0A"></path>
                    <path d="M24.5553191,38.6195745 C24.5553191,39.5944681 23.4114894,40.3846809 21.9995745,40.3846809 C20.5885106,40.3846809 19.4455319,39.5944681 19.4455319,38.6195745 C19.4455319,37.6446809 20.5885106,36.8540426 21.9995745,36.8540426 C23.4114894,36.8540426 24.5553191,37.6446809 24.5553191,38.6195745" id="Fill-14" fill="#AF6751"></path>
                    <path d="M41.5608511,38.6195745 C41.5608511,39.5944681 40.4170213,40.3846809 39.0051064,40.3846809 C37.5944681,40.3846809 36.4510638,39.5944681 36.4510638,38.6195745 C36.4510638,37.6446809 37.5944681,36.8540426 39.0051064,36.8540426 C40.4170213,36.8540426 41.5608511,37.6446809 41.5608511,38.6195745" id="Fill-15" fill="#AF6751"></path>
                    <path d="M34.2221277,50.6382979 L33.0208511,49.4234043 C33.0208511,49.4234043 31.0055319,50.8642553 30.472766,51.0357447 C29.9391489,50.8642553 28.0076596,49.4234043 28.0076596,49.4234043 L26.8723404,50.533617 L24.9748936,51.6208511 C25.6731915,55.5685106 28.686383,54.8387234 30.4608511,58.2714894 C32.6846809,54.7523404 35.86,55.7714894 36.4442553,51.7280851 L34.2221277,50.6382979" id="Fill-16" fill="#FFFFFF"></path>
                    <path d="M28.0625532,54.1846809 L26.8174468,50.8965957 C26.7617021,50.7506383 26.8357447,50.5868085 26.9829787,50.5310638 C27.1293617,50.4761702 27.292766,50.5502128 27.3485106,50.6957447 L28.2804255,53.1548936 L30.2702128,51.132766 C30.3795745,51.0212766 30.56,51.02 30.6714894,51.1293617 C30.7829787,51.24 30.7851064,51.4195745 30.6748936,51.5319149 L28.0625532,54.1846809" id="Fill-17" fill="#B0ADB2"></path>
                    <path d="M32.8604255,54.1638298 L30.2702128,51.5319149 C30.1604255,51.4195745 30.1621277,51.24 30.2731915,51.1293617 C30.3846809,51.02 30.5651064,51.0212766 30.6748936,51.132766 L32.6851064,53.1757447 L33.7608511,50.7910638 C33.8255319,50.6480851 33.9944681,50.5842553 34.1370213,50.6480851 C34.28,50.7131915 34.3425532,50.8808511 34.2782979,51.0246809 L32.8604255,54.1638298" id="Fill-18" fill="#B0ADB2"></path>
                    <path d="M37.8778723,52.5540426 C37.5182979,52.26 37.0919149,51.9778723 36.5365957,51.667234 C36.4634043,51.6255319 36.3689362,51.6391489 36.3089362,51.7004255 C34.9348936,53.1059574 32.6778723,53.9787234 30.4161702,53.9787234 C28.1157447,53.9787234 26.2382979,53.1034043 25.1302128,51.512766 C25.0757447,51.4344681 24.9714894,51.4089362 24.8876596,51.453617 C24.2957447,51.7659574 23.8387234,52.0438298 23.4497872,52.3280851 C23.4076596,52.3587234 23.3791489,52.4051064 23.373617,52.4574468 C23.3668085,52.5093617 23.3825532,52.5617021 23.4157447,52.6021277 C25.1021277,54.6217021 27.2855319,55.7812766 30.472766,55.7812766 C30.472766,55.7812766 34.9425532,56.1004255 37.8995745,52.8276596 C37.933617,52.7885106 37.9510638,52.7378723 37.9480851,52.686383 C37.9438298,52.6344681 37.9187234,52.586383 37.8778723,52.5540426" id="Fill-19" fill="#46591C"></path>
                    <path d="M47.713617,24.9344681 C47.5531915,21.9987234 45.0595745,17.9434043 42.6676596,16.5208511 C42.4059574,16.3651064 42.0110638,16.2310638 41.5642553,16.1417021 C41.2148936,13.4382979 37.3285106,10.6357447 36.8268085,13.3859574 C37.4348936,10.0531915 30.1421277,9.48340426 29.6268085,12.8493617 C27.3119149,10.5068085 21.1902128,11.1944681 20.9608511,14.593617 C17.5621277,12.5017021 14.5642553,16.733617 13.3817021,19.4080851 C12.4434043,21.5302128 11.7468085,24.1582979 12.313617,26.472766 C12.5340426,27.3719149 13.293617,27.0744681 14.0940426,27.5821277 C15.2259574,28.2995745 15.626383,29.2353191 16.8565957,29.6148936 C19.4455319,30.4131915 21.3778723,27.4408511 21.9306383,25.6557447 C21.9306383,25.6557447 25.4702128,26.8748936 27.113617,23.6817021 C29.6268085,25.8842553 33.1280851,22.1340426 32.9221277,21.4612766 C34.6991489,23.48 36.7782979,22.1221277 38.6931915,20.2944681 C37.8940426,23.1246809 39.6285106,24.5395745 40.7510638,24.2297872 C39.4148936,25.8842553 41.173617,28.6382979 43.1042553,27.652766 C42.1851064,29.9919149 44.3923404,33.1034043 46.1468085,31.7851064 C47.8970213,30.4697872 47.8242553,26.9659574 47.713617,24.9344681" id="Fill-20" fill="#331907"></path>
                    <path d="M40.1455319,56.647234 C39.2693617,53.9204255 38.7965957,52.9323404 36.5365957,51.667234 C36.4634043,51.6255319 36.3689362,51.6391489 36.3089362,51.7004255 C34.9348936,53.1059574 32.6778723,53.9787234 30.4161702,53.9787234 C28.1157447,53.9787234 26.2382979,53.1034043 25.1302128,51.512766 C25.0757447,51.4344681 24.9714894,51.4089362 24.8868085,51.453617 C22.3510638,52.7957447 21.8340426,53.6919149 20.8842553,56.647234 C20.7893617,56.9438298 20.6595745,57.4574468 20.5059574,58.1251064 C23.4331915,59.0868085 26.5574468,59.613617 29.806383,59.613617 C33.5446809,59.613617 37.1182979,58.9187234 40.4153191,57.6629787 C40.3089362,57.22 40.2174468,56.8702128 40.1455319,56.647234" id="Fill-21" fill="#399F85"></path>
                </g>
            </g>
        </g>
    </g>
</svg>