<?xml version="1.0" encoding="UTF-8"?>
<svg width="60px" height="60px" viewBox="0 0 60 60" version="1.1" xmlns="http://www.w3.org/2000/svg" xmlns:xlink="http://www.w3.org/1999/xlink">
    <!-- Generator: Sketch 49.3 (51167) - http://www.bohemiancoding.com/sketch -->
    <title>Group 14</title>
    <desc>Created with Sketch.</desc>
    <defs></defs>
    <g id="Page-1" stroke="none" stroke-width="1" fill="none" fill-rule="evenodd">
        <g id="discover_7" transform="translate(-77.000000, -506.000000)">
            <g id="Group-14" transform="translate(77.000000, 506.000000)">
                <g id="Group-7">
                    <path d="M59.612766,29.807234 C59.612766,46.2685106 46.2685106,59.613617 29.806383,59.613617 C13.3446809,59.613617 0,46.2685106 0,29.807234 C0,13.3455319 13.3446809,0 29.806383,0 C46.2685106,0 59.612766,13.3455319 59.612766,29.807234" id="Fill-365" fill="#9CCEB4"></path>
                    <polygon id="Fill-366" fill="#FFCC99" points="25.9574468 53.6229787 33.2604255 53.6229787 33.2604255 44.6808511 25.9574468 44.6808511"></polygon>
                    <path d="M29.7842553,59.9530681 C35.212766,59.9530681 40.2970213,58.4943447 44.6804255,55.9594511 C43.4174468,53.3815788 40.8557447,52.4564724 35.4710638,50.6534937 C35.3148936,50.6011533 34.0561702,49.6628554 34.0561702,49.6628554 C34.0561702,49.6628554 33.3868085,48.9190256 33.44,48.9364724 C33.492766,48.9547703 29.7880851,51.2007277 29.7880851,51.2007277 L26.1370213,48.9364724 L25.3442553,49.6845575 C25.3442553,49.6845575 23.8693617,50.7317915 23.5314894,50.8458341 C18.5340426,52.5262596 16.1110638,53.4751958 14.893617,55.9628554 C19.2761702,58.4960469 24.3582979,59.9530681 29.7842553,59.9530681" id="Fill-367" fill="#FFFFFF"></path>
                    <path d="M38.3816533,31.7618223 C37.9050575,34.4677798 39.5101639,36.7218223 41.9671852,37.2077798 C44.4242064,37.6933117 46.8012277,36.2265032 47.2761213,33.5192691 C47.7522916,30.8124606 46.1476107,28.2243755 43.691015,27.7384181 C41.2339937,27.2537372 38.8569724,29.0537372 38.3816533,31.7618223" id="Fill-368" fill="#FFCC99"></path>
                    <path d="M20.8942858,31.7618223 C21.3696049,34.4677798 19.7653496,36.7218223 17.3074773,37.2077798 C14.8500305,37.6933117 12.4742858,36.2265032 11.9985411,33.5192691 C11.5223709,30.8124606 13.1274773,28.2243755 15.584073,27.7384181 C18.0410943,27.2537372 20.4181156,29.0537372 20.8942858,31.7618223" id="Fill-369" fill="#FFCC99"></path>
                    <path d="M42.0089865,13.38 C39.6102631,10.1212766 35.869412,7.98042553 31.8979227,7.82340426 C31.8970716,7.82340426 31.8191993,7.82085106 31.6919652,7.81489362 L31.695795,7.65957447 C31.695795,7.65957447 30.7336674,7.69787234 29.7391993,7.73659574 C28.7451567,7.69787234 27.782178,7.65957447 27.782178,7.65957447 L27.7864333,7.81489362 C27.6591993,7.82085106 27.5809014,7.82340426 27.5809014,7.82340426 C23.608561,7.98042553 19.8681354,10.1212766 17.469412,13.38 C15.0689865,16.6421277 14.7498376,20.7502128 14.9391993,24.6851064 C15.0817525,27.6578723 15.6081354,32.4574468 15.755795,35.4302128 C18.1651567,44.4429787 24.1587737,45.9821277 29.7387737,45.9821277 C35.3196248,45.9821277 41.5136674,44.4429787 43.7226035,35.4302128 C43.8702631,32.4574468 44.3962205,27.6578723 44.5391993,24.6851064 C44.728561,20.7502128 44.4098376,16.6421277 42.0089865,13.38" id="Fill-370" fill="#FFCC99"></path>
                    <path d="M23.7787234,30.5004255 C23.7787234,31.5991489 23.0280851,32.4902128 22.1021277,32.4902128 C21.1761702,32.4902128 20.4255319,31.5991489 20.4255319,30.5004255 C20.4255319,29.4017021 21.1761702,28.5106383 22.1021277,28.5106383 C23.0280851,28.5106383 23.7787234,29.4017021 23.7787234,30.5004255" id="Fill-371" fill="#3A1E0A"></path>
                    <path d="M19.7079565,26.7297868 C19.5696586,26.7297868 19.4313607,26.6791485 19.3232756,26.5761698 C19.0990203,26.3642549 19.0900841,26.0110634 19.3024245,25.7863826 C20.2615735,24.7765953 23.0671054,24.15234 24.7143394,25.2902124 C24.968382,25.4655315 25.0322118,25.8140422 24.8564671,26.0672336 C24.6811479,26.3217017 24.3326373,26.3846805 24.0790203,26.2093613 C22.8773182,25.3791485 20.7113607,25.9259571 20.1130628,26.5561698 C20.0032756,26.671489 19.855616,26.7297868 19.7079565,26.7297868" id="Fill-372" fill="#3A1E0A"></path>
                    <path d="M39.0392351,27.0550219 C38.8920011,27.0550219 38.7443415,26.9980007 38.6345543,26.882256 C37.778384,25.983107 35.7371074,26.0069368 34.5128521,26.9320432 C34.2664691,27.1184262 33.9158308,27.06949 33.7298734,26.823107 C33.543916,26.5762985 33.5928521,26.2265113 33.8392351,26.0405538 C35.5243415,24.7669368 38.1958308,24.8005538 39.4434904,26.1111921 C39.6566819,26.3345964 39.6481713,26.6877879 39.424767,26.9014049 C39.3162564,27.0043836 39.177533,27.0550219 39.0392351,27.0550219" id="Fill-373" fill="#3A1E0A"></path>
                    <path d="M28.6448649,37.1153191 C28.6312478,37.1153191 28.6176308,37.1144681 28.6040138,37.113617 C28.2963542,37.0910638 28.0644393,36.8242553 28.086567,36.5161702 C28.1589074,35.5055319 28.2712478,31.552766 28.2712478,30.3468085 C28.2712478,30.0374468 28.5214606,29.787234 28.8303968,29.787234 C29.1389074,29.787234 29.3891202,30.0374468 29.3891202,30.3468085 C29.3891202,31.5965957 29.2767798,35.5429787 29.2014606,36.5965957 C29.180184,36.8910638 28.9350776,37.1153191 28.6448649,37.1153191" id="Fill-374" fill="#CC9A75"></path>
                    <path d="M29.5928823,41.3112129 C28.2579887,41.3112129 26.9247972,40.9954683 26.1235206,40.2052555 C25.9039461,39.9873832 25.9018185,39.6333406 26.1188397,39.4146172 C26.3362865,39.1946172 26.6890525,39.1929151 26.909478,39.4090853 C27.6405419,40.1312129 29.4882014,40.3946172 31.2090525,40.0214257 C32.8456483,39.6665321 34.01501,38.8597236 34.4167121,37.8073832 C34.5269248,37.5180215 34.848627,37.3733406 35.1384142,37.4839789 C35.4264993,37.5946172 35.5711802,37.9171704 35.4609674,38.2052555 C34.9218185,39.6175959 33.4584142,40.6780215 31.4456483,41.1141917 C30.8660738,41.2388725 30.2290525,41.3112129 29.5928823,41.3112129" id="Fill-375" fill="#BA8663"></path>
                    <path d="M35.0271068,31.0023256 C34.9581706,31.0023256 34.8875323,30.9899852 34.8194472,30.9627511 C34.5326387,30.8478575 34.3934898,30.5227511 34.5083834,30.2363681 C34.9598727,29.107432 36.0160429,28.4184958 37.1377451,28.5206235 C38.1360429,28.6121128 38.9122132,29.3236022 39.1143408,30.3342405 C39.1751919,30.6367937 38.9790217,30.9308362 38.6760429,30.9916873 C38.3730642,31.0533894 38.0794472,30.8563681 38.0185961,30.5538149 C37.9122132,30.0244532 37.5454046,29.6801979 37.0356174,29.634666 C36.5547663,29.5904107 35.8747663,29.8291341 35.5458302,30.6516873 C35.4585961,30.8704107 35.2488089,31.0023256 35.0271068,31.0023256" id="Fill-376" fill="#BA8663"></path>
                    <path d="M15.3495645,29.2061758 C15.5270113,25.4606439 15.5738198,18.6870269 18.816373,18.6870269 C21.2172241,18.6870269 21.869139,19.2453248 29.1623305,19.2453248 C35.6159475,19.2453248 37.4921177,18.4997928 39.9070113,18.4997928 C42.4959475,18.4997928 43.1380751,22.0295801 43.1878624,26.9231971 C43.1972241,27.9321333 43.2665858,28.9410694 43.3231815,29.9474524 C43.3567985,30.5376652 43.3993517,31.127878 43.429139,31.7189418 C43.4406283,31.9580907 43.5014794,32.6006439 43.809139,32.5397928 C44.1529688,32.4717077 44.1921177,31.1734099 44.2274368,30.8968141 C44.4738198,28.9444737 44.5402028,26.942346 44.5389262,24.9776652 C44.5342454,21.3495801 45.5678624,14.3631971 39.1333943,10.0108567 C35.1759475,7.33298434 26.9946709,7.06702689 22.4410539,8.58362263 C19.2687134,9.63936731 16.2278624,12.3904311 15.0972241,15.5942609 C13.8555219,19.1129843 13.8874368,21.8631971 14.2959475,28.8321333 C14.3406283,29.587878 14.4278624,30.3448992 14.5304156,31.0938354 C14.5985007,31.5925588 14.6619049,32.1036226 14.7806283,32.5912822 C15.0389262,33.6568141 15.4006283,32.8972397 15.3887134,32.2338354 C15.3721177,31.2227716 15.3023305,30.2193673 15.3495645,29.2061758" id="Fill-378" fill="#1A1A1A"></path>
                    <path d="M25.8287031,54.8931193 L24.2721073,50.5926938 C24.2193414,50.4454597 24.2950861,50.2829065 24.4414691,50.2297151 C24.5904052,50.1765236 24.7516818,50.2526938 24.8040222,50.3999278 L26.0857244,53.9395023 L29.427001,51.1412044 C29.5457244,51.0407789 29.7248733,51.0556725 29.8257244,51.176098 C29.9257244,51.2948214 29.9104052,51.4743959 29.7904052,51.575247 L25.8287031,54.8931193" id="Fill-380" fill="#B0ADB2"></path>
                    <path d="M33.4221013,54.8457405 L29.4629524,51.5295703 C29.3429524,51.4287192 29.3276332,51.2491448 29.4276332,51.1304213 C29.5289098,51.0108469 29.7076332,50.9951022 29.8263567,51.0955277 L33.1701864,53.8963788 L34.4676332,50.3976554 C34.5216758,50.2504213 34.6846545,50.1763788 34.8310375,50.2304213 C34.977846,50.2844639 35.0523141,50.4474426 34.997846,50.5942511 L33.4221013,54.8457405" id="Fill-381" fill="#B0ADB2"></path>
                </g>
                <g id="Group-13" transform="translate(13.000000, 26.000000)" fill="#321806">
                    <path d="M4.28291517,1.19346211 C3.68554361,1.19346211 3.2,1.60380386 3.2,2.1092422 L3.2,5.8907578 C3.2,6.39524517 3.68554361,6.80653789 4.28291517,6.80653789 L11.7166069,6.80653789 C12.3139785,6.80653789 12.8,6.39524517 12.8,5.8907578 L12.8,2.1092422 C12.8,1.60380386 12.3139785,1.19346211 11.7166069,1.19346211 L4.28291517,1.19346211 Z M11.7166069,8 L4.28291517,8 C3.02413381,8 2,7.053789 2,5.8907578 L2,2.1092422 C2,0.945735513 3.02413381,0 4.28291517,0 L11.7166069,0 C12.9758662,0 14,0.945735513 14,2.1092422 L14,5.8907578 C14,7.053789 12.9758662,8 11.7166069,8 Z" id="Fill-111"></path>
                    <path d="M21.283484,1.19346211 C20.6860887,1.19346211 20.2000478,1.60380386 20.2000478,2.1092422 L20.2000478,5.8907578 C20.2000478,6.39524517 20.6860887,6.80653789 21.283484,6.80653789 L28.7174718,6.80653789 C29.3148672,6.80653789 29.8004301,6.39524517 29.8004301,5.8907578 L29.8004301,2.1092422 C29.8004301,1.60380386 29.3148672,1.19346211 28.7174718,1.19346211 L21.283484,1.19346211 Z M28.7174718,8 L21.283484,8 C20.0246525,8 19,7.053789 19,5.8907578 L19,2.1092422 C19,0.945735513 20.0246525,0 21.283484,0 L28.7174718,0 C29.9758254,0 31,0.945735513 31,2.1092422 L31,5.8907578 C31,7.053789 29.9758254,8 28.7174718,8 Z" id="Fill-112"></path>
                    <path d="M13,2.44779661 L13,2 L13,2.44779661 Z M19.3533893,3 C19.3034897,3 19.2526117,2.9959322 19.2022229,2.98745763 C18.9047824,2.94169492 16.8745548,2.89525424 13.0097842,2.89525424 L13,2.44779661 L13.0097842,2 C15.653483,2 18.9258184,2.02033898 19.5045556,2.11661017 C19.8518957,2.17491525 20.0651919,2.41661017 19.982026,2.65694915 C19.9101119,2.8620339 19.6454485,3 19.3533893,3 Z" id="Fill-113"></path>
                    <path d="M30.9572321,4 C30.5721335,4 30.2950443,3.8822698 30.1118323,3.55477667 C29.9074222,3.19202424 29.9912051,2.70257738 30.2980726,2.46114084 C30.509044,2.29560143 30.7699823,2.29022289 30.9789349,2.42169823 C31.220694,2.41691731 31.7834526,2.2866372 32.1342304,2.20595914 C32.71314,2.07209334 33.0805735,1.98723198 33.353625,2.00157474 C33.7225726,2.01531989 34.0112703,2.37986517 33.9996618,2.81552666 C33.9865392,3.25178576 33.6700821,3.60019543 33.3112288,3.57927889 C33.1890875,3.57927889 32.7212155,3.67908063 32.3886075,3.75497776 C31.8021271,3.89063642 31.329208,4 30.9572321,4" id="Fill-114"></path>
                    <path d="M2.34307593,3 C1.94357557,3 1.53431146,2.79761727 1.13684521,2.59975426 C0.890717189,2.47772199 0.636452702,2.35167221 0.458670974,2.31902983 C0.165351462,2.26529546 -0.0376533037,1.92832571 0.00587677633,1.56574424 C0.0494068564,1.20366497 0.322385209,0.955080728 0.616111543,1.00680634 C0.919194811,1.06254947 1.23366913,1.21822849 1.53756604,1.3693878 C1.8369879,1.51753397 2.21004476,1.70284222 2.38294461,1.67070204 C2.67545047,1.61746985 2.95005612,1.86555191 2.99399302,2.22763118 C3.03792992,2.59021264 2.83614563,2.92768458 2.54241929,2.98192115 C2.47651394,2.99447591 2.41020176,3 2.34307593,3" id="Fill-115"></path>
                </g>
            </g>
        </g>
    </g>
</svg>